Toren-Mono.ufo
<glyph name="exclam" format="1">
  <advance width="608"/>
  <unicode hex="0021"/>
  <outline>
    <contour>
      <point x="328" y="192" type="line"/>
      <point x="336" y="304"/>
      <point x="360" y="544"/>
      <point x="360" y="664" type="curve" smooth="yes"/>
      <point x="360" y="696"/>
      <point x="336" y="720"/>
      <point x="304" y="720" type="curve" smooth="yes"/>
      <point x="272" y="720"/>
      <point x="248" y="696"/>
      <point x="248" y="664" type="curve" smooth="yes"/>
      <point x="248" y="544"/>
      <point x="272" y="304"/>
      <point x="280" y="192" type="curve"/>
    </contour>
    <contour>
      <point x="304" y="112" type="curve" smooth="yes"/>
      <point x="268" y="112"/>
      <point x="240" y="84"/>
      <point x="240" y="48" type="curve" smooth="yes"/>
      <point x="240" y="12"/>
      <point x="268" y="-16"/>
      <point x="304" y="-16" type="curve" smooth="yes"/>
      <point x="340" y="-16"/>
      <point x="368" y="12"/>
      <point x="368" y="48" type="curve" smooth="yes"/>
      <point x="368" y="84"/>
      <point x="340" y="112"/>
    </contour>
  </outline>
</glyph>
<glyph name="quotedbl" format="1">
  <advance width="608"/>
  <unicode hex="0022"/>
  <outline>
    <contour>
      <point x="224" y="416" type="line"/>
      <point x="236" y="512"/>
      <point x="256" y="640"/>
      <point x="256" y="672" type="curve" smooth="yes"/>
      <point x="256" y="700"/>
      <point x="236" y="720"/>
      <point x="208" y="720" type="curve" smooth="yes"/>
      <point x="182" y="720"/>
      <point x="160" y="700"/>
      <point x="160" y="672" type="curve" smooth="yes"/>
      <point x="160" y="640"/>
      <point x="180" y="512"/>
      <point x="192" y="416" type="curve"/>
    </contour>
    <contour>
      <point x="384" y="416" type="line"/>
      <point x="396" y="512"/>
      <point x="416" y="640"/>
      <point x="416" y="672" type="curve" smooth="yes"/>
      <point x="416" y="700"/>
      <point x="396" y="720"/>
      <point x="368" y="720" type="curve" smooth="yes"/>
      <point x="342" y="720"/>
      <point x="320" y="700"/>
      <point x="320" y="672" type="curve" smooth="yes"/>
      <point x="320" y="640"/>
      <point x="340" y="512"/>
      <point x="352" y="416" type="curve"/>
    </contour>
  </outline>
</glyph>
<glyph name="numbersign" format="1">
  <advance width="608"/>
  <unicode hex="0023"/>
  <outline>
    <contour>
      <point x="346" y="256" type="line"/>
      <point x="186" y="256" type="line"/>
      <point x="230" y="448" type="line"/>
      <point x="390" y="448" type="line"/>
    </contour>
    <contour>
      <point x="288" y="0" type="line"/>
      <point x="352" y="0" type="line"/>
      <point x="396" y="192" type="line"/>
      <point x="496" y="192" type="line"/>
      <point x="512" y="256" type="line"/>
      <point x="410" y="256" type="line"/>
      <point x="454" y="448" type="line"/>
      <point x="544" y="448" type="line"/>
      <point x="560" y="512" type="line"/>
      <point x="468" y="512" type="line"/>
      <point x="512" y="704" type="line"/>
      <point x="448" y="704" type="line"/>
      <point x="404" y="512" type="line"/>
      <point x="244" y="512" type="line"/>
      <point x="288" y="704" type="line"/>
      <point x="224" y="704" type="line"/>
      <point x="180" y="512" type="line"/>
      <point x="80" y="512" type="line"/>
      <point x="64" y="448" type="line"/>
      <point x="166" y="448" type="line"/>
      <point x="122" y="256" type="line"/>
      <point x="32" y="256" type="line"/>
      <point x="16" y="192" type="line"/>
      <point x="108" y="192" type="line"/>
      <point x="64" y="0" type="line"/>
      <point x="128" y="0" type="line"/>
      <point x="172" y="192" type="line"/>
      <point x="332" y="192" type="line"/>
    </contour>
  </outline>
</glyph>
<glyph name="dollar" format="1">
  <advance width="608"/>
  <unicode hex="0024"/>
  <outline>
    <contour>
      <point x="156" y="546" type="curve" smooth="yes"/>
      <point x="156" y="604"/>
      <point x="201" y="649"/>
      <point x="272" y="657" type="curve"/>
      <point x="272" y="436" type="line"/>
      <point x="195" y="453"/>
      <point x="156" y="490"/>
    </contour>
    <contour>
      <point x="464" y="186" type="curve" smooth="yes"/>
      <point x="464" y="114"/>
      <point x="416" y="64"/>
      <point x="336" y="53" type="curve"/>
      <point x="336" y="312" type="line"/>
      <point x="426" y="286"/>
      <point x="464" y="264"/>
    </contour>
    <contour>
      <point x="336" y="-128" type="line"/>
      <point x="336" y="7" type="line"/>
      <point x="460" y="20"/>
      <point x="538" y="102"/>
      <point x="538" y="214" type="curve" smooth="yes"/>
      <point x="538" y="326"/>
      <point x="474" y="379"/>
      <point x="336" y="416" type="curve"/>
      <point x="336" y="658" type="line"/>
      <point x="392" y="656"/>
      <point x="428" y="626"/>
      <point x="428" y="612" type="curve" smooth="yes"/>
      <point x="428" y="594"/>
      <point x="384" y="598"/>
      <point x="384" y="550" type="curve" smooth="yes"/>
      <point x="384" y="516"/>
      <point x="408" y="492"/>
      <point x="444" y="492" type="curve" smooth="yes"/>
      <point x="484" y="492"/>
      <point x="510" y="520"/>
      <point x="510" y="562" type="curve" smooth="yes"/>
      <point x="510" y="629"/>
      <point x="444" y="690"/>
      <point x="336" y="700" type="curve"/>
      <point x="336" y="816" type="line"/>
      <point x="272" y="816" type="line"/>
      <point x="272" y="699" type="line"/>
      <point x="163" y="689"/>
      <point x="92" y="618"/>
      <point x="92" y="522" type="curve" smooth="yes"/>
      <point x="92" y="418"/>
      <point x="149" y="360"/>
      <point x="272" y="332" type="curve"/>
      <point x="272" y="50" type="line"/>
      <point x="198" y="50"/>
      <point x="152" y="92"/>
      <point x="152" y="112" type="curve" smooth="yes"/>
      <point x="152" y="132"/>
      <point x="208" y="132"/>
      <point x="208" y="188" type="curve" smooth="yes"/>
      <point x="208" y="222"/>
      <point x="182" y="250"/>
      <point x="148" y="250" type="curve" smooth="yes"/>
      <point x="104" y="250"/>
      <point x="74" y="216"/>
      <point x="74" y="164" type="curve" smooth="yes"/>
      <point x="74" y="78"/>
      <point x="166" y="4"/>
      <point x="264" y="4" type="curve" smooth="yes"/>
      <point x="266" y="4"/>
      <point x="269" y="5"/>
      <point x="272" y="5" type="curve"/>
      <point x="272" y="-128" type="line"/>
    </contour>
  </outline>
</glyph>
<glyph name="percent" format="1">
  <advance width="608"/>
  <unicode hex="0025"/>
  <outline>
    <contour>
      <point x="480" y="768" type="line"/>
      <point x="64" y="-64" type="line"/>
      <point x="128" y="-64" type="line"/>
      <point x="544" y="768" type="line"/>
    </contour>
    <contour>
      <point x="32" y="544" type="curve" smooth="yes"/>
      <point x="32" y="454"/>
      <point x="78" y="380"/>
      <point x="156" y="380" type="curve" smooth="yes"/>
      <point x="234" y="380"/>
      <point x="280" y="454"/>
      <point x="280" y="544" type="curve" smooth="yes"/>
      <point x="280" y="626"/>
      <point x="234" y="700"/>
      <point x="156" y="700" type="curve" smooth="yes"/>
      <point x="78" y="700"/>
      <point x="32" y="626"/>
    </contour>
    <contour>
      <point x="156" y="672" type="curve" smooth="yes"/>
      <point x="210" y="672"/>
      <point x="222" y="608"/>
      <point x="222" y="544" type="curve" smooth="yes"/>
      <point x="222" y="472"/>
      <point x="210" y="408"/>
      <point x="156" y="408" type="curve" smooth="yes"/>
      <point x="102" y="408"/>
      <point x="90" y="472"/>
      <point x="90" y="544" type="curve" smooth="yes"/>
      <point x="90" y="608"/>
      <point x="102" y="672"/>
    </contour>
    <contour>
      <point x="328" y="160" type="curve" smooth="yes"/>
      <point x="328" y="70"/>
      <point x="374" y="-4"/>
      <point x="452" y="-4" type="curve" smooth="yes"/>
      <point x="530" y="-4"/>
      <point x="576" y="70"/>
      <point x="576" y="160" type="curve" smooth="yes"/>
      <point x="576" y="242"/>
      <point x="530" y="316"/>
      <point x="452" y="316" type="curve" smooth="yes"/>
      <point x="374" y="316"/>
      <point x="328" y="242"/>
    </contour>
    <contour>
      <point x="452" y="288" type="curve" smooth="yes"/>
      <point x="506" y="288"/>
      <point x="518" y="224"/>
      <point x="518" y="160" type="curve" smooth="yes"/>
      <point x="518" y="88"/>
      <point x="506" y="24"/>
      <point x="452" y="24" type="curve" smooth="yes"/>
      <point x="398" y="24"/>
      <point x="386" y="88"/>
      <point x="386" y="160" type="curve" smooth="yes"/>
      <point x="386" y="224"/>
      <point x="398" y="288"/>
    </contour>
  </outline>
</glyph>
<glyph name="ampersand" format="1">
  <advance width="608"/>
  <unicode hex="0026"/>
  <outline>
    <contour>
      <point x="262" y="484" type="line"/>
      <point x="234" y="540"/>
      <point x="220" y="576"/>
      <point x="220" y="616" type="curve" smooth="yes"/>
      <point x="220" y="644"/>
      <point x="240" y="672"/>
      <point x="272" y="672" type="curve" smooth="yes"/>
      <point x="304" y="672"/>
      <point x="320" y="644"/>
      <point x="320" y="616" type="curve" smooth="yes"/>
      <point x="320" y="576"/>
      <point x="310" y="528"/>
      <point x="266" y="484" type="curve" smooth="yes"/>
      <point x="263" y="481" type="line"/>
    </contour>
    <contour>
      <point x="248" y="64" type="curve" smooth="yes"/>
      <point x="176" y="64"/>
      <point x="128" y="128"/>
      <point x="128" y="192" type="curve" smooth="yes"/>
      <point x="128" y="256"/>
      <point x="150" y="303"/>
      <point x="218" y="372" type="curve"/>
      <point x="226" y="358"/>
      <point x="233" y="345"/>
      <point x="238" y="336" type="curve" smooth="yes"/>
      <point x="342" y="128" type="line"/>
      <point x="316" y="87"/>
      <point x="282" y="64"/>
    </contour>
    <contour>
      <point x="406" y="0" type="line"/>
      <point x="544" y="0" type="line"/>
      <point x="544" y="16" type="line"/>
      <point x="480" y="48" type="line"/>
      <point x="420" y="168" type="line"/>
      <point x="496" y="320" type="line" smooth="yes"/>
      <point x="523" y="376"/>
      <point x="543" y="406"/>
      <point x="544" y="437" type="curve" smooth="yes"/>
      <point x="544" y="440"/>
      <point x="544" y="439"/>
      <point x="544" y="439" type="curve"/>
      <point x="544" y="439"/>
      <point x="544" y="439"/>
      <point x="544" y="440" type="curve" smooth="yes"/>
      <point x="544" y="472"/>
      <point x="520" y="496"/>
      <point x="488" y="496" type="curve" smooth="yes"/>
      <point x="456" y="496"/>
      <point x="432" y="472"/>
      <point x="432" y="440" type="curve" smooth="yes"/>
      <point x="432" y="424"/>
      <point x="438" y="410"/>
      <point x="448" y="400" type="curve" smooth="yes"/>
      <point x="464" y="384"/>
      <point x="456" y="350"/>
      <point x="440" y="320" type="curve" smooth="yes"/>
      <point x="392" y="224" type="line"/>
      <point x="289" y="429" type="line"/>
      <point x="292" y="432" type="line" smooth="yes"/>
      <point x="330" y="470"/>
      <point x="392" y="536"/>
      <point x="392" y="608" type="curve" smooth="yes"/>
      <point x="392" y="680"/>
      <point x="352" y="720"/>
      <point x="272" y="720" type="curve" smooth="yes"/>
      <point x="192" y="720"/>
      <point x="134" y="664"/>
      <point x="134" y="584" type="curve" smooth="yes"/>
      <point x="134" y="541"/>
      <point x="163" y="477"/>
      <point x="191" y="423" type="curve"/>
      <point x="190" y="422" type="line" smooth="yes"/>
      <point x="98" y="330"/>
      <point x="32" y="256"/>
      <point x="32" y="160" type="curve" smooth="yes"/>
      <point x="32" y="48"/>
      <point x="112" y="-16"/>
      <point x="216" y="-16" type="curve" smooth="yes"/>
      <point x="297" y="-16"/>
      <point x="344" y="32"/>
      <point x="370" y="72" type="curve"/>
    </contour>
  </outline>
</glyph>
<glyph name="quotesingle" format="1">
  <advance width="608"/>
  <unicode hex="0027"/>
  <outline>
    <contour>
      <point x="292" y="420" type="line"/>
      <point x="309" y="420" type="line"/>
      <point x="343" y="644" type="line" smooth="yes"/>
      <point x="344" y="651"/>
      <point x="345" y="658"/>
      <point x="345" y="664" type="curve" smooth="yes"/>
      <point x="345" y="697"/>
      <point x="328" y="714"/>
      <point x="301" y="714" type="curve" smooth="yes"/>
      <point x="274" y="714"/>
      <point x="257" y="695"/>
      <point x="257" y="662" type="curve" smooth="yes"/>
      <point x="257" y="656"/>
      <point x="258" y="651"/>
      <point x="259" y="644" type="curve" smooth="yes"/>
    </contour>
  </outline>
</glyph>
<glyph name="parenleft" format="1">
  <advance width="608"/>
  <unicode hex="0028"/>
  <outline>
    <contour>
      <point x="272" y="336" type="curve" smooth="yes"/>
      <point x="272" y="464"/>
      <point x="288" y="640"/>
      <point x="416" y="768" type="curve"/>
      <point x="384" y="800" type="line"/>
      <point x="224" y="672"/>
      <point x="192" y="480"/>
      <point x="192" y="336" type="curve" smooth="yes"/>
      <point x="192" y="192"/>
      <point x="224" y="0"/>
      <point x="384" y="-128" type="curve"/>
      <point x="416" y="-96" type="line"/>
      <point x="288" y="32"/>
      <point x="272" y="208"/>
    </contour>
  </outline>
</glyph>
<glyph name="parenright" format="1">
  <advance width="608"/>
  <unicode hex="0029"/>
  <outline>
    <contour>
      <point x="336" y="336" type="curve" smooth="yes"/>
      <point x="336" y="208"/>
      <point x="320" y="32"/>
      <point x="192" y="-96" type="curve"/>
      <point x="224" y="-128" type="line"/>
      <point x="384" y="0"/>
      <point x="416" y="192"/>
      <point x="416" y="336" type="curve" smooth="yes"/>
      <point x="416" y="480"/>
      <point x="384" y="672"/>
      <point x="224" y="800" type="curve"/>
      <point x="192" y="768" type="line"/>
      <point x="320" y="640"/>
      <point x="336" y="464"/>
    </contour>
  </outline>
</glyph>
<glyph name="asterisk" format="1">
  <advance width="608"/>
  <unicode hex="002A"/>
  <outline>
    <contour>
      <point x="416" y="372" type="curve" smooth="yes"/>
      <point x="438" y="388"/>
      <point x="444" y="416"/>
      <point x="428" y="440" type="curve"/>
      <point x="409" y="465"/>
      <point x="377" y="479"/>
      <point x="332" y="519" type="curve"/>
      <point x="390" y="526"/>
      <point x="426" y="518"/>
      <point x="456" y="528" type="curve" smooth="yes"/>
      <point x="484" y="536"/>
      <point x="496" y="562"/>
      <point x="488" y="588" type="curve" smooth="yes"/>
      <point x="480" y="612"/>
      <point x="454" y="628"/>
      <point x="426" y="618" type="curve" smooth="yes"/>
      <point x="397" y="608"/>
      <point x="374" y="582"/>
      <point x="322" y="552" type="curve"/>
      <point x="334" y="611"/>
      <point x="352" y="641"/>
      <point x="352" y="672" type="curve" smooth="yes"/>
      <point x="352" y="700"/>
      <point x="332" y="720"/>
      <point x="304" y="720" type="curve" smooth="yes"/>
      <point x="278" y="720"/>
      <point x="256" y="700"/>
      <point x="256" y="672" type="curve" smooth="yes"/>
      <point x="256" y="641"/>
      <point x="274" y="611"/>
      <point x="286" y="552" type="curve"/>
      <point x="234" y="582"/>
      <point x="211" y="608"/>
      <point x="182" y="618" type="curve" smooth="yes"/>
      <point x="154" y="628"/>
      <point x="130" y="614"/>
      <point x="120" y="588" type="curve"/>
      <point x="112" y="562"/>
      <point x="124" y="536"/>
      <point x="152" y="528" type="curve"/>
      <point x="181" y="518"/>
      <point x="215" y="525"/>
      <point x="276" y="519" type="curve"/>
      <point x="234" y="480"/>
      <point x="200" y="466"/>
      <point x="180" y="440" type="curve"/>
      <point x="164" y="416"/>
      <point x="168" y="388"/>
      <point x="192" y="372" type="curve" smooth="yes"/>
      <point x="212" y="358"/>
      <point x="242" y="360"/>
      <point x="258" y="382" type="curve" smooth="yes"/>
      <point x="277" y="407"/>
      <point x="280" y="442"/>
      <point x="304" y="497" type="curve"/>
      <point x="328" y="442"/>
      <point x="331" y="407"/>
      <point x="350" y="382" type="curve" smooth="yes"/>
      <point x="366" y="360"/>
      <point x="394" y="356"/>
    </contour>
  </outline>
</glyph>
<glyph name="plus" format="1">
  <advance width="608"/>
  <unicode hex="002B"/>
  <outline>
    <contour>
      <point x="340" y="288" type="line"/>
      <point x="340" y="512" type="line"/>
      <point x="268" y="512" type="line"/>
      <point x="268" y="288" type="line"/>
      <point x="64" y="288" type="line"/>
      <point x="64" y="224" type="line"/>
      <point x="268" y="224" type="line"/>
      <point x="268" y="0" type="line"/>
      <point x="340" y="0" type="line"/>
      <point x="340" y="224" type="line"/>
      <point x="544" y="224" type="line"/>
      <point x="544" y="288" type="line"/>
    </contour>
  </outline>
</glyph>
<glyph name="comma" format="1">
  <advance width="608"/>
  <unicode hex="002C"/>
  <outline>
    <contour>
      <point x="240" y="-160" type="line"/>
      <point x="320" y="-160"/>
      <point x="372" y="-64"/>
      <point x="372" y="16" type="curve" smooth="yes"/>
      <point x="372" y="31"/>
      <point x="370" y="47"/>
      <point x="367" y="62" type="curve" smooth="yes"/>
      <point x="360" y="91"/>
      <point x="335" y="112"/>
      <point x="304" y="112" type="curve" smooth="yes"/>
      <point x="268" y="112"/>
      <point x="240" y="84"/>
      <point x="240" y="48" type="curve" smooth="yes"/>
      <point x="240" y="41"/>
      <point x="241" y="34"/>
      <point x="243" y="28" type="curve"/>
      <point x="250" y="-4"/>
      <point x="288" y="-16"/>
      <point x="288" y="-48" type="curve" smooth="yes"/>
      <point x="288" y="-96"/>
      <point x="262" y="-100"/>
      <point x="240" y="-112" type="curve"/>
    </contour>
  </outline>
</glyph>
<glyph name="hyphen" format="1">
  <advance width="608"/>
  <unicode hex="002D"/>
  <outline>
    <contour>
      <point x="464" y="384" type="line"/>
      <point x="144" y="384" type="line"/>
      <point x="144" y="320" type="line"/>
      <point x="464" y="320" type="line"/>
    </contour>
  </outline>
</glyph>
<glyph name="period" format="1">
  <advance width="608"/>
  <unicode hex="002E"/>
  <outline>
    <contour>
      <point x="304" y="112" type="curve" smooth="yes"/>
      <point x="268" y="112"/>
      <point x="240" y="84"/>
      <point x="240" y="48" type="curve" smooth="yes"/>
      <point x="240" y="12"/>
      <point x="268" y="-16"/>
      <point x="304" y="-16" type="curve" smooth="yes"/>
      <point x="340" y="-16"/>
      <point x="368" y="12"/>
      <point x="368" y="48" type="curve" smooth="yes"/>
      <point x="368" y="84"/>
      <point x="340" y="112"/>
    </contour>
  </outline>
</glyph>
<glyph name="slash" format="1">
  <advance width="608"/>
  <unicode hex="002F"/>
  <outline>
    <contour>
      <point x="448" y="768" type="line"/>
      <point x="96" y="-64" type="line"/>
      <point x="160" y="-64" type="line"/>
      <point x="512" y="768" type="line"/>
    </contour>
  </outline>
</glyph>
<glyph name="zero" format="1">
  <advance width="608"/>
  <unicode hex="0030"/>
  <outline>
    <contour>
      <point x="96" y="352" type="curve" smooth="yes"/>
      <point x="96" y="128"/>
      <point x="168" y="-16"/>
      <point x="304" y="-16" type="curve" smooth="yes"/>
      <point x="440" y="-16"/>
      <point x="512" y="128"/>
      <point x="512" y="352" type="curve" smooth="yes"/>
      <point x="512" y="576"/>
      <point x="440" y="720"/>
      <point x="304" y="720" type="curve" smooth="yes"/>
      <point x="168" y="720"/>
      <point x="96" y="576"/>
    </contour>
    <contour>
      <point x="208" y="352" type="curve" smooth="yes"/>
      <point x="208" y="544"/>
      <point x="216" y="664"/>
      <point x="304" y="664" type="curve" smooth="yes"/>
      <point x="334" y="664"/>
      <point x="355" y="650"/>
      <point x="369" y="624" type="curve"/>
      <point x="218" y="147" type="line"/>
      <point x="209" y="199"/>
      <point x="208" y="269"/>
    </contour>
    <contour>
      <point x="304" y="40" type="curve" smooth="yes"/>
      <point x="274" y="40"/>
      <point x="253" y="54"/>
      <point x="239" y="80" type="curve"/>
      <point x="390" y="557" type="line"/>
      <point x="399" y="505"/>
      <point x="400" y="435"/>
      <point x="400" y="352" type="curve" smooth="yes"/>
      <point x="400" y="160"/>
      <point x="392" y="40"/>
    </contour>
  </outline>
</glyph>
<glyph name="one" format="1">
  <advance width="608"/>
  <unicode hex="0031"/>
  <outline>
    <contour>
      <point x="512" y="0" type="line"/>
      <point x="512" y="24" type="line"/>
      <point x="352" y="56" type="line"/>
      <point x="352" y="704" type="line"/>
      <point x="272" y="704" type="line"/>
      <point x="256" y="640"/>
      <point x="192" y="624"/>
      <point x="152" y="624" type="curve" smooth="yes"/>
      <point x="128" y="624" type="line"/>
      <point x="128" y="576" type="line"/>
      <point x="256" y="576" type="line"/>
      <point x="256" y="56" type="line"/>
      <point x="96" y="24" type="line"/>
      <point x="96" y="0" type="line"/>
    </contour>
  </outline>
</glyph>
<glyph name="two" format="1">
  <advance width="608"/>
  <unicode hex="0032"/>
  <outline>
    <contour>
      <point x="88" y="0" type="line"/>
      <point x="496" y="0" type="line"/>
      <point x="528" y="160" type="line"/>
      <point x="504" y="160" type="line"/>
      <point x="468" y="88" type="line"/>
      <point x="224" y="88" type="line"/>
      <point x="360" y="224" type="line" smooth="yes"/>
      <point x="476" y="340"/>
      <point x="528" y="394"/>
      <point x="528" y="504" type="curve" smooth="yes"/>
      <point x="528" y="616"/>
      <point x="448" y="720"/>
      <point x="304" y="720" type="curve" smooth="yes"/>
      <point x="184" y="720"/>
      <point x="88" y="640"/>
      <point x="80" y="480" type="curve"/>
      <point x="128" y="480" type="line"/>
      <point x="152" y="592"/>
      <point x="208" y="640"/>
      <point x="272" y="640" type="curve" smooth="yes"/>
      <point x="352" y="640"/>
      <point x="416" y="572"/>
      <point x="416" y="480" type="curve" smooth="yes"/>
      <point x="416" y="404"/>
      <point x="368" y="328"/>
      <point x="256" y="216" type="curve" smooth="yes"/>
      <point x="88" y="48" type="line"/>
    </contour>
  </outline>
</glyph>
<glyph name="three" format="1">
  <advance width="608"/>
  <unicode hex="0033"/>
  <outline>
    <contour>
      <point x="312" y="-16" type="curve" smooth="yes"/>
      <point x="424" y="-16"/>
      <point x="528" y="80"/>
      <point x="528" y="208" type="curve" smooth="yes"/>
      <point x="528" y="336"/>
      <point x="424" y="436"/>
      <point x="304" y="436" type="curve" smooth="yes"/>
      <point x="300" y="436" type="line"/>
      <point x="520" y="656" type="line"/>
      <point x="520" y="704" type="line"/>
      <point x="144" y="704" type="line"/>
      <point x="112" y="544" type="line"/>
      <point x="136" y="544" type="line"/>
      <point x="172" y="616" type="line"/>
      <point x="392" y="616" type="line"/>
      <point x="184" y="408" type="line"/>
      <point x="220" y="336" type="line"/>
      <point x="240" y="344"/>
      <point x="256" y="352"/>
      <point x="288" y="352" type="curve" smooth="yes"/>
      <point x="352" y="352"/>
      <point x="416" y="288"/>
      <point x="416" y="208" type="curve" smooth="yes"/>
      <point x="416" y="120"/>
      <point x="344" y="64"/>
      <point x="288" y="64" type="curve" smooth="yes"/>
      <point x="224" y="64"/>
      <point x="144" y="96"/>
      <point x="128" y="208" type="curve"/>
      <point x="80" y="208" type="line"/>
      <point x="80" y="56"/>
      <point x="208" y="-16"/>
    </contour>
  </outline>
</glyph>
<glyph name="four" format="1">
  <advance width="608"/>
  <unicode hex="0034"/>
  <outline>
    <contour>
      <point x="480" y="24" type="line"/>
      <point x="416" y="56" type="line"/>
      <point x="416" y="192" type="line"/>
      <point x="512" y="192" type="line"/>
      <point x="512" y="240" type="line"/>
      <point x="416" y="240" type="line"/>
      <point x="416" y="704" type="line"/>
      <point x="368" y="704" type="line"/>
      <point x="96" y="240" type="line"/>
      <point x="96" y="192" type="line"/>
      <point x="320" y="192" type="line"/>
      <point x="320" y="56" type="line"/>
      <point x="256" y="24" type="line"/>
      <point x="256" y="0" type="line"/>
      <point x="480" y="0" type="line"/>
    </contour>
    <contour>
      <point x="320" y="496" type="line"/>
      <point x="320" y="240" type="line"/>
      <point x="176" y="240" type="line"/>
    </contour>
  </outline>
</glyph>
<glyph name="five" format="1">
  <advance width="608"/>
  <unicode hex="0035"/>
  <outline>
    <contour>
      <point x="312" y="-16" type="curve" smooth="yes"/>
      <point x="424" y="-16"/>
      <point x="528" y="80"/>
      <point x="528" y="208" type="curve" smooth="yes"/>
      <point x="528" y="336"/>
      <point x="424" y="436"/>
      <point x="304" y="436" type="curve" smooth="yes"/>
      <point x="264" y="436"/>
      <point x="225" y="430"/>
      <point x="189" y="417" type="curve"/>
      <point x="220" y="616" type="line"/>
      <point x="436" y="616" type="line"/>
      <point x="472" y="544" type="line"/>
      <point x="496" y="544" type="line"/>
      <point x="464" y="704" type="line"/>
      <point x="176" y="704" type="line"/>
      <point x="128" y="384" type="line"/>
      <point x="160" y="320" type="line"/>
      <point x="192" y="344"/>
      <point x="224" y="352"/>
      <point x="288" y="352" type="curve" smooth="yes"/>
      <point x="352" y="352"/>
      <point x="416" y="288"/>
      <point x="416" y="208" type="curve" smooth="yes"/>
      <point x="416" y="120"/>
      <point x="344" y="64"/>
      <point x="288" y="64" type="curve" smooth="yes"/>
      <point x="224" y="64"/>
      <point x="144" y="96"/>
      <point x="128" y="208" type="curve"/>
      <point x="80" y="208" type="line"/>
      <point x="80" y="56"/>
      <point x="208" y="-16"/>
    </contour>
  </outline>
</glyph>
<glyph name="six" format="1">
  <advance width="608"/>
  <unicode hex="0036"/>
  <outline>
    <contour>
      <point x="304" y="-16" type="curve" smooth="yes"/>
      <point x="448" y="-16"/>
      <point x="544" y="80"/>
      <point x="544" y="208" type="curve" smooth="yes"/>
      <point x="544" y="336"/>
      <point x="448" y="432"/>
      <point x="304" y="432" type="curve" smooth="yes"/>
      <point x="259" y="432"/>
      <point x="221" y="414"/>
      <point x="191" y="392" type="curve"/>
      <point x="214" y="503"/>
      <point x="291" y="621"/>
      <point x="448" y="680" type="curve"/>
      <point x="448" y="704" type="line"/>
      <point x="288" y="704"/>
      <point x="64" y="512"/>
      <point x="64" y="240" type="curve" smooth="yes"/>
      <point x="64" y="80"/>
      <point x="160" y="-16"/>
    </contour>
    <contour>
      <point x="304" y="400" type="curve" smooth="yes"/>
      <point x="384" y="400"/>
      <point x="432" y="304"/>
      <point x="432" y="208" type="curve" smooth="yes"/>
      <point x="432" y="112"/>
      <point x="384" y="32"/>
      <point x="304" y="32" type="curve" smooth="yes"/>
      <point x="224" y="32"/>
      <point x="176" y="112"/>
      <point x="176" y="208" type="curve" smooth="yes"/>
      <point x="176" y="336"/>
      <point x="208" y="400"/>
    </contour>
  </outline>
</glyph>
<glyph name="seven" format="1">
  <advance width="608"/>
  <unicode hex="0037"/>
  <outline>
    <contour>
      <point x="288" y="0" type="line"/>
      <point x="288" y="160"/>
      <point x="304" y="392"/>
      <point x="496" y="656" type="curve"/>
      <point x="496" y="704" type="line"/>
      <point x="128" y="704" type="line"/>
      <point x="96" y="544" type="line"/>
      <point x="120" y="544" type="line"/>
      <point x="156" y="616" type="line"/>
      <point x="417" y="616" type="line"/>
      <point x="282" y="464"/>
      <point x="160" y="182"/>
      <point x="160" y="0" type="curve"/>
    </contour>
  </outline>
</glyph>
<glyph name="eight" format="1">
  <advance width="608"/>
  <unicode hex="0038"/>
  <outline>
    <contour>
      <point x="304" y="-16" type="curve" smooth="yes"/>
      <point x="448" y="-16"/>
      <point x="520" y="48"/>
      <point x="520" y="176" type="curve" smooth="yes"/>
      <point x="520" y="224"/>
      <point x="506" y="280"/>
      <point x="416" y="352" type="curve" smooth="yes"/>
      <point x="350" y="405" type="line"/>
      <point x="418" y="444"/>
      <point x="496" y="497"/>
      <point x="496" y="576" type="curve" smooth="yes"/>
      <point x="496" y="674"/>
      <point x="392" y="720"/>
      <point x="288" y="720" type="curve" smooth="yes"/>
      <point x="180" y="720"/>
      <point x="112" y="666"/>
      <point x="112" y="552" type="curve" smooth="yes"/>
      <point x="112" y="472"/>
      <point x="172" y="418"/>
      <point x="216" y="384" type="curve" smooth="yes"/>
      <point x="241" y="365" type="line"/>
      <point x="152" y="328"/>
      <point x="88" y="239"/>
      <point x="88" y="160" type="curve" smooth="yes"/>
      <point x="88" y="42"/>
      <point x="184" y="-16"/>
    </contour>
    <contour>
      <point x="256" y="480" type="line" smooth="yes"/>
      <point x="220" y="508"/>
      <point x="184" y="542"/>
      <point x="184" y="584" type="curve" smooth="yes"/>
      <point x="184" y="654"/>
      <point x="224" y="688"/>
      <point x="288" y="688" type="curve" smooth="yes"/>
      <point x="352" y="688"/>
      <point x="416" y="624"/>
      <point x="416" y="552" type="curve" smooth="yes"/>
      <point x="416" y="510"/>
      <point x="379" y="449"/>
      <point x="332" y="419" type="curve"/>
    </contour>
    <contour>
      <point x="320" y="32" type="curve" smooth="yes"/>
      <point x="240" y="32"/>
      <point x="176" y="76"/>
      <point x="176" y="160" type="curve" smooth="yes"/>
      <point x="174" y="224"/>
      <point x="196" y="311"/>
      <point x="262" y="349" type="curve"/>
      <point x="352" y="280" type="line" smooth="yes"/>
      <point x="386" y="254"/>
      <point x="432" y="192"/>
      <point x="432" y="152" type="curve" smooth="yes"/>
      <point x="432" y="66"/>
      <point x="400" y="32"/>
    </contour>
  </outline>
</glyph>
<glyph name="nine" format="1">
  <advance width="608"/>
  <unicode hex="0039"/>
  <outline>
    <contour>
      <point x="160" y="0" type="line"/>
      <point x="320" y="0"/>
      <point x="544" y="192"/>
      <point x="544" y="464" type="curve" smooth="yes"/>
      <point x="544" y="624"/>
      <point x="448" y="720"/>
      <point x="304" y="720" type="curve" smooth="yes"/>
      <point x="160" y="720"/>
      <point x="64" y="624"/>
      <point x="64" y="496" type="curve" smooth="yes"/>
      <point x="64" y="368"/>
      <point x="160" y="272"/>
      <point x="304" y="272" type="curve" smooth="yes"/>
      <point x="349" y="272"/>
      <point x="387" y="290"/>
      <point x="417" y="312" type="curve"/>
      <point x="394" y="201"/>
      <point x="317" y="83"/>
      <point x="160" y="24" type="curve"/>
    </contour>
    <contour>
      <point x="304" y="304" type="curve" smooth="yes"/>
      <point x="224" y="304"/>
      <point x="176" y="400"/>
      <point x="176" y="496" type="curve" smooth="yes"/>
      <point x="176" y="592"/>
      <point x="224" y="672"/>
      <point x="304" y="672" type="curve" smooth="yes"/>
      <point x="384" y="672"/>
      <point x="432" y="592"/>
      <point x="432" y="496" type="curve" smooth="yes"/>
      <point x="432" y="368"/>
      <point x="400" y="304"/>
    </contour>
  </outline>
</glyph>
<glyph name="colon" format="1">
  <advance width="608"/>
  <unicode hex="003A"/>
  <outline>
    <contour>
      <point x="304" y="448" type="curve" smooth="yes"/>
      <point x="268" y="448"/>
      <point x="240" y="420"/>
      <point x="240" y="384" type="curve" smooth="yes"/>
      <point x="240" y="348"/>
      <point x="268" y="320"/>
      <point x="304" y="320" type="curve" smooth="yes"/>
      <point x="340" y="320"/>
      <point x="368" y="348"/>
      <point x="368" y="384" type="curve" smooth="yes"/>
      <point x="368" y="420"/>
      <point x="340" y="448"/>
    </contour>
    <contour>
      <point x="304" y="112" type="curve" smooth="yes"/>
      <point x="268" y="112"/>
      <point x="240" y="84"/>
      <point x="240" y="48" type="curve" smooth="yes"/>
      <point x="240" y="12"/>
      <point x="268" y="-16"/>
      <point x="304" y="-16" type="curve" smooth="yes"/>
      <point x="340" y="-16"/>
      <point x="368" y="12"/>
      <point x="368" y="48" type="curve" smooth="yes"/>
      <point x="368" y="84"/>
      <point x="340" y="112"/>
    </contour>
  </outline>
</glyph>
<glyph name="less" format="1">
  <advance width="608"/>
  <unicode hex="003C"/>
  <outline>
    <contour>
      <point x="512" y="64" type="line"/>
      <point x="160" y="240" type="line"/>
      <point x="512" y="416" type="line"/>
      <point x="512" y="480" type="line"/>
      <point x="96" y="272" type="line"/>
      <point x="96" y="208" type="line"/>
      <point x="512" y="0" type="line"/>
    </contour>
  </outline>
</glyph>
<glyph name="equal" format="1">
  <advance width="608"/>
  <unicode hex="003D"/>
  <outline>
    <contour>
      <point x="544" y="320" type="line"/>
      <point x="544" y="384" type="line"/>
      <point x="64" y="384" type="line"/>
      <point x="64" y="320" type="line"/>
    </contour>
    <contour>
      <point x="544" y="128" type="line"/>
      <point x="544" y="192" type="line"/>
      <point x="64" y="192" type="line"/>
      <point x="64" y="128" type="line"/>
    </contour>
  </outline>
</glyph>
<glyph name="greater" format="1">
  <advance width="608"/>
  <unicode hex="003E"/>
  <outline>
    <contour>
      <point x="96" y="64" type="line"/>
      <point x="96" y="0" type="line"/>
      <point x="512" y="208" type="line"/>
      <point x="512" y="272" type="line"/>
      <point x="96" y="480" type="line"/>
      <point x="96" y="416" type="line"/>
      <point x="448" y="240" type="line"/>
    </contour>
  </outline>
</glyph>
<glyph name="question" format="1">
  <advance width="608"/>
  <unicode hex="003F"/>
  <outline>
    <contour>
      <point x="296" y="192" type="line"/>
      <point x="296" y="224" type="line" smooth="yes"/>
      <point x="296" y="358"/>
      <point x="488" y="384"/>
      <point x="488" y="544" type="curve" smooth="yes"/>
      <point x="488" y="656"/>
      <point x="408" y="720"/>
      <point x="288" y="720" type="curve" smooth="yes"/>
      <point x="156" y="720"/>
      <point x="104" y="608"/>
      <point x="104" y="544" type="curve" smooth="yes"/>
      <point x="104" y="508"/>
      <point x="132" y="480"/>
      <point x="168" y="480" type="curve" smooth="yes"/>
      <point x="204" y="480"/>
      <point x="232" y="508"/>
      <point x="232" y="544" type="curve" smooth="yes"/>
      <point x="232" y="566"/>
      <point x="222" y="584"/>
      <point x="206" y="596" type="curve"/>
      <point x="184" y="610"/>
      <point x="208" y="672"/>
      <point x="280" y="672" type="curve" smooth="yes"/>
      <point x="360" y="672"/>
      <point x="384" y="624"/>
      <point x="384" y="544" type="curve" smooth="yes"/>
      <point x="384" y="416"/>
      <point x="248" y="368"/>
      <point x="248" y="256" type="curve" smooth="yes"/>
      <point x="248" y="192" type="line"/>
    </contour>
    <contour>
      <point x="272" y="112" type="curve" smooth="yes"/>
      <point x="236" y="112"/>
      <point x="208" y="84"/>
      <point x="208" y="48" type="curve" smooth="yes"/>
      <point x="208" y="12"/>
      <point x="236" y="-16"/>
      <point x="272" y="-16" type="curve" smooth="yes"/>
      <point x="308" y="-16"/>
      <point x="336" y="12"/>
      <point x="336" y="48" type="curve" smooth="yes"/>
      <point x="336" y="84"/>
      <point x="308" y="112"/>
    </contour>
  </outline>
</glyph>
<glyph name="at" format="1">
  <advance width="608"/>
  <unicode hex="0040"/>
  <outline>
    <contour>
      <point x="320" y="-16" type="curve" smooth="yes"/>
      <point x="382" y="-16"/>
      <point x="464" y="0"/>
      <point x="548" y="72" type="curve"/>
      <point x="536" y="96" type="line"/>
      <point x="456" y="32"/>
      <point x="384" y="16"/>
      <point x="320" y="16" type="curve" smooth="yes"/>
      <point x="160" y="16"/>
      <point x="64" y="120"/>
      <point x="64" y="320" type="curve" smooth="yes"/>
      <point x="64" y="496"/>
      <point x="176" y="688"/>
      <point x="352" y="688" type="curve" smooth="yes"/>
      <point x="538" y="688"/>
      <point x="574" y="526"/>
      <point x="576" y="416" type="curve" smooth="yes"/>
      <point x="576" y="312"/>
      <point x="520" y="176"/>
      <point x="448" y="176" type="curve" smooth="yes"/>
      <point x="418" y="176"/>
      <point x="408" y="208"/>
      <point x="416" y="240" type="curve" smooth="yes"/>
      <point x="480" y="496" type="line"/>
      <point x="416" y="496" type="line"/>
      <point x="402" y="438" type="line"/>
      <point x="394" y="484"/>
      <point x="368" y="508"/>
      <point x="326" y="508" type="curve" smooth="yes"/>
      <point x="242" y="508"/>
      <point x="152" y="404"/>
      <point x="152" y="288" type="curve" smooth="yes"/>
      <point x="152" y="200"/>
      <point x="192" y="148"/>
      <point x="256" y="148" type="curve" smooth="yes"/>
      <point x="291" y="148"/>
      <point x="335" y="173"/>
      <point x="359" y="235" type="curve"/>
      <point x="360" y="164"/>
      <point x="401" y="144"/>
      <point x="432" y="144" type="curve" smooth="yes"/>
      <point x="544" y="144"/>
      <point x="608" y="304"/>
      <point x="608" y="416" type="curve" smooth="yes"/>
      <point x="608" y="556"/>
      <point x="548" y="720"/>
      <point x="352" y="720" type="curve" smooth="yes"/>
      <point x="112" y="720"/>
      <point x="0" y="484"/>
      <point x="0" y="320" type="curve" smooth="yes"/>
      <point x="0" y="112"/>
      <point x="128" y="-16"/>
    </contour>
    <contour>
      <point x="336" y="478" type="curve" smooth="yes"/>
      <point x="364" y="478"/>
      <point x="380" y="454"/>
      <point x="380" y="410" type="curve" smooth="yes"/>
      <point x="380" y="300"/>
      <point x="321" y="180"/>
      <point x="270" y="180" type="curve" smooth="yes"/>
      <point x="242" y="180"/>
      <point x="226" y="206"/>
      <point x="226" y="250" type="curve" smooth="yes"/>
      <point x="226" y="339"/>
      <point x="274" y="478"/>
    </contour>
  </outline>
</glyph>
<glyph name="A" format="1">
  <advance width="608"/>
  <unicode hex="0041"/>
  <outline>
    <contour>
      <point x="376" y="240" type="line"/>
      <point x="198" y="240" type="line"/>
      <point x="288" y="521" type="line"/>
    </contour>
    <contour>
      <point x="200" y="16" type="line"/>
      <point x="136" y="48" type="line"/>
      <point x="182" y="192" type="line"/>
      <point x="391" y="192" type="line"/>
      <point x="436" y="48" type="line"/>
      <point x="372" y="16" type="line"/>
      <point x="372" y="0" type="line"/>
      <point x="592" y="0" type="line"/>
      <point x="592" y="16" type="line"/>
      <point x="528" y="48" type="line"/>
      <point x="320" y="704" type="line"/>
      <point x="288" y="704" type="line"/>
      <point x="244" y="660" type="line"/>
      <point x="263" y="600" type="line"/>
      <point x="80" y="48" type="line"/>
      <point x="16" y="16" type="line"/>
      <point x="16" y="0" type="line"/>
      <point x="200" y="0" type="line"/>
    </contour>
  </outline>
</glyph>
<glyph name="B" format="1">
  <advance width="608"/>
  <unicode hex="0042"/>
  <outline>
    <contour>
      <point x="336" y="0" type="line" smooth="yes"/>
      <point x="448" y="0"/>
      <point x="544" y="64"/>
      <point x="544" y="192" type="curve" smooth="yes"/>
      <point x="544" y="297"/>
      <point x="480" y="353"/>
      <point x="395" y="370" type="curve"/>
      <point x="455" y="394"/>
      <point x="496" y="442"/>
      <point x="496" y="520" type="curve" smooth="yes"/>
      <point x="496" y="640"/>
      <point x="400" y="704"/>
      <point x="288" y="704" type="curve" smooth="yes"/>
      <point x="48" y="704" type="line"/>
      <point x="48" y="688" type="line"/>
      <point x="112" y="656" type="line"/>
      <point x="112" y="48" type="line"/>
      <point x="48" y="16" type="line"/>
      <point x="48" y="0" type="line"/>
    </contour>
    <contour>
      <point x="204" y="656" type="line"/>
      <point x="260" y="656" type="line" smooth="yes"/>
      <point x="332" y="656"/>
      <point x="396" y="608"/>
      <point x="396" y="520" type="curve" smooth="yes"/>
      <point x="396" y="432"/>
      <point x="332" y="384"/>
      <point x="260" y="384" type="curve" smooth="yes"/>
      <point x="204" y="384" type="line"/>
    </contour>
    <contour>
      <point x="204" y="48" type="line"/>
      <point x="204" y="336" type="line"/>
      <point x="308" y="336" type="line" smooth="yes"/>
      <point x="380" y="336"/>
      <point x="444" y="288"/>
      <point x="444" y="192" type="curve" smooth="yes"/>
      <point x="444" y="96"/>
      <point x="380" y="48"/>
      <point x="308" y="48" type="curve" smooth="yes"/>
    </contour>
  </outline>
</glyph>
<glyph name="C" format="1">
  <advance width="608"/>
  <unicode hex="0043"/>
  <outline>
    <contour>
      <point x="538" y="256" type="curve"/>
      <point x="506" y="256" type="line"/>
      <point x="474" y="112"/>
      <point x="400" y="48"/>
      <point x="336" y="48" type="curve" smooth="yes"/>
      <point x="240" y="48"/>
      <point x="164" y="144"/>
      <point x="164" y="352" type="curve" smooth="yes"/>
      <point x="164" y="552"/>
      <point x="240" y="668"/>
      <point x="336" y="668" type="curve" smooth="yes"/>
      <point x="416" y="668"/>
      <point x="476" y="578"/>
      <point x="492" y="496" type="curve"/>
      <point x="524" y="496" type="line"/>
      <point x="524" y="704" type="line"/>
      <point x="508" y="704" type="line"/>
      <point x="462" y="658" type="line"/>
      <point x="428" y="696"/>
      <point x="384" y="720"/>
      <point x="336" y="720" type="curve" smooth="yes"/>
      <point x="176" y="720"/>
      <point x="64" y="592"/>
      <point x="64" y="352" type="curve" smooth="yes"/>
      <point x="64" y="112"/>
      <point x="176" y="-16"/>
      <point x="304" y="-16" type="curve" smooth="yes"/>
      <point x="432" y="-16"/>
      <point x="514" y="84"/>
    </contour>
  </outline>
</glyph>
<glyph name="D" format="1">
  <advance width="608"/>
  <unicode hex="0044"/>
  <outline>
    <contour>
      <point x="256" y="704" type="curve" smooth="yes"/>
      <point x="48" y="704" type="line"/>
      <point x="48" y="688" type="line"/>
      <point x="112" y="656" type="line"/>
      <point x="112" y="48" type="line"/>
      <point x="48" y="16" type="line"/>
      <point x="48" y="0" type="line"/>
      <point x="256" y="0" type="line" smooth="yes"/>
      <point x="416" y="0"/>
      <point x="544" y="112"/>
      <point x="544" y="352" type="curve" smooth="yes"/>
      <point x="544" y="592"/>
      <point x="416" y="704"/>
    </contour>
    <contour>
      <point x="256" y="656" type="line" smooth="yes"/>
      <point x="352" y="656"/>
      <point x="444" y="576"/>
      <point x="444" y="352" type="curve" smooth="yes"/>
      <point x="444" y="128"/>
      <point x="352" y="48"/>
      <point x="256" y="48" type="curve" smooth="yes"/>
      <point x="204" y="48" type="line"/>
      <point x="204" y="656" type="line"/>
    </contour>
  </outline>
</glyph>
<glyph name="F" format="1">
  <advance width="608"/>
  <unicode hex="0046"/>
  <outline>
    <contour>
      <point x="284" y="16" type="line"/>
      <point x="220" y="48" type="line"/>
      <point x="220" y="352" type="line"/>
      <point x="328" y="352" type="line"/>
      <point x="368" y="272" type="line"/>
      <point x="384" y="272" type="line"/>
      <point x="384" y="480" type="line"/>
      <point x="368" y="480" type="line"/>
      <point x="328" y="400" type="line"/>
      <point x="220" y="400" type="line"/>
      <point x="220" y="656" type="line"/>
      <point x="412" y="656" type="line"/>
      <point x="484" y="512" type="line"/>
      <point x="512" y="526" type="line"/>
      <point x="476" y="704" type="line"/>
      <point x="64" y="704" type="line"/>
      <point x="64" y="688" type="line"/>
      <point x="128" y="656" type="line"/>
      <point x="128" y="48" type="line"/>
      <point x="64" y="16" type="line"/>
      <point x="64" y="0" type="line"/>
      <point x="284" y="0" type="line"/>
    </contour>
  </outline>
</glyph>
<glyph name="G" format="1">
  <advance width="608"/>
  <unicode hex="0047"/>
  <outline>
    <contour>
      <point x="492" y="0" type="line"/>
      <point x="524" y="0" type="line"/>
      <point x="524" y="304" type="line"/>
      <point x="588" y="336" type="line"/>
      <point x="588" y="352" type="line"/>
      <point x="368" y="352" type="line"/>
      <point x="368" y="336" type="line"/>
      <point x="432" y="304" type="line"/>
      <point x="432" y="160" type="line" smooth="yes"/>
      <point x="432" y="104"/>
      <point x="400" y="48"/>
      <point x="336" y="48" type="curve" smooth="yes"/>
      <point x="240" y="48"/>
      <point x="164" y="144"/>
      <point x="164" y="352" type="curve" smooth="yes"/>
      <point x="164" y="552"/>
      <point x="240" y="668"/>
      <point x="336" y="668" type="curve" smooth="yes"/>
      <point x="416" y="668"/>
      <point x="476" y="578"/>
      <point x="492" y="496" type="curve"/>
      <point x="524" y="496" type="line"/>
      <point x="524" y="704" type="line"/>
      <point x="508" y="704" type="line"/>
      <point x="462" y="658" type="line"/>
      <point x="428" y="696"/>
      <point x="384" y="720"/>
      <point x="336" y="720" type="curve" smooth="yes"/>
      <point x="176" y="720"/>
      <point x="64" y="592"/>
      <point x="64" y="352" type="curve" smooth="yes"/>
      <point x="64" y="112"/>
      <point x="176" y="-16"/>
      <point x="304" y="-16" type="curve" smooth="yes"/>
      <point x="369" y="-16"/>
      <point x="412" y="11"/>
      <point x="440" y="52" type="curve"/>
    </contour>
  </outline>
</glyph>
<glyph name="H" format="1">
  <advance width="608"/>
  <unicode hex="0048"/>
  <outline>
    <contour>
      <point x="268" y="16" type="line"/>
      <point x="204" y="48" type="line"/>
      <point x="204" y="352" type="line"/>
      <point x="404" y="352" type="line"/>
      <point x="404" y="48" type="line"/>
      <point x="340" y="16" type="line"/>
      <point x="340" y="0" type="line"/>
      <point x="560" y="0" type="line"/>
      <point x="560" y="16" type="line"/>
      <point x="496" y="48" type="line"/>
      <point x="496" y="656" type="line"/>
      <point x="560" y="688" type="line"/>
      <point x="560" y="704" type="line"/>
      <point x="340" y="704" type="line"/>
      <point x="340" y="688" type="line"/>
      <point x="404" y="656" type="line"/>
      <point x="404" y="400" type="line"/>
      <point x="204" y="400" type="line"/>
      <point x="204" y="656" type="line"/>
      <point x="268" y="688" type="line"/>
      <point x="268" y="704" type="line"/>
      <point x="48" y="704" type="line"/>
      <point x="48" y="688" type="line"/>
      <point x="112" y="656" type="line"/>
      <point x="112" y="48" type="line"/>
      <point x="48" y="16" type="line"/>
      <point x="48" y="0" type="line"/>
      <point x="268" y="0" type="line"/>
    </contour>
  </outline>
</glyph>
<glyph name="I" format="1">
  <advance width="608"/>
  <unicode hex="0049"/>
  <outline>
    <contour>
      <point x="96" y="0" type="line"/>
      <point x="512" y="0" type="line"/>
      <point x="512" y="16" type="line"/>
      <point x="350" y="64" type="line"/>
      <point x="350" y="640" type="line"/>
      <point x="512" y="688" type="line"/>
      <point x="512" y="704" type="line"/>
      <point x="96" y="704" type="line"/>
      <point x="96" y="688" type="line"/>
      <point x="258" y="640" type="line"/>
      <point x="258" y="64" type="line"/>
      <point x="96" y="16" type="line"/>
    </contour>
  </outline>
</glyph>
<glyph name="J" format="1">
  <advance width="608"/>
  <unicode hex="004A"/>
  <outline>
    <contour>
      <point x="254" y="-16" type="curve" smooth="yes"/>
      <point x="350" y="-16"/>
      <point x="448" y="48"/>
      <point x="448" y="176" type="curve" smooth="yes"/>
      <point x="448" y="656" type="line"/>
      <point x="512" y="688" type="line"/>
      <point x="512" y="704" type="line"/>
      <point x="292" y="704" type="line"/>
      <point x="292" y="688" type="line"/>
      <point x="356" y="656" type="line"/>
      <point x="356" y="152" type="line" smooth="yes"/>
      <point x="356" y="72"/>
      <point x="286" y="36"/>
      <point x="238" y="36" type="curve" smooth="yes"/>
      <point x="197" y="36"/>
      <point x="140" y="62"/>
      <point x="124" y="120" type="curve"/>
      <point x="152" y="120"/>
      <point x="176" y="144"/>
      <point x="176" y="176" type="curve" smooth="yes"/>
      <point x="176" y="208"/>
      <point x="152" y="232"/>
      <point x="120" y="232" type="curve" smooth="yes"/>
      <point x="88" y="232"/>
      <point x="64" y="208"/>
      <point x="64" y="176" type="curve" smooth="yes"/>
      <point x="64" y="48"/>
      <point x="158" y="-16"/>
    </contour>
  </outline>
</glyph>
<glyph name="K" format="1">
  <advance width="608"/>
  <unicode hex="004B"/>
  <outline>
    <contour>
      <point x="268" y="16" type="line"/>
      <point x="204" y="48" type="line"/>
      <point x="204" y="377" type="line"/>
      <point x="424" y="0" type="line"/>
      <point x="560" y="0" type="line"/>
      <point x="560" y="16" type="line"/>
      <point x="496" y="48" type="line"/>
      <point x="276" y="421" type="line"/>
      <point x="512" y="688" type="line"/>
      <point x="512" y="704" type="line"/>
      <point x="368" y="704" type="line"/>
      <point x="368" y="688" type="line"/>
      <point x="432" y="656" type="line"/>
      <point x="204" y="398" type="line"/>
      <point x="204" y="656" type="line"/>
      <point x="268" y="688" type="line"/>
      <point x="268" y="704" type="line"/>
      <point x="48" y="704" type="line"/>
      <point x="48" y="688" type="line"/>
      <point x="112" y="656" type="line"/>
      <point x="112" y="48" type="line"/>
      <point x="48" y="16" type="line"/>
      <point x="48" y="0" type="line"/>
      <point x="268" y="0" type="line"/>
    </contour>
  </outline>
</glyph>
<glyph name="L" format="1">
  <advance width="608"/>
  <unicode hex="004C"/>
  <outline>
    <contour>
      <point x="544" y="210" type="line"/>
      <point x="516" y="224" type="line"/>
      <point x="428" y="48" type="line"/>
      <point x="220" y="48" type="line"/>
      <point x="220" y="656" type="line"/>
      <point x="284" y="688" type="line"/>
      <point x="284" y="704" type="line"/>
      <point x="64" y="704" type="line"/>
      <point x="64" y="688" type="line"/>
      <point x="128" y="656" type="line"/>
      <point x="128" y="48" type="line"/>
      <point x="64" y="16" type="line"/>
      <point x="64" y="0" type="line"/>
      <point x="500" y="0" type="line"/>
    </contour>
  </outline>
</glyph>
<glyph name="M" format="1">
  <advance width="608"/>
  <unicode hex="004D"/>
  <outline>
    <contour>
      <point x="216" y="16" type="line"/>
      <point x="152" y="48" type="line"/>
      <point x="152" y="520" type="line"/>
      <point x="268" y="288" type="line"/>
      <point x="304" y="288" type="line"/>
      <point x="420" y="520" type="line"/>
      <point x="420" y="48" type="line"/>
      <point x="356" y="16" type="line"/>
      <point x="356" y="0" type="line"/>
      <point x="576" y="0" type="line"/>
      <point x="576" y="16" type="line"/>
      <point x="512" y="48" type="line"/>
      <point x="512" y="656" type="line"/>
      <point x="576" y="688" type="line"/>
      <point x="576" y="704" type="line"/>
      <point x="456" y="704" type="line"/>
      <point x="306" y="404" type="line"/>
      <point x="156" y="704" type="line"/>
      <point x="64" y="704" type="line"/>
      <point x="64" y="688" type="line"/>
      <point x="96" y="624" type="line"/>
      <point x="96" y="48" type="line"/>
      <point x="32" y="16" type="line"/>
      <point x="32" y="0" type="line"/>
      <point x="216" y="0" type="line"/>
    </contour>
  </outline>
</glyph>
<glyph name="N" format="1">
  <advance width="608"/>
  <unicode hex="004E"/>
  <outline>
    <contour>
      <point x="232" y="16" type="line"/>
      <point x="168" y="48" type="line"/>
      <point x="168" y="490" type="line"/>
      <point x="464" y="0" type="line"/>
      <point x="496" y="0" type="line"/>
      <point x="496" y="656" type="line"/>
      <point x="560" y="688" type="line"/>
      <point x="560" y="704" type="line"/>
      <point x="376" y="704" type="line"/>
      <point x="376" y="688" type="line"/>
      <point x="440" y="656" type="line"/>
      <point x="440" y="201" type="line"/>
      <point x="138" y="704" type="line"/>
      <point x="48" y="704" type="line"/>
      <point x="48" y="688" type="line"/>
      <point x="112" y="582" type="line"/>
      <point x="112" y="48" type="line"/>
      <point x="48" y="16" type="line"/>
      <point x="48" y="0" type="line"/>
      <point x="232" y="0" type="line"/>
    </contour>
  </outline>
</glyph>
<glyph name="O" format="1">
  <advance width="608"/>
  <unicode hex="004F"/>
  <outline>
    <contour>
      <point x="64" y="352" type="curve" smooth="yes"/>
      <point x="64" y="112"/>
      <point x="160" y="-16"/>
      <point x="304" y="-16" type="curve" smooth="yes"/>
      <point x="448" y="-16"/>
      <point x="544" y="112"/>
      <point x="544" y="352" type="curve" smooth="yes"/>
      <point x="544" y="592"/>
      <point x="448" y="720"/>
      <point x="304" y="720" type="curve" smooth="yes"/>
      <point x="160" y="720"/>
      <point x="64" y="592"/>
    </contour>
    <contour>
      <point x="304" y="668" type="curve" smooth="yes"/>
      <point x="384" y="668"/>
      <point x="444" y="576"/>
      <point x="444" y="352" type="curve" smooth="yes"/>
      <point x="444" y="128"/>
      <point x="384" y="36"/>
      <point x="304" y="36" type="curve" smooth="yes"/>
      <point x="224" y="36"/>
      <point x="164" y="128"/>
      <point x="164" y="352" type="curve" smooth="yes"/>
      <point x="164" y="576"/>
      <point x="224" y="668"/>
    </contour>
  </outline>
</glyph>
<glyph name="P" format="1">
  <advance width="608"/>
  <unicode hex="0050"/>
  <outline>
    <contour>
      <point x="220" y="656" type="line"/>
      <point x="308" y="656" type="line" smooth="yes"/>
      <point x="380" y="656"/>
      <point x="444" y="608"/>
      <point x="444" y="520" type="curve" smooth="yes"/>
      <point x="444" y="432"/>
      <point x="380" y="384"/>
      <point x="308" y="384" type="curve" smooth="yes"/>
      <point x="220" y="384" type="line"/>
    </contour>
    <contour>
      <point x="284" y="16" type="line"/>
      <point x="220" y="48" type="line"/>
      <point x="220" y="336" type="line"/>
      <point x="336" y="336" type="line" smooth="yes"/>
      <point x="448" y="336"/>
      <point x="544" y="400"/>
      <point x="544" y="520" type="curve" smooth="yes"/>
      <point x="544" y="640"/>
      <point x="448" y="704"/>
      <point x="336" y="704" type="curve" smooth="yes"/>
      <point x="64" y="704" type="line"/>
      <point x="64" y="688" type="line"/>
      <point x="128" y="656" type="line"/>
      <point x="128" y="48" type="line"/>
      <point x="64" y="16" type="line"/>
      <point x="64" y="0" type="line"/>
      <point x="284" y="0" type="line"/>
    </contour>
  </outline>
</glyph>
<glyph name="Q" format="1">
  <advance width="608"/>
  <unicode hex="0051"/>
  <outline>
    <contour>
      <point x="488" y="-16" type="curve" smooth="yes"/>
      <point x="542" y="-16"/>
      <point x="576" y="24"/>
      <point x="608" y="56" type="curve"/>
      <point x="592" y="72" type="line"/>
      <point x="560" y="48"/>
      <point x="544" y="40"/>
      <point x="528" y="40" type="curve" smooth="yes"/>
      <point x="507" y="40"/>
      <point x="488" y="51"/>
      <point x="470" y="67" type="curve"/>
      <point x="517" y="129"/>
      <point x="544" y="225"/>
      <point x="544" y="352" type="curve" smooth="yes"/>
      <point x="544" y="592"/>
      <point x="448" y="720"/>
      <point x="304" y="720" type="curve" smooth="yes"/>
      <point x="160" y="720"/>
      <point x="64" y="592"/>
      <point x="64" y="352" type="curve" smooth="yes"/>
      <point x="64" y="112"/>
      <point x="160" y="-16"/>
      <point x="304" y="-16" type="curve" smooth="yes"/>
      <point x="344" y="-16"/>
      <point x="381" y="-6"/>
      <point x="412" y="14" type="curve"/>
      <point x="436" y="-6"/>
      <point x="460" y="-16"/>
    </contour>
    <contour>
      <point x="384" y="152" type="line" smooth="yes"/>
      <point x="352" y="184"/>
      <point x="308" y="200"/>
      <point x="272" y="200" type="curve" smooth="yes"/>
      <point x="234" y="200"/>
      <point x="206" y="182"/>
      <point x="185" y="162" type="curve"/>
      <point x="172" y="210"/>
      <point x="164" y="273"/>
      <point x="164" y="352" type="curve" smooth="yes"/>
      <point x="164" y="576"/>
      <point x="224" y="668"/>
      <point x="304" y="668" type="curve" smooth="yes"/>
      <point x="384" y="668"/>
      <point x="444" y="576"/>
      <point x="444" y="352" type="curve" smooth="yes"/>
      <point x="444" y="251"/>
      <point x="432" y="176"/>
      <point x="411" y="125" type="curve"/>
    </contour>
    <contour>
      <point x="304" y="36" type="curve" smooth="yes"/>
      <point x="259" y="36"/>
      <point x="220" y="65"/>
      <point x="195" y="131" type="curve"/>
      <point x="209" y="138"/>
      <point x="227" y="144"/>
      <point x="248" y="144" type="curve" smooth="yes"/>
      <point x="272" y="144"/>
      <point x="298" y="126"/>
      <point x="320" y="104" type="curve" smooth="yes"/>
      <point x="366" y="58" type="line"/>
      <point x="347" y="43"/>
      <point x="326" y="36"/>
    </contour>
  </outline>
</glyph>
<glyph name="R" format="1">
  <advance width="608"/>
  <unicode hex="0052"/>
  <outline>
    <contour>
      <point x="204" y="656" type="line"/>
      <point x="260" y="656" type="line" smooth="yes"/>
      <point x="332" y="656"/>
      <point x="396" y="608"/>
      <point x="396" y="520" type="curve" smooth="yes"/>
      <point x="396" y="432"/>
      <point x="332" y="384"/>
      <point x="260" y="384" type="curve" smooth="yes"/>
      <point x="204" y="384" type="line"/>
    </contour>
    <contour>
      <point x="268" y="16" type="line"/>
      <point x="204" y="48" type="line"/>
      <point x="204" y="336" type="line"/>
      <point x="252" y="336" type="line"/>
      <point x="420" y="0" type="line"/>
      <point x="560" y="0" type="line"/>
      <point x="560" y="16" type="line"/>
      <point x="496" y="48" type="line"/>
      <point x="342" y="341" type="line"/>
      <point x="429" y="359"/>
      <point x="496" y="420"/>
      <point x="496" y="520" type="curve" smooth="yes"/>
      <point x="496" y="640"/>
      <point x="400" y="704"/>
      <point x="288" y="704" type="curve" smooth="yes"/>
      <point x="48" y="704" type="line"/>
      <point x="48" y="688" type="line"/>
      <point x="112" y="656" type="line"/>
      <point x="112" y="48" type="line"/>
      <point x="48" y="16" type="line"/>
      <point x="48" y="0" type="line"/>
      <point x="268" y="0" type="line"/>
    </contour>
  </outline>
</glyph>
<glyph name="S" format="1">
  <advance width="608"/>
  <unicode hex="0053"/>
  <outline>
    <contour>
      <point x="344" y="-8" type="curve" smooth="yes"/>
      <point x="472" y="-8"/>
      <point x="544" y="72"/>
      <point x="544" y="184" type="curve" smooth="yes"/>
      <point x="544" y="296"/>
      <point x="448" y="344"/>
      <point x="336" y="408" type="curve" smooth="yes"/>
      <point x="224" y="472"/>
      <point x="176" y="500"/>
      <point x="176" y="568" type="curve" smooth="yes"/>
      <point x="176" y="616"/>
      <point x="224" y="668"/>
      <point x="304" y="668" type="curve" smooth="yes"/>
      <point x="400" y="668"/>
      <point x="448" y="578"/>
      <point x="464" y="496" type="curve"/>
      <point x="496" y="496" type="line"/>
      <point x="496" y="704" type="line"/>
      <point x="480" y="704" type="line"/>
      <point x="432" y="656" type="line"/>
      <point x="397" y="690"/>
      <point x="351" y="712"/>
      <point x="296" y="712" type="curve" smooth="yes"/>
      <point x="160" y="712"/>
      <point x="96" y="630"/>
      <point x="96" y="528" type="curve" smooth="yes"/>
      <point x="96" y="432"/>
      <point x="190" y="382"/>
      <point x="320" y="308" type="curve" smooth="yes"/>
      <point x="432" y="244"/>
      <point x="448" y="200"/>
      <point x="448" y="152" type="curve" smooth="yes"/>
      <point x="448" y="88"/>
      <point x="416" y="44"/>
      <point x="328" y="44" type="curve" smooth="yes"/>
      <point x="216" y="44"/>
      <point x="136" y="160"/>
      <point x="128" y="256" type="curve"/>
      <point x="96" y="256" type="line"/>
      <point x="96" y="0" type="line"/>
      <point x="112" y="0" type="line"/>
      <point x="177" y="65" type="line"/>
      <point x="220" y="21"/>
      <point x="278" y="-8"/>
    </contour>
  </outline>
</glyph>
<glyph name="T" format="1">
  <advance width="608"/>
  <unicode hex="0054"/>
  <outline>
    <contour>
      <point x="414" y="16" type="line"/>
      <point x="350" y="48" type="line"/>
      <point x="350" y="656" type="line"/>
      <point x="472" y="656" type="line"/>
      <point x="544" y="528" type="line"/>
      <point x="576" y="544" type="line"/>
      <point x="528" y="704" type="line"/>
      <point x="80" y="704" type="line"/>
      <point x="32" y="544" type="line"/>
      <point x="64" y="528" type="line"/>
      <point x="136" y="656" type="line"/>
      <point x="258" y="656" type="line"/>
      <point x="258" y="48" type="line"/>
      <point x="194" y="16" type="line"/>
      <point x="194" y="0" type="line"/>
      <point x="414" y="0" type="line"/>
    </contour>
  </outline>
</glyph>
<glyph name="U" format="1">
  <advance width="608"/>
  <unicode hex="0055"/>
  <outline>
    <contour>
      <point x="440" y="152" type="line" smooth="yes"/>
      <point x="440" y="72"/>
      <point x="370" y="36"/>
      <point x="322" y="36" type="curve" smooth="yes"/>
      <point x="274" y="36"/>
      <point x="204" y="72"/>
      <point x="204" y="152" type="curve" smooth="yes"/>
      <point x="204" y="656" type="line"/>
      <point x="268" y="688" type="line"/>
      <point x="268" y="704" type="line"/>
      <point x="48" y="704" type="line"/>
      <point x="48" y="688" type="line"/>
      <point x="112" y="656" type="line"/>
      <point x="112" y="176" type="line" smooth="yes"/>
      <point x="112" y="48"/>
      <point x="210" y="-16"/>
      <point x="306" y="-16" type="curve" smooth="yes"/>
      <point x="402" y="-16"/>
      <point x="496" y="48"/>
      <point x="496" y="176" type="curve" smooth="yes"/>
      <point x="496" y="656" type="line"/>
      <point x="560" y="688" type="line"/>
      <point x="560" y="704" type="line"/>
      <point x="376" y="704" type="line"/>
      <point x="376" y="688" type="line"/>
      <point x="440" y="656" type="line"/>
    </contour>
  </outline>
</glyph>
<glyph name="V" format="1">
  <advance width="608"/>
  <unicode hex="0056"/>
  <outline>
    <contour>
      <point x="288" y="0" type="line"/>
      <point x="320" y="0" type="line"/>
      <point x="528" y="656" type="line"/>
      <point x="592" y="688" type="line"/>
      <point x="592" y="704" type="line"/>
      <point x="408" y="704" type="line"/>
      <point x="408" y="688" type="line"/>
      <point x="472" y="656" type="line"/>
      <point x="326" y="178" type="line"/>
      <point x="180" y="656" type="line"/>
      <point x="244" y="688" type="line"/>
      <point x="244" y="704" type="line"/>
      <point x="16" y="704" type="line"/>
      <point x="16" y="688" type="line"/>
      <point x="80" y="656" type="line"/>
    </contour>
  </outline>
</glyph>
<glyph name="W" format="1">
  <advance width="608"/>
  <unicode hex="0057"/>
  <outline>
    <contour>
      <point x="192" y="0" type="line"/>
      <point x="224" y="0" type="line"/>
      <point x="297" y="305" type="line"/>
      <point x="384" y="0" type="line"/>
      <point x="416" y="0" type="line"/>
      <point x="528" y="656" type="line"/>
      <point x="592" y="688" type="line"/>
      <point x="592" y="704" type="line"/>
      <point x="408" y="704" type="line"/>
      <point x="408" y="688" type="line"/>
      <point x="472" y="656" type="line"/>
      <point x="407" y="248" type="line"/>
      <point x="336" y="496" type="line"/>
      <point x="304" y="496" type="line"/>
      <point x="245" y="248" type="line"/>
      <point x="180" y="656" type="line"/>
      <point x="244" y="688" type="line"/>
      <point x="244" y="704" type="line"/>
      <point x="16" y="704" type="line"/>
      <point x="16" y="688" type="line"/>
      <point x="80" y="656" type="line"/>
    </contour>
  </outline>
</glyph>
<glyph name="X" format="1">
  <advance width="608"/>
  <unicode hex="0058"/>
  <outline>
    <contour>
      <point x="232" y="16" type="line"/>
      <point x="168" y="48" type="line"/>
      <point x="284" y="290" type="line"/>
      <point x="398" y="48" type="line"/>
      <point x="334" y="16" type="line"/>
      <point x="334" y="0" type="line"/>
      <point x="560" y="0" type="line"/>
      <point x="560" y="16" type="line"/>
      <point x="496" y="48" type="line"/>
      <point x="339" y="382" type="line"/>
      <point x="480" y="656" type="line"/>
      <point x="544" y="688" type="line"/>
      <point x="544" y="704" type="line"/>
      <point x="360" y="704" type="line"/>
      <point x="360" y="688" type="line"/>
      <point x="424" y="656" type="line"/>
      <point x="312" y="439" type="line"/>
      <point x="210" y="656" type="line"/>
      <point x="274" y="688" type="line"/>
      <point x="274" y="704" type="line"/>
      <point x="48" y="704" type="line"/>
      <point x="48" y="688" type="line"/>
      <point x="112" y="656" type="line"/>
      <point x="257" y="349" type="line"/>
      <point x="112" y="48" type="line"/>
      <point x="48" y="16" type="line"/>
      <point x="48" y="0" type="line"/>
      <point x="232" y="0" type="line"/>
    </contour>
  </outline>
</glyph>
<glyph name="Y" format="1">
  <advance width="608"/>
  <unicode hex="0059"/>
  <outline>
    <contour>
      <point x="258" y="320" type="line"/>
      <point x="258" y="48" type="line"/>
      <point x="194" y="16" type="line"/>
      <point x="194" y="0" type="line"/>
      <point x="414" y="0" type="line"/>
      <point x="414" y="16" type="line"/>
      <point x="350" y="48" type="line"/>
      <point x="350" y="320" type="line"/>
      <point x="496" y="656" type="line"/>
      <point x="560" y="688" type="line"/>
      <point x="560" y="704" type="line"/>
      <point x="372" y="704" type="line"/>
      <point x="372" y="688" type="line"/>
      <point x="436" y="656" type="line"/>
      <point x="323" y="396" type="line"/>
      <point x="208" y="656" type="line"/>
      <point x="272" y="688" type="line"/>
      <point x="272" y="704" type="line"/>
      <point x="48" y="704" type="line"/>
      <point x="48" y="688" type="line"/>
      <point x="112" y="656" type="line"/>
    </contour>
  </outline>
</glyph>
<glyph name="Z" format="1">
  <advance width="608"/>
  <unicode hex="005A"/>
  <outline>
    <contour>
      <point x="484" y="0" type="line"/>
      <point x="528" y="210" type="line"/>
      <point x="500" y="224" type="line"/>
      <point x="412" y="48" type="line"/>
      <point x="186" y="48" type="line"/>
      <point x="506" y="688" type="line"/>
      <point x="506" y="704" type="line"/>
      <point x="100" y="704" type="line"/>
      <point x="64" y="526" type="line"/>
      <point x="92" y="512" type="line"/>
      <point x="164" y="656" type="line"/>
      <point x="392" y="656" type="line"/>
      <point x="72" y="16" type="line"/>
      <point x="72" y="0" type="line"/>
    </contour>
  </outline>
</glyph>
<glyph name="bracketleft" format="1">
  <advance width="608"/>
  <unicode hex="005B"/>
  <outline>
    <contour>
      <point x="288" y="672" type="line"/>
      <point x="448" y="672" type="line"/>
      <point x="448" y="720" type="line"/>
      <point x="224" y="720" type="line"/>
      <point x="224" y="-112" type="line"/>
      <point x="448" y="-112" type="line"/>
      <point x="448" y="-64" type="line"/>
      <point x="288" y="-64" type="line"/>
    </contour>
  </outline>
</glyph>
<glyph name="backslash" format="1">
  <advance width="608"/>
  <unicode hex="005C"/>
  <outline>
    <contour>
      <point x="211" y="693" type="line"/>
      <point x="140" y="693" type="line"/>
      <point x="391" y="-93" type="line"/>
      <point x="462" y="-93" type="line"/>
    </contour>
  </outline>
</glyph>
<glyph name="bracketright" format="1">
  <advance width="608"/>
  <unicode hex="005D"/>
  <outline>
    <contour>
      <point x="320" y="672" type="line"/>
      <point x="320" y="-64" type="line"/>
      <point x="160" y="-64" type="line"/>
      <point x="160" y="-112" type="line"/>
      <point x="384" y="-112" type="line"/>
      <point x="384" y="720" type="line"/>
      <point x="160" y="720" type="line"/>
      <point x="160" y="672" type="line"/>
    </contour>
  </outline>
</glyph>
<glyph name="asciicircum" format="1">
  <advance width="608"/>
  <unicode hex="005E"/>
  <outline>
    <contour>
      <point x="160" y="448" type="line"/>
      <point x="304" y="592" type="line"/>
      <point x="448" y="448" type="line"/>
      <point x="480" y="480" type="line"/>
      <point x="336" y="672" type="line"/>
      <point x="272" y="672" type="line"/>
      <point x="128" y="480" type="line"/>
    </contour>
  </outline>
</glyph>
<glyph name="underscore" format="1">
  <advance width="608"/>
  <unicode hex="005F"/>
  <outline>
    <contour>
      <point x="608" y="-192" type="line"/>
      <point x="0" y="-192" type="line"/>
      <point x="0" y="-256" type="line"/>
      <point x="608" y="-256" type="line"/>
    </contour>
  </outline>
</glyph>
<glyph name="grave" format="1">
  <advance width="608"/>
  <unicode hex="0060"/>
  <outline>
    <contour>
      <point x="376" y="528" type="line"/>
      <point x="400" y="560" type="line"/>
      <point x="256" y="704" type="line" smooth="yes"/>
      <point x="246" y="714"/>
      <point x="232" y="720"/>
      <point x="216" y="720" type="curve" smooth="yes"/>
      <point x="184" y="720"/>
      <point x="160" y="696"/>
      <point x="160" y="664" type="curve" smooth="yes"/>
      <point x="160" y="642"/>
      <point x="172" y="623"/>
      <point x="190" y="614" type="curve"/>
      <point x="191" y="613"/>
      <point x="192" y="613"/>
      <point x="193" y="612" type="curve"/>
    </contour>
  </outline>
</glyph>
<glyph name="c" format="1">
  <advance width="608"/>
  <unicode hex="0063"/>
  <outline>
    <contour>
      <point x="488" y="112" type="curve"/>
      <point x="456" y="128" type="line"/>
      <point x="440" y="96"/>
      <point x="416" y="48"/>
      <point x="344" y="48" type="curve" smooth="yes"/>
      <point x="280" y="48"/>
      <point x="216" y="96"/>
      <point x="216" y="240" type="curve" smooth="yes"/>
      <point x="216" y="384"/>
      <point x="256" y="448"/>
      <point x="320" y="448" type="curve" smooth="yes"/>
      <point x="391" y="448"/>
      <point x="423" y="402"/>
      <point x="399" y="357" type="curve"/>
      <point x="399" y="356"/>
      <point x="399" y="355"/>
      <point x="398" y="354" type="curve"/>
      <point x="394" y="346"/>
      <point x="392" y="338"/>
      <point x="392" y="328" type="curve" smooth="yes"/>
      <point x="392" y="296"/>
      <point x="416" y="272"/>
      <point x="448" y="272" type="curve" smooth="yes"/>
      <point x="480" y="272"/>
      <point x="504" y="296"/>
      <point x="504" y="328" type="curve" smooth="yes"/>
      <point x="504" y="416"/>
      <point x="424" y="496"/>
      <point x="320" y="496" type="curve" smooth="yes"/>
      <point x="184" y="496"/>
      <point x="112" y="376"/>
      <point x="112" y="240" type="curve" smooth="yes"/>
      <point x="112" y="104"/>
      <point x="184" y="-16"/>
      <point x="320" y="-16" type="curve" smooth="yes"/>
      <point x="448" y="-16"/>
      <point x="472" y="80"/>
    </contour>
  </outline>
</glyph>
<glyph name="d" format="1">
  <advance width="608"/>
  <unicode hex="0064"/>
  <outline>
    <contour>
      <point x="280" y="32" type="curve" smooth="yes"/>
      <point x="216" y="32"/>
      <point x="168" y="96"/>
      <point x="168" y="240" type="curve" smooth="yes"/>
      <point x="168" y="384"/>
      <point x="216" y="448"/>
      <point x="280" y="448" type="curve" smooth="yes"/>
      <point x="328" y="448"/>
      <point x="352" y="436"/>
      <point x="388" y="400" type="curve"/>
      <point x="388" y="80" type="line"/>
      <point x="352" y="44"/>
      <point x="328" y="32"/>
    </contour>
    <contour>
      <point x="388" y="32" type="curve"/>
      <point x="388" y="0" type="line"/>
      <point x="544" y="0" type="line"/>
      <point x="544" y="24" type="line"/>
      <point x="480" y="56" type="line"/>
      <point x="480" y="704" type="line"/>
      <point x="324" y="704" type="line"/>
      <point x="324" y="680" type="line"/>
      <point x="388" y="648" type="line"/>
      <point x="388" y="480" type="line"/>
      <point x="364" y="488"/>
      <point x="312" y="496"/>
      <point x="280" y="496" type="curve" smooth="yes"/>
      <point x="144" y="496"/>
      <point x="64" y="376"/>
      <point x="64" y="240" type="curve" smooth="yes"/>
      <point x="64" y="104"/>
      <point x="144" y="-16"/>
      <point x="280" y="-16" type="curve" smooth="yes"/>
      <point x="320" y="-16"/>
      <point x="352" y="-4"/>
    </contour>
  </outline>
</glyph>
<glyph name="f" format="1">
  <advance width="608"/>
  <unicode hex="0066"/>
  <outline>
    <contour>
      <point x="446" y="24" type="line"/>
      <point x="318" y="56" type="line"/>
      <point x="318" y="432" type="line"/>
      <point x="472" y="432" type="line"/>
      <point x="472" y="480" type="line"/>
      <point x="318" y="480" type="line"/>
      <point x="318" y="576" type="line" smooth="yes"/>
      <point x="318" y="640"/>
      <point x="352" y="672"/>
      <point x="384" y="672" type="curve" smooth="yes"/>
      <point x="400" y="672"/>
      <point x="416" y="672"/>
      <point x="416" y="632" type="curve" smooth="yes"/>
      <point x="416" y="600"/>
      <point x="440" y="576"/>
      <point x="472" y="576" type="curve" smooth="yes"/>
      <point x="504" y="576"/>
      <point x="528" y="600"/>
      <point x="528" y="632" type="curve" smooth="yes"/>
      <point x="528" y="704"/>
      <point x="440" y="718"/>
      <point x="400" y="720" type="curve" smooth="yes"/>
      <point x="284" y="720"/>
      <point x="226" y="642"/>
      <point x="226" y="544" type="curve" smooth="yes"/>
      <point x="226" y="480" type="line"/>
      <point x="146" y="480" type="line"/>
      <point x="146" y="424" type="line"/>
      <point x="226" y="424" type="line"/>
      <point x="226" y="56" type="line"/>
      <point x="98" y="24" type="line"/>
      <point x="98" y="0" type="line"/>
      <point x="446" y="0" type="line"/>
    </contour>
  </outline>
</glyph>
<glyph name="g" format="1">
  <advance width="608"/>
  <unicode hex="0067"/>
  <outline>
    <contour>
      <point x="280" y="432" type="curve" smooth="yes"/>
      <point x="344" y="432"/>
      <point x="368" y="392"/>
      <point x="368" y="320" type="curve" smooth="yes"/>
      <point x="368" y="248"/>
      <point x="344" y="208"/>
      <point x="280" y="208" type="curve" smooth="yes"/>
      <point x="216" y="208"/>
      <point x="192" y="248"/>
      <point x="192" y="320" type="curve" smooth="yes"/>
      <point x="192" y="392"/>
      <point x="216" y="432"/>
    </contour>
    <contour>
      <point x="272" y="-208" type="curve" smooth="yes"/>
      <point x="420" y="-208"/>
      <point x="528" y="-144"/>
      <point x="528" y="-48" type="curve" smooth="yes"/>
      <point x="528" y="48"/>
      <point x="460" y="96"/>
      <point x="352" y="96" type="curve" smooth="yes"/>
      <point x="208" y="96" type="line" smooth="yes"/>
      <point x="180" y="96"/>
      <point x="160" y="104"/>
      <point x="160" y="128" type="curve" smooth="yes"/>
      <point x="160" y="152"/>
      <point x="180" y="160"/>
      <point x="208" y="160" type="curve" smooth="yes"/>
      <point x="280" y="160" type="line" smooth="yes"/>
      <point x="392" y="160"/>
      <point x="472" y="216"/>
      <point x="472" y="320" type="curve" smooth="yes"/>
      <point x="472" y="355"/>
      <point x="463" y="385"/>
      <point x="446" y="409" type="curve"/>
      <point x="528" y="450" type="line"/>
      <point x="528" y="480" type="line"/>
      <point x="280" y="480" type="line" smooth="yes"/>
      <point x="168" y="480"/>
      <point x="88" y="424"/>
      <point x="88" y="320" type="curve" smooth="yes"/>
      <point x="88" y="255"/>
      <point x="120" y="208"/>
      <point x="171" y="183" type="curve"/>
      <point x="118" y="176"/>
      <point x="80" y="145"/>
      <point x="80" y="88" type="curve" smooth="yes"/>
      <point x="80" y="24"/>
      <point x="128" y="0"/>
      <point x="192" y="0" type="curve" smooth="yes"/>
      <point x="288" y="0" type="line" smooth="yes"/>
      <point x="384" y="0"/>
      <point x="448" y="-16"/>
      <point x="448" y="-72" type="curve" smooth="yes"/>
      <point x="448" y="-128"/>
      <point x="368" y="-168"/>
      <point x="272" y="-168" type="curve" smooth="yes"/>
      <point x="200" y="-168"/>
      <point x="138" y="-158"/>
      <point x="168" y="-128" type="curve" smooth="yes"/>
      <point x="178" y="-118"/>
      <point x="184" y="-104"/>
      <point x="184" y="-88" type="curve" smooth="yes"/>
      <point x="184" y="-56"/>
      <point x="160" y="-32"/>
      <point x="128" y="-32" type="curve" smooth="yes"/>
      <point x="96" y="-32"/>
      <point x="72" y="-56"/>
      <point x="72" y="-88" type="curve" smooth="yes"/>
      <point x="72" y="-152"/>
      <point x="140" y="-208"/>
    </contour>
  </outline>
</glyph>
<glyph name="h" format="1">
  <advance width="608"/>
  <unicode hex="0068"/>
  <outline>
    <contour>
      <point x="284" y="24" type="line"/>
      <point x="220" y="56" type="line"/>
      <point x="220" y="384" type="line"/>
      <point x="256" y="420"/>
      <point x="280" y="440"/>
      <point x="312" y="440" type="curve" smooth="yes"/>
      <point x="360" y="440"/>
      <point x="388" y="400"/>
      <point x="388" y="320" type="curve" smooth="yes"/>
      <point x="388" y="56" type="line"/>
      <point x="324" y="24" type="line"/>
      <point x="324" y="0" type="line"/>
      <point x="544" y="0" type="line"/>
      <point x="544" y="24" type="line"/>
      <point x="480" y="56" type="line"/>
      <point x="480" y="304" type="line" smooth="yes"/>
      <point x="480" y="416"/>
      <point x="456" y="496"/>
      <point x="344" y="496" type="curve" smooth="yes"/>
      <point x="304" y="496"/>
      <point x="268" y="480"/>
      <point x="220" y="432" type="curve"/>
      <point x="220" y="704" type="line"/>
      <point x="64" y="704" type="line"/>
      <point x="64" y="680" type="line"/>
      <point x="128" y="648" type="line"/>
      <point x="128" y="56" type="line"/>
      <point x="64" y="24" type="line"/>
      <point x="64" y="0" type="line"/>
      <point x="284" y="0" type="line"/>
    </contour>
  </outline>
</glyph>
<glyph name="i" format="1">
  <advance width="608"/>
  <unicode hex="0069"/>
  <outline>
    <contour>
      <point x="298" y="720" type="curve" smooth="yes"/>
      <point x="262" y="720"/>
      <point x="234" y="692"/>
      <point x="234" y="656" type="curve" smooth="yes"/>
      <point x="234" y="620"/>
      <point x="262" y="592"/>
      <point x="298" y="592" type="curve" smooth="yes"/>
      <point x="334" y="592"/>
      <point x="362" y="620"/>
      <point x="362" y="656" type="curve" smooth="yes"/>
      <point x="362" y="692"/>
      <point x="334" y="720"/>
    </contour>
    <contour>
      <point x="488" y="24" type="line"/>
      <point x="344" y="72" type="line"/>
      <point x="344" y="480" type="line"/>
      <point x="164" y="480" type="line"/>
      <point x="164" y="456" type="line"/>
      <point x="260" y="424" type="line"/>
      <point x="260" y="72" type="line"/>
      <point x="114" y="24" type="line"/>
      <point x="114" y="0" type="line"/>
      <point x="488" y="0" type="line"/>
    </contour>
  </outline>
</glyph>
<glyph name="j" format="1">
  <advance width="608"/>
  <unicode hex="006A"/>
  <outline>
    <contour>
      <point x="328" y="720" type="curve" smooth="yes"/>
      <point x="292" y="720"/>
      <point x="264" y="692"/>
      <point x="264" y="656" type="curve" smooth="yes"/>
      <point x="264" y="620"/>
      <point x="292" y="592"/>
      <point x="328" y="592" type="curve" smooth="yes"/>
      <point x="364" y="592"/>
      <point x="392" y="620"/>
      <point x="392" y="656" type="curve" smooth="yes"/>
      <point x="392" y="692"/>
      <point x="364" y="720"/>
    </contour>
    <contour>
      <point x="192" y="-208" type="curve" smooth="yes"/>
      <point x="304" y="-208"/>
      <point x="384" y="-112"/>
      <point x="384" y="16" type="curve" smooth="yes"/>
      <point x="384" y="480" type="line"/>
      <point x="164" y="480" type="line"/>
      <point x="164" y="456" type="line"/>
      <point x="292" y="412" type="line"/>
      <point x="292" y="-32" type="line" smooth="yes"/>
      <point x="292" y="-112"/>
      <point x="256" y="-160"/>
      <point x="208" y="-160" type="curve" smooth="yes"/>
      <point x="144" y="-160"/>
      <point x="138" y="-96"/>
      <point x="114" y="-72" type="curve"/>
      <point x="102" y="-57"/>
      <point x="84" y="-48"/>
      <point x="66" y="-48" type="curve" smooth="yes"/>
      <point x="28" y="-48"/>
      <point x="0" y="-76"/>
      <point x="0" y="-114" type="curve" smooth="yes"/>
      <point x="0" y="-166"/>
      <point x="32" y="-208"/>
    </contour>
  </outline>
</glyph>
<glyph name="k" format="1">
  <advance width="608"/>
  <unicode hex="006B"/>
  <outline>
    <contour>
      <point x="286" y="24" type="line"/>
      <point x="222" y="56" type="line"/>
      <point x="222" y="166" type="line"/>
      <point x="295" y="239" type="line"/>
      <point x="386" y="56" type="line"/>
      <point x="322" y="24" type="line"/>
      <point x="322" y="0" type="line"/>
      <point x="544" y="0" type="line"/>
      <point x="544" y="24" type="line"/>
      <point x="480" y="56" type="line"/>
      <point x="357" y="301" type="line"/>
      <point x="512" y="456" type="line"/>
      <point x="512" y="480" type="line"/>
      <point x="320" y="480" type="line"/>
      <point x="320" y="456" type="line"/>
      <point x="400" y="416" type="line"/>
      <point x="222" y="238" type="line"/>
      <point x="222" y="704" type="line"/>
      <point x="66" y="704" type="line"/>
      <point x="66" y="680" type="line"/>
      <point x="130" y="648" type="line"/>
      <point x="130" y="56" type="line"/>
      <point x="66" y="24" type="line"/>
      <point x="66" y="0" type="line"/>
      <point x="286" y="0" type="line"/>
    </contour>
  </outline>
</glyph>
<glyph name="l" format="1">
  <advance width="608"/>
  <unicode hex="006C"/>
  <outline>
    <contour>
      <point x="478" y="24" type="line"/>
      <point x="350" y="56" type="line"/>
      <point x="350" y="704" type="line"/>
      <point x="162" y="704" type="line"/>
      <point x="162" y="680" type="line"/>
      <point x="258" y="648" type="line"/>
      <point x="258" y="56" type="line"/>
      <point x="130" y="24" type="line"/>
      <point x="130" y="0" type="line"/>
      <point x="478" y="0" type="line"/>
    </contour>
  </outline>
</glyph>
<glyph name="m" format="1">
  <advance width="608"/>
  <unicode hex="006D"/>
  <outline>
    <contour>
      <point x="206" y="24" type="line"/>
      <point x="158" y="48" type="line"/>
      <point x="158" y="384" type="line"/>
      <point x="182" y="408"/>
      <point x="216" y="440"/>
      <point x="232" y="440" type="curve" smooth="yes"/>
      <point x="256" y="440"/>
      <point x="266" y="400"/>
      <point x="266" y="336" type="curve" smooth="yes"/>
      <point x="266" y="0" type="line"/>
      <point x="402" y="0" type="line"/>
      <point x="402" y="24" type="line"/>
      <point x="350" y="48" type="line"/>
      <point x="350" y="320" type="line" smooth="yes"/>
      <point x="350" y="343"/>
      <point x="351" y="364"/>
      <point x="350" y="384" type="curve"/>
      <point x="374" y="408"/>
      <point x="400" y="440"/>
      <point x="416" y="440" type="curve" smooth="yes"/>
      <point x="440" y="440"/>
      <point x="450" y="400"/>
      <point x="450" y="336" type="curve" smooth="yes"/>
      <point x="450" y="0" type="line"/>
      <point x="582" y="0" type="line"/>
      <point x="582" y="24" type="line"/>
      <point x="534" y="48" type="line"/>
      <point x="534" y="320" type="line" smooth="yes"/>
      <point x="534" y="416"/>
      <point x="544" y="496"/>
      <point x="440" y="496" type="curve" smooth="yes"/>
      <point x="400" y="496"/>
      <point x="386" y="468"/>
      <point x="350" y="432" type="curve" smooth="yes"/>
      <point x="346" y="428" type="line"/>
      <point x="338" y="469"/>
      <point x="316" y="496"/>
      <point x="256" y="496" type="curve" smooth="yes"/>
      <point x="224" y="496"/>
      <point x="202" y="468"/>
      <point x="166" y="432" type="curve" smooth="yes"/>
      <point x="150" y="416" type="line"/>
      <point x="146" y="416" type="line"/>
      <point x="146" y="480" type="line"/>
      <point x="26" y="480" type="line"/>
      <point x="26" y="456" type="line"/>
      <point x="74" y="432" type="line"/>
      <point x="74" y="48" type="line"/>
      <point x="26" y="24" type="line"/>
      <point x="26" y="0" type="line"/>
      <point x="206" y="0" type="line"/>
    </contour>
  </outline>
</glyph>
<glyph name="n" format="1">
  <advance width="608"/>
  <unicode hex="006E"/>
  <outline>
    <contour>
      <point x="276" y="24" type="line"/>
      <point x="212" y="56" type="line"/>
      <point x="212" y="376" type="line"/>
      <point x="248" y="412"/>
      <point x="288" y="440"/>
      <point x="312" y="440" type="curve" smooth="yes"/>
      <point x="360" y="440"/>
      <point x="396" y="400"/>
      <point x="396" y="320" type="curve" smooth="yes"/>
      <point x="396" y="56" type="line"/>
      <point x="332" y="24" type="line"/>
      <point x="332" y="0" type="line"/>
      <point x="544" y="0" type="line"/>
      <point x="544" y="24" type="line"/>
      <point x="480" y="56" type="line"/>
      <point x="480" y="304" type="line" smooth="yes"/>
      <point x="480" y="416"/>
      <point x="456" y="496"/>
      <point x="344" y="496" type="curve" smooth="yes"/>
      <point x="304" y="496"/>
      <point x="268" y="480"/>
      <point x="220" y="432" type="curve" smooth="yes"/>
      <point x="204" y="416" type="line"/>
      <point x="200" y="416" type="line"/>
      <point x="200" y="480" type="line"/>
      <point x="64" y="480" type="line"/>
      <point x="64" y="456" type="line"/>
      <point x="128" y="424" type="line"/>
      <point x="128" y="56" type="line"/>
      <point x="64" y="24" type="line"/>
      <point x="64" y="0" type="line"/>
      <point x="276" y="0" type="line"/>
    </contour>
  </outline>
</glyph>
<glyph name="o" format="1">
  <advance width="608"/>
  <unicode hex="006F"/>
  <outline>
    <contour>
      <point x="544" y="240" type="curve" smooth="yes"/>
      <point x="544" y="376"/>
      <point x="456" y="496"/>
      <point x="304" y="496" type="curve" smooth="yes"/>
      <point x="152" y="496"/>
      <point x="64" y="376"/>
      <point x="64" y="240" type="curve" smooth="yes"/>
      <point x="64" y="104"/>
      <point x="152" y="-16"/>
      <point x="304" y="-16" type="curve" smooth="yes"/>
      <point x="456" y="-16"/>
      <point x="544" y="104"/>
    </contour>
    <contour>
      <point x="440" y="240" type="curve" smooth="yes"/>
      <point x="440" y="96"/>
      <point x="384" y="32"/>
      <point x="304" y="32" type="curve" smooth="yes"/>
      <point x="224" y="32"/>
      <point x="168" y="96"/>
      <point x="168" y="240" type="curve" smooth="yes"/>
      <point x="168" y="384"/>
      <point x="224" y="448"/>
      <point x="304" y="448" type="curve" smooth="yes"/>
      <point x="384" y="448"/>
      <point x="440" y="384"/>
    </contour>
  </outline>
</glyph>
<glyph name="p" format="1">
  <advance width="608"/>
  <unicode hex="0070"/>
  <outline>
    <contour>
      <point x="328" y="32" type="curve" smooth="yes"/>
      <point x="280" y="32"/>
      <point x="256" y="44"/>
      <point x="220" y="80" type="curve"/>
      <point x="220" y="400" type="line"/>
      <point x="256" y="436"/>
      <point x="280" y="448"/>
      <point x="328" y="448" type="curve" smooth="yes"/>
      <point x="392" y="448"/>
      <point x="440" y="384"/>
      <point x="440" y="240" type="curve" smooth="yes"/>
      <point x="440" y="96"/>
      <point x="392" y="32"/>
    </contour>
    <contour>
      <point x="284" y="-168" type="line"/>
      <point x="220" y="-136" type="line"/>
      <point x="220" y="1" type="line"/>
      <point x="224" y="0" type="line"/>
      <point x="248" y="-8"/>
      <point x="296" y="-16"/>
      <point x="328" y="-16" type="curve" smooth="yes"/>
      <point x="464" y="-16"/>
      <point x="544" y="104"/>
      <point x="544" y="240" type="curve" smooth="yes"/>
      <point x="544" y="376"/>
      <point x="464" y="496"/>
      <point x="328" y="496" type="curve" smooth="yes"/>
      <point x="288" y="496"/>
      <point x="256" y="484"/>
      <point x="220" y="448" type="curve" smooth="yes"/>
      <point x="208" y="436" type="line"/>
      <point x="208" y="480" type="line"/>
      <point x="64" y="480" type="line"/>
      <point x="64" y="456" type="line"/>
      <point x="128" y="424" type="line"/>
      <point x="128" y="-136" type="line"/>
      <point x="64" y="-168" type="line"/>
      <point x="64" y="-192" type="line"/>
      <point x="284" y="-192" type="line"/>
    </contour>
  </outline>
</glyph>
<glyph name="q" format="1">
  <advance width="608"/>
  <unicode hex="0071"/>
  <outline>
    <contour>
      <point x="544" y="-192" type="line"/>
      <point x="544" y="-168" type="line"/>
      <point x="480" y="-136" type="line"/>
      <point x="480" y="424" type="line"/>
      <point x="544" y="456" type="line"/>
      <point x="544" y="480" type="line"/>
      <point x="400" y="480" type="line"/>
      <point x="376" y="490"/>
      <point x="312" y="496"/>
      <point x="280" y="496" type="curve" smooth="yes"/>
      <point x="144" y="496"/>
      <point x="64" y="376"/>
      <point x="64" y="240" type="curve" smooth="yes"/>
      <point x="64" y="104"/>
      <point x="144" y="-16"/>
      <point x="280" y="-16" type="curve" smooth="yes"/>
      <point x="320" y="-16"/>
      <point x="352" y="-4"/>
      <point x="388" y="32" type="curve"/>
      <point x="388" y="-136" type="line"/>
      <point x="324" y="-168" type="line"/>
      <point x="324" y="-192" type="line"/>
    </contour>
    <contour>
      <point x="280" y="32" type="curve" smooth="yes"/>
      <point x="216" y="32"/>
      <point x="168" y="96"/>
      <point x="168" y="240" type="curve" smooth="yes"/>
      <point x="168" y="384"/>
      <point x="216" y="448"/>
      <point x="280" y="448" type="curve" smooth="yes"/>
      <point x="328" y="448"/>
      <point x="352" y="436"/>
      <point x="388" y="400" type="curve"/>
      <point x="388" y="80" type="line"/>
      <point x="352" y="44"/>
      <point x="328" y="32"/>
    </contour>
  </outline>
</glyph>
<glyph name="r" format="1">
  <advance width="608"/>
  <unicode hex="0072"/>
  <outline>
    <contour>
      <point x="332" y="0" type="line"/>
      <point x="332" y="24" type="line"/>
      <point x="268" y="56" type="line"/>
      <point x="268" y="288" type="line"/>
      <point x="356" y="376" type="line" smooth="yes"/>
      <point x="396" y="416"/>
      <point x="408" y="424"/>
      <point x="424" y="424" type="curve" smooth="yes"/>
      <point x="448" y="424"/>
      <point x="440" y="368"/>
      <point x="504" y="368" type="curve" smooth="yes"/>
      <point x="536" y="368"/>
      <point x="560" y="392"/>
      <point x="560" y="424" type="curve" smooth="yes"/>
      <point x="560" y="464"/>
      <point x="528" y="496"/>
      <point x="480" y="496" type="curve" smooth="yes"/>
      <point x="438" y="496"/>
      <point x="404" y="496"/>
      <point x="348" y="440" type="curve" smooth="yes"/>
      <point x="256" y="348" type="line"/>
      <point x="256" y="480" type="line"/>
      <point x="112" y="480" type="line"/>
      <point x="112" y="456" type="line"/>
      <point x="176" y="424" type="line"/>
      <point x="176" y="56" type="line"/>
      <point x="112" y="24" type="line"/>
      <point x="112" y="0" type="line"/>
    </contour>
  </outline>
</glyph>
<glyph name="s" format="1">
  <advance width="608"/>
  <unicode hex="0073"/>
  <outline>
    <contour>
      <point x="320" y="-8" type="curve" smooth="yes"/>
      <point x="448" y="-8"/>
      <point x="464" y="72"/>
      <point x="464" y="128" type="curve" smooth="yes"/>
      <point x="464" y="184"/>
      <point x="424" y="244"/>
      <point x="320" y="296" type="curve" smooth="yes"/>
      <point x="256" y="328"/>
      <point x="216" y="352"/>
      <point x="216" y="384" type="curve" smooth="yes"/>
      <point x="216" y="416"/>
      <point x="240" y="440"/>
      <point x="288" y="440" type="curve" smooth="yes"/>
      <point x="326" y="440"/>
      <point x="364" y="425"/>
      <point x="394" y="370" type="curve"/>
      <point x="416" y="320" type="line"/>
      <point x="448" y="320" type="line"/>
      <point x="448" y="480" type="line"/>
      <point x="416" y="480" type="line"/>
      <point x="386" y="450" type="line"/>
      <point x="353" y="477"/>
      <point x="321" y="488"/>
      <point x="288" y="488" type="curve" smooth="yes"/>
      <point x="224" y="488"/>
      <point x="152" y="454"/>
      <point x="152" y="352" type="curve" smooth="yes"/>
      <point x="152" y="264"/>
      <point x="226" y="232"/>
      <point x="304" y="184" type="curve" smooth="yes"/>
      <point x="362" y="148"/>
      <point x="392" y="128"/>
      <point x="392" y="96" type="curve" smooth="yes"/>
      <point x="392" y="56"/>
      <point x="368" y="40"/>
      <point x="320" y="40" type="curve" smooth="yes"/>
      <point x="256" y="40"/>
      <point x="200" y="96"/>
      <point x="176" y="192" type="curve"/>
      <point x="144" y="192" type="line"/>
      <point x="144" y="0" type="line"/>
      <point x="176" y="0" type="line"/>
      <point x="212" y="36" type="line"/>
      <point x="252" y="0"/>
      <point x="286" y="-8"/>
    </contour>
  </outline>
</glyph>
<glyph name="t" format="1">
  <advance width="608"/>
  <unicode hex="0074"/>
  <outline>
    <contour>
      <point x="284" y="-16" type="curve" smooth="yes"/>
      <point x="348" y="-16"/>
      <point x="388" y="32"/>
      <point x="388" y="88" type="curve"/>
      <point x="356" y="88" type="line"/>
      <point x="356" y="64"/>
      <point x="340" y="48"/>
      <point x="316" y="48" type="curve" smooth="yes"/>
      <point x="292" y="48"/>
      <point x="276" y="64"/>
      <point x="276" y="88" type="curve" smooth="yes"/>
      <point x="276" y="432" type="line"/>
      <point x="480" y="432" type="line"/>
      <point x="480" y="480" type="line"/>
      <point x="276" y="480" type="line"/>
      <point x="276" y="632" type="line"/>
      <point x="232" y="632" type="line"/>
      <point x="232" y="560"/>
      <point x="184" y="480"/>
      <point x="80" y="480" type="curve"/>
      <point x="80" y="432" type="line"/>
      <point x="184" y="432" type="line"/>
      <point x="184" y="88" type="line" smooth="yes"/>
      <point x="184" y="32"/>
      <point x="224" y="-16"/>
    </contour>
  </outline>
</glyph>
<glyph name="u" format="1">
  <advance width="608"/>
  <unicode hex="0075"/>
  <outline>
    <contour>
      <point x="388" y="48" type="curve" smooth="yes"/>
      <point x="400" y="60" type="line"/>
      <point x="400" y="0" type="line"/>
      <point x="544" y="0" type="line"/>
      <point x="544" y="24" type="line"/>
      <point x="480" y="56" type="line"/>
      <point x="480" y="480" type="line"/>
      <point x="324" y="480" type="line"/>
      <point x="324" y="456" type="line"/>
      <point x="388" y="424" type="line"/>
      <point x="388" y="96" type="line"/>
      <point x="352" y="60"/>
      <point x="328" y="40"/>
      <point x="296" y="40" type="curve" smooth="yes"/>
      <point x="248" y="40"/>
      <point x="220" y="80"/>
      <point x="220" y="160" type="curve" smooth="yes"/>
      <point x="220" y="480" type="line"/>
      <point x="64" y="480" type="line"/>
      <point x="64" y="456" type="line"/>
      <point x="128" y="424" type="line"/>
      <point x="128" y="176" type="line" smooth="yes"/>
      <point x="128" y="64"/>
      <point x="152" y="-16"/>
      <point x="264" y="-16" type="curve" smooth="yes"/>
      <point x="304" y="-16"/>
      <point x="340" y="0"/>
    </contour>
  </outline>
</glyph>
<glyph name="v" format="1">
  <advance width="608"/>
  <unicode hex="0076"/>
  <outline>
    <contour>
      <point x="272" y="0" type="line"/>
      <point x="336" y="0" type="line"/>
      <point x="496" y="424" type="line"/>
      <point x="560" y="456" type="line"/>
      <point x="560" y="480" type="line"/>
      <point x="376" y="480" type="line"/>
      <point x="376" y="456" type="line"/>
      <point x="440" y="424" type="line"/>
      <point x="325" y="119" type="line"/>
      <point x="208" y="424" type="line"/>
      <point x="272" y="456" type="line"/>
      <point x="272" y="480" type="line"/>
      <point x="48" y="480" type="line"/>
      <point x="48" y="456" type="line"/>
      <point x="112" y="424" type="line"/>
    </contour>
  </outline>
</glyph>
<glyph name="w" format="1">
  <advance width="608"/>
  <unicode hex="0077"/>
  <outline>
    <contour>
      <point x="192" y="0" type="line"/>
      <point x="240" y="0" type="line"/>
      <point x="304" y="243" type="line"/>
      <point x="368" y="0" type="line"/>
      <point x="416" y="0" type="line"/>
      <point x="528" y="424" type="line"/>
      <point x="592" y="456" type="line"/>
      <point x="592" y="480" type="line"/>
      <point x="424" y="480" type="line"/>
      <point x="424" y="456" type="line"/>
      <point x="488" y="424" type="line"/>
      <point x="419" y="163" type="line"/>
      <point x="352" y="424" type="line"/>
      <point x="312" y="424" type="line"/>
      <point x="243" y="163" type="line"/>
      <point x="176" y="424" type="line"/>
      <point x="240" y="456" type="line"/>
      <point x="240" y="480" type="line"/>
      <point x="16" y="480" type="line"/>
      <point x="16" y="456" type="line"/>
      <point x="80" y="424" type="line"/>
    </contour>
  </outline>
</glyph>
<glyph name="x" format="1">
  <advance width="608"/>
  <unicode hex="0078"/>
  <outline>
    <contour>
      <point x="240" y="24" type="line"/>
      <point x="176" y="56" type="line"/>
      <point x="282" y="199" type="line"/>
      <point x="380" y="56" type="line"/>
      <point x="316" y="24" type="line"/>
      <point x="316" y="0" type="line"/>
      <point x="544" y="0" type="line"/>
      <point x="544" y="24" type="line"/>
      <point x="480" y="56" type="line"/>
      <point x="334" y="269" type="line"/>
      <point x="448" y="424" type="line"/>
      <point x="512" y="456" type="line"/>
      <point x="512" y="480" type="line"/>
      <point x="336" y="480" type="line"/>
      <point x="336" y="456" type="line"/>
      <point x="400" y="424" type="line"/>
      <point x="311" y="303" type="line"/>
      <point x="228" y="424" type="line"/>
      <point x="292" y="456" type="line"/>
      <point x="292" y="480" type="line"/>
      <point x="64" y="480" type="line"/>
      <point x="64" y="456" type="line"/>
      <point x="128" y="424" type="line"/>
      <point x="259" y="233" type="line"/>
      <point x="128" y="56" type="line"/>
      <point x="64" y="24" type="line"/>
      <point x="64" y="0" type="line"/>
      <point x="240" y="0" type="line"/>
    </contour>
  </outline>
</glyph>
<glyph name="y" format="1">
  <advance width="608"/>
  <unicode hex="0079"/>
  <outline>
    <contour>
      <point x="128" y="-208" type="curve" smooth="yes"/>
      <point x="176" y="-208"/>
      <point x="222" y="-186"/>
      <point x="248" y="-114" type="curve" smooth="yes"/>
      <point x="448" y="424" type="line"/>
      <point x="512" y="456" type="line"/>
      <point x="512" y="480" type="line"/>
      <point x="320" y="480" type="line"/>
      <point x="320" y="456" type="line"/>
      <point x="384" y="424" type="line"/>
      <point x="274" y="127" type="line"/>
      <point x="160" y="424" type="line"/>
      <point x="224" y="456" type="line"/>
      <point x="224" y="480" type="line"/>
      <point x="0" y="480" type="line"/>
      <point x="0" y="456" type="line"/>
      <point x="64" y="424" type="line"/>
      <point x="224" y="0" type="line"/>
      <point x="227" y="0" type="line"/>
      <point x="182" y="-120" type="line" smooth="yes"/>
      <point x="174" y="-144"/>
      <point x="160" y="-152"/>
      <point x="152" y="-152" type="curve" smooth="yes"/>
      <point x="130" y="-152"/>
      <point x="136" y="-100"/>
      <point x="114" y="-78" type="curve"/>
      <point x="102" y="-63"/>
      <point x="84" y="-54"/>
      <point x="66" y="-54" type="curve" smooth="yes"/>
      <point x="28" y="-54"/>
      <point x="0" y="-82"/>
      <point x="0" y="-120" type="curve" smooth="yes"/>
      <point x="0" y="-172"/>
      <point x="56" y="-208"/>
    </contour>
  </outline>
</glyph>
<glyph name="z" format="1">
  <advance width="608"/>
  <unicode hex="007A"/>
  <outline>
    <contour>
      <point x="472" y="0" type="line"/>
      <point x="504" y="176" type="line"/>
      <point x="472" y="176" type="line"/>
      <point x="396" y="56" type="line"/>
      <point x="213" y="56" type="line"/>
      <point x="464" y="456" type="line"/>
      <point x="464" y="480" type="line"/>
      <point x="128" y="480" type="line"/>
      <point x="96" y="304" type="line"/>
      <point x="128" y="304" type="line"/>
      <point x="204" y="424" type="line"/>
      <point x="347" y="424" type="line"/>
      <point x="96" y="24" type="line"/>
      <point x="96" y="0" type="line"/>
    </contour>
  </outline>
</glyph>
<glyph name="bar" format="1">
  <advance width="608"/>
  <unicode hex="007C"/>
  <outline>
    <contour>
      <point x="336" y="768" type="line"/>
      <point x="272" y="768" type="line"/>
      <point x="272" y="-192" type="line"/>
      <point x="336" y="-192" type="line"/>
    </contour>
  </outline>
</glyph>
<glyph name="braceright" format="1">
  <advance width="608"/>
  <unicode hex="007D"/>
  <outline>
    <contour>
      <point x="320" y="672" type="line"/>
      <point x="320" y="-64" type="line"/>
      <point x="160" y="-64" type="line"/>
      <point x="160" y="-112" type="line"/>
      <point x="384" y="-112" type="line"/>
      <point x="384" y="720" type="line"/>
      <point x="160" y="720" type="line"/>
      <point x="160" y="672" type="line"/>
    </contour>
  </outline>
</glyph>
<glyph name="exclamdown" format="1">
  <advance width="608"/>
  <unicode hex="00A1"/>
  <outline>
    <contour>
      <point x="304" y="592" type="curve" smooth="yes"/>
      <point x="340" y="592"/>
      <point x="368" y="620"/>
      <point x="368" y="656" type="curve" smooth="yes"/>
      <point x="368" y="692"/>
      <point x="340" y="720"/>
      <point x="304" y="720" type="curve" smooth="yes"/>
      <point x="268" y="720"/>
      <point x="240" y="692"/>
      <point x="240" y="656" type="curve" smooth="yes"/>
      <point x="240" y="620"/>
      <point x="268" y="592"/>
    </contour>
    <contour>
      <point x="360" y="40" type="curve" smooth="yes"/>
      <point x="360" y="160"/>
      <point x="336" y="400"/>
      <point x="328" y="512" type="curve"/>
      <point x="280" y="512" type="line"/>
      <point x="272" y="400"/>
      <point x="248" y="160"/>
      <point x="248" y="40" type="curve" smooth="yes"/>
      <point x="248" y="8"/>
      <point x="272" y="-16"/>
      <point x="304" y="-16" type="curve" smooth="yes"/>
      <point x="336" y="-16"/>
      <point x="360" y="8"/>
    </contour>
  </outline>
</glyph>
<glyph name="cent" format="1">
  <advance width="608"/>
  <unicode hex="00A2"/>
  <outline>
    <contour>
      <point x="484" y="112" type="curve"/>
      <point x="452" y="128" type="line"/>
      <point x="436" y="96"/>
      <point x="412" y="48"/>
      <point x="340" y="48" type="curve" smooth="yes"/>
      <point x="337" y="48"/>
      <point x="335" y="48"/>
      <point x="332" y="48" type="curve"/>
      <point x="332" y="447" type="line"/>
      <point x="391" y="441"/>
      <point x="417" y="398"/>
      <point x="395" y="357" type="curve"/>
      <point x="395" y="356"/>
      <point x="395" y="355"/>
      <point x="394" y="354" type="curve"/>
      <point x="390" y="346"/>
      <point x="388" y="338"/>
      <point x="388" y="328" type="curve" smooth="yes"/>
      <point x="388" y="296"/>
      <point x="412" y="272"/>
      <point x="444" y="272" type="curve" smooth="yes"/>
      <point x="476" y="272"/>
      <point x="500" y="296"/>
      <point x="500" y="328" type="curve" smooth="yes"/>
      <point x="500" y="411"/>
      <point x="428" y="488"/>
      <point x="332" y="495" type="curve"/>
      <point x="332" y="576" type="line"/>
      <point x="300" y="576" type="line"/>
      <point x="300" y="495" type="line"/>
      <point x="174" y="486"/>
      <point x="108" y="371"/>
      <point x="108" y="240" type="curve" smooth="yes"/>
      <point x="108" y="109"/>
      <point x="174" y="-6"/>
      <point x="300" y="-15" type="curve"/>
      <point x="300" y="-96" type="line"/>
      <point x="332" y="-96" type="line"/>
      <point x="332" y="-15" type="line"/>
      <point x="446" y="-8"/>
      <point x="469" y="81"/>
    </contour>
    <contour>
      <point x="212" y="240" type="curve" smooth="yes"/>
      <point x="212" y="372"/>
      <point x="245" y="436"/>
      <point x="300" y="447" type="curve"/>
      <point x="300" y="55" type="line"/>
      <point x="252" y="73"/>
      <point x="212" y="126"/>
    </contour>
  </outline>
</glyph>
<glyph name="sterling" format="1">
  <advance width="608"/>
  <unicode hex="00A3"/>
  <outline>
    <contour>
      <point x="544" y="256" type="line"/>
      <point x="520" y="256" type="line"/>
      <point x="420" y="56" type="line"/>
      <point x="224" y="56" type="line"/>
      <point x="224" y="336" type="line"/>
      <point x="378" y="336" type="line"/>
      <point x="378" y="384" type="line"/>
      <point x="224" y="384" type="line"/>
      <point x="224" y="576" type="line" smooth="yes"/>
      <point x="224" y="640"/>
      <point x="254" y="672"/>
      <point x="286" y="672" type="curve" smooth="yes"/>
      <point x="302" y="672"/>
      <point x="318" y="672"/>
      <point x="318" y="632" type="curve" smooth="yes"/>
      <point x="318" y="600"/>
      <point x="342" y="576"/>
      <point x="374" y="576" type="curve" smooth="yes"/>
      <point x="406" y="576"/>
      <point x="430" y="600"/>
      <point x="430" y="632" type="curve" smooth="yes"/>
      <point x="430" y="704"/>
      <point x="342" y="718"/>
      <point x="302" y="720" type="curve" smooth="yes"/>
      <point x="186" y="720"/>
      <point x="128" y="642"/>
      <point x="128" y="544" type="curve" smooth="yes"/>
      <point x="128" y="384" type="line"/>
      <point x="64" y="384" type="line"/>
      <point x="64" y="328" type="line"/>
      <point x="128" y="328" type="line"/>
      <point x="128" y="56" type="line"/>
      <point x="64" y="24" type="line"/>
      <point x="64" y="0" type="line"/>
      <point x="512" y="0" type="line"/>
    </contour>
  </outline>
</glyph>
<glyph name="yen" format="1">
  <advance width="608"/>
  <unicode hex="00A5"/>
  <outline>
    <contour>
      <point x="256" y="328" type="line"/>
      <point x="256" y="320" type="line"/>
      <point x="0" y="320" type="line"/>
      <point x="0" y="256" type="line"/>
      <point x="256" y="256" type="line"/>
      <point x="256" y="56" type="line"/>
      <point x="192" y="24" type="line"/>
      <point x="192" y="0" type="line"/>
      <point x="416" y="0" type="line"/>
      <point x="416" y="24" type="line"/>
      <point x="352" y="56" type="line"/>
      <point x="352" y="256" type="line"/>
      <point x="608" y="256" type="line"/>
      <point x="608" y="320" type="line"/>
      <point x="352" y="320" type="line"/>
      <point x="352" y="328" type="line"/>
      <point x="396" y="416" type="line"/>
      <point x="608" y="416" type="line"/>
      <point x="608" y="480" type="line"/>
      <point x="428" y="480" type="line"/>
      <point x="512" y="648" type="line"/>
      <point x="576" y="680" type="line"/>
      <point x="576" y="704" type="line"/>
      <point x="384" y="704" type="line"/>
      <point x="384" y="680" type="line"/>
      <point x="448" y="648" type="line"/>
      <point x="324" y="400" type="line"/>
      <point x="200" y="648" type="line"/>
      <point x="264" y="680" type="line"/>
      <point x="264" y="704" type="line"/>
      <point x="32" y="704" type="line"/>
      <point x="32" y="680" type="line"/>
      <point x="96" y="648" type="line"/>
      <point x="180" y="480" type="line"/>
      <point x="0" y="480" type="line"/>
      <point x="0" y="416" type="line"/>
      <point x="212" y="416" type="line"/>
    </contour>
  </outline>
</glyph>
<glyph name="brokenbar" format="1">
  <advance width="608"/>
  <unicode hex="00A6"/>
  <outline>
    <contour>
      <point x="272" y="336" type="line"/>
      <point x="336" y="336" type="line"/>
      <point x="336" y="704" type="line"/>
      <point x="272" y="704" type="line"/>
    </contour>
    <contour>
      <point x="272" y="-192" type="line"/>
      <point x="336" y="-192" type="line"/>
      <point x="336" y="192" type="line"/>
      <point x="272" y="192" type="line"/>
    </contour>
  </outline>
</glyph>
<glyph name="plusminus" format="1">
  <advance width="608"/>
  <unicode hex="00B1"/>
  <outline>
    <contour>
      <point x="340" y="352" type="line"/>
      <point x="340" y="480" type="line"/>
      <point x="268" y="480" type="line"/>
      <point x="268" y="352" type="line"/>
      <point x="64" y="352" type="line"/>
      <point x="64" y="288" type="line"/>
      <point x="268" y="288" type="line"/>
      <point x="268" y="160" type="line"/>
      <point x="340" y="160" type="line"/>
      <point x="340" y="288" type="line"/>
      <point x="544" y="288" type="line"/>
      <point x="544" y="352" type="line"/>
    </contour>
    <contour>
      <point x="64" y="64" type="line"/>
      <point x="64" y="0" type="line"/>
      <point x="544" y="0" type="line"/>
      <point x="544" y="64" type="line"/>
    </contour>
  </outline>
</glyph>
<glyph name="threesuperior" format="1">
  <advance width="602"/>
  <unicode hex="00B3"/>
  <outline>
    <contour>
      <point x="372" y="470" type="curve"/>
      <point x="435" y="493"/>
      <point x="463" y="522"/>
      <point x="463" y="573" type="curve" smooth="yes"/>
      <point x="463" y="637"/>
      <point x="405" y="684"/>
      <point x="304" y="684" type="curve" smooth="yes"/>
      <point x="198" y="684"/>
      <point x="141" y="636"/>
      <point x="141" y="581" type="curve" smooth="yes"/>
      <point x="141" y="549"/>
      <point x="162" y="530"/>
      <point x="193" y="530" type="curve" smooth="yes"/>
      <point x="224" y="530"/>
      <point x="243" y="546"/>
      <point x="243" y="569" type="curve" smooth="yes"/>
      <point x="243" y="601"/>
      <point x="211" y="606"/>
      <point x="211" y="617" type="curve" smooth="yes"/>
      <point x="211" y="627"/>
      <point x="237" y="647"/>
      <point x="290" y="647" type="curve" smooth="yes"/>
      <point x="349" y="647"/>
      <point x="379" y="621"/>
      <point x="379" y="573" type="curve" smooth="yes"/>
      <point x="379" y="511"/>
      <point x="352" y="487"/>
      <point x="291" y="487" type="curve" smooth="yes"/>
      <point x="268" y="487"/>
      <point x="253" y="489"/>
      <point x="247" y="489" type="curve" smooth="yes"/>
      <point x="228" y="489"/>
      <point x="219" y="481"/>
      <point x="219" y="467" type="curve" smooth="yes"/>
      <point x="219" y="455"/>
      <point x="229" y="448"/>
      <point x="246" y="448" type="curve" smooth="yes"/>
      <point x="257" y="448"/>
      <point x="272" y="451"/>
      <point x="292" y="451" type="curve" smooth="yes"/>
      <point x="358" y="451"/>
      <point x="389" y="425"/>
      <point x="389" y="361" type="curve" smooth="yes"/>
      <point x="389" y="290"/>
      <point x="356" y="259"/>
      <point x="275" y="259" type="curve" smooth="yes"/>
      <point x="223" y="259"/>
      <point x="189" y="278"/>
      <point x="189" y="292" type="curve" smooth="yes"/>
      <point x="189" y="311"/>
      <point x="228" y="309"/>
      <point x="228" y="345" type="curve" smooth="yes"/>
      <point x="228" y="374"/>
      <point x="208" y="391"/>
      <point x="178" y="391" type="curve" smooth="yes"/>
      <point x="142" y="391"/>
      <point x="117" y="367"/>
      <point x="117" y="328" type="curve" smooth="yes"/>
      <point x="117" y="274"/>
      <point x="178" y="223"/>
      <point x="289" y="223" type="curve" smooth="yes"/>
      <point x="407" y="223"/>
      <point x="481" y="279"/>
      <point x="481" y="352" type="curve" smooth="yes"/>
      <point x="481" y="413"/>
      <point x="445" y="451"/>
    </contour>
  </outline>
</glyph>
<glyph name="periodcentered" format="1">
  <advance width="602"/>
  <unicode hex="00B7"/>
  <outline>
    <contour>
      <point x="304" y="416" type="curve" smooth="yes"/>
      <point x="268" y="416"/>
      <point x="240" y="388"/>
      <point x="240" y="352" type="curve" smooth="yes"/>
      <point x="240" y="316"/>
      <point x="268" y="288"/>
      <point x="304" y="288" type="curve" smooth="yes"/>
      <point x="340" y="288"/>
      <point x="368" y="316"/>
      <point x="368" y="352" type="curve" smooth="yes"/>
      <point x="368" y="388"/>
      <point x="340" y="416"/>
    </contour>
  </outline>
</glyph>
<glyph name="cedilla" format="1">
  <advance width="602"/>
  <unicode hex="00B8"/>
  <outline>
    <contour>
      <point x="285" y="-96" type="line"/>
      <point x="301" y="-94"/>
      <point x="311" y="-93"/>
      <point x="317" y="-93" type="curve" smooth="yes"/>
      <point x="350" y="-93"/>
      <point x="368" y="-109"/>
      <point x="368" y="-135" type="curve" smooth="yes"/>
      <point x="368" y="-164"/>
      <point x="351" y="-179"/>
      <point x="314" y="-179" type="curve" smooth="yes"/>
      <point x="284" y="-179"/>
      <point x="242" y="-167"/>
      <point x="200" y="-141" type="curve"/>
      <point x="182" y="-185" type="line"/>
      <point x="239" y="-208"/>
      <point x="287" y="-222"/>
      <point x="328" y="-222" type="curve" smooth="yes"/>
      <point x="399" y="-222"/>
      <point x="437" y="-188"/>
      <point x="437" y="-135" type="curve" smooth="yes"/>
      <point x="437" y="-87"/>
      <point x="404" y="-54"/>
      <point x="351" y="-54" type="curve" smooth="yes"/>
      <point x="343" y="-54"/>
      <point x="331" y="-54"/>
      <point x="316" y="-56" type="curve"/>
      <point x="316" y="0" type="line"/>
      <point x="285" y="0" type="line"/>
    </contour>
  </outline>
</glyph>
<glyph name="ordmasculine" format="1">
  <advance width="608"/>
  <unicode hex="00BA"/>
  <outline>
    <contour>
      <point x="112" y="480" type="curve" smooth="yes"/>
      <point x="112" y="376"/>
      <point x="192" y="288"/>
      <point x="304" y="288" type="curve" smooth="yes"/>
      <point x="416" y="288"/>
      <point x="496" y="376"/>
      <point x="496" y="480" type="curve" smooth="yes"/>
      <point x="496" y="584"/>
      <point x="416" y="672"/>
      <point x="304" y="672" type="curve" smooth="yes"/>
      <point x="192" y="672"/>
      <point x="112" y="584"/>
    </contour>
    <contour>
      <point x="304" y="624" type="curve" smooth="yes"/>
      <point x="368" y="624"/>
      <point x="392" y="552"/>
      <point x="392" y="480" type="curve" smooth="yes"/>
      <point x="392" y="408"/>
      <point x="368" y="336"/>
      <point x="304" y="336" type="curve" smooth="yes"/>
      <point x="240" y="336"/>
      <point x="216" y="408"/>
      <point x="216" y="480" type="curve" smooth="yes"/>
      <point x="216" y="552"/>
      <point x="240" y="624"/>
    </contour>
    <contour>
      <point x="480" y="224" type="line"/>
      <point x="128" y="224" type="line"/>
      <point x="128" y="160" type="line"/>
      <point x="480" y="160" type="line"/>
    </contour>
  </outline>
</glyph>
<glyph name="threequarters" format="1">
  <advance width="602"/>
  <unicode hex="00BE"/>
  <outline>
    <contour>
      <point x="567" y="533" type="line"/>
      <point x="12" y="173" type="line"/>
      <point x="35" y="138" type="line"/>
      <point x="589" y="498" type="line"/>
    </contour>
    <contour>
      <point x="234" y="578" type="curve"/>
      <point x="287" y="597"/>
      <point x="310" y="621"/>
      <point x="310" y="663" type="curve" smooth="yes"/>
      <point x="310" y="715"/>
      <point x="260" y="755"/>
      <point x="182" y="755" type="curve" smooth="yes"/>
      <point x="85" y="755"/>
      <point x="37" y="717"/>
      <point x="37" y="670" type="curve" smooth="yes"/>
      <point x="37" y="644"/>
      <point x="54" y="628"/>
      <point x="81" y="628" type="curve" smooth="yes"/>
      <point x="108" y="628"/>
      <point x="124" y="641"/>
      <point x="124" y="660" type="curve" smooth="yes"/>
      <point x="124" y="687"/>
      <point x="96" y="691"/>
      <point x="96" y="700" type="curve" smooth="yes"/>
      <point x="96" y="709"/>
      <point x="120" y="725"/>
      <point x="164" y="725" type="curve" smooth="yes"/>
      <point x="214" y="725"/>
      <point x="239" y="704"/>
      <point x="239" y="663" type="curve" smooth="yes"/>
      <point x="239" y="608"/>
      <point x="214" y="592"/>
      <point x="159" y="592" type="curve" smooth="yes"/>
      <point x="145" y="592"/>
      <point x="136" y="594"/>
      <point x="131" y="594" type="curve" smooth="yes"/>
      <point x="113" y="594"/>
      <point x="104" y="590"/>
      <point x="104" y="576" type="curve" smooth="yes"/>
      <point x="104" y="566"/>
      <point x="111" y="560"/>
      <point x="125" y="560" type="curve" smooth="yes"/>
      <point x="137" y="560"/>
      <point x="150" y="563"/>
      <point x="165" y="563" type="curve" smooth="yes"/>
      <point x="221" y="563"/>
      <point x="247" y="541"/>
      <point x="247" y="488" type="curve" smooth="yes"/>
      <point x="247" y="430"/>
      <point x="219" y="403"/>
      <point x="154" y="403" type="curve" smooth="yes"/>
      <point x="107" y="403"/>
      <point x="78" y="419"/>
      <point x="78" y="430" type="curve" smooth="yes"/>
      <point x="78" y="446"/>
      <point x="111" y="445"/>
      <point x="111" y="475" type="curve" smooth="yes"/>
      <point x="111" y="499"/>
      <point x="95" y="512"/>
      <point x="69" y="512" type="curve" smooth="yes"/>
      <point x="38" y="512"/>
      <point x="17" y="492"/>
      <point x="17" y="462" type="curve" smooth="yes"/>
      <point x="17" y="413"/>
      <point x="69" y="373"/>
      <point x="162" y="373" type="curve" smooth="yes"/>
      <point x="264" y="373"/>
      <point x="326" y="419"/>
      <point x="326" y="480" type="curve" smooth="yes"/>
      <point x="326" y="535"/>
      <point x="292" y="563"/>
    </contour>
    <contour>
      <point x="486" y="298" type="line"/>
      <point x="262" y="53" type="line"/>
      <point x="262" y="18" type="line"/>
      <point x="446" y="18" type="line"/>
      <point x="446" y="-25" type="line" smooth="yes"/>
      <point x="446" y="-38"/>
      <point x="442" y="-43"/>
      <point x="421" y="-43" type="curve" smooth="yes"/>
      <point x="379" y="-43" type="line"/>
      <point x="379" y="-74" type="line"/>
      <point x="582" y="-74" type="line"/>
      <point x="582" y="-43" type="line"/>
      <point x="540" y="-43" type="line" smooth="yes"/>
      <point x="520" y="-43"/>
      <point x="515" y="-38"/>
      <point x="515" y="-25" type="curve" smooth="yes"/>
      <point x="515" y="19" type="line"/>
      <point x="594" y="19" type="line"/>
      <point x="594" y="54" type="line"/>
      <point x="515" y="54" type="line"/>
      <point x="515" y="298" type="line"/>
    </contour>
    <contour>
      <point x="447" y="199" type="line"/>
      <point x="447" y="54" type="line"/>
      <point x="311" y="54" type="line"/>
    </contour>
  </outline>
</glyph>
<glyph name="questiondown" format="1">
  <advance width="608"/>
  <unicode hex="00BF"/>
  <outline>
    <contour>
      <point x="320" y="592" type="curve" smooth="yes"/>
      <point x="356" y="592"/>
      <point x="384" y="620"/>
      <point x="384" y="656" type="curve" smooth="yes"/>
      <point x="384" y="692"/>
      <point x="356" y="720"/>
      <point x="320" y="720" type="curve" smooth="yes"/>
      <point x="284" y="720"/>
      <point x="256" y="692"/>
      <point x="256" y="656" type="curve" smooth="yes"/>
      <point x="256" y="620"/>
      <point x="284" y="592"/>
    </contour>
    <contour>
      <point x="312" y="32" type="curve" smooth="yes"/>
      <point x="232" y="32"/>
      <point x="208" y="80"/>
      <point x="208" y="160" type="curve" smooth="yes"/>
      <point x="208" y="288"/>
      <point x="344" y="336"/>
      <point x="344" y="448" type="curve" smooth="yes"/>
      <point x="344" y="512" type="line"/>
      <point x="296" y="512" type="line"/>
      <point x="296" y="480" type="line" smooth="yes"/>
      <point x="296" y="346"/>
      <point x="104" y="320"/>
      <point x="104" y="160" type="curve" smooth="yes"/>
      <point x="104" y="48"/>
      <point x="184" y="-16"/>
      <point x="304" y="-16" type="curve" smooth="yes"/>
      <point x="436" y="-16"/>
      <point x="488" y="96"/>
      <point x="488" y="160" type="curve" smooth="yes"/>
      <point x="488" y="196"/>
      <point x="460" y="224"/>
      <point x="424" y="224" type="curve" smooth="yes"/>
      <point x="388" y="224"/>
      <point x="360" y="196"/>
      <point x="360" y="160" type="curve" smooth="yes"/>
      <point x="360" y="138"/>
      <point x="370" y="120"/>
      <point x="386" y="108" type="curve"/>
      <point x="408" y="94"/>
      <point x="384" y="32"/>
    </contour>
  </outline>
</glyph>
<glyph name="Agrave" format="1">
  <advance width="608"/>
  <unicode hex="00C0"/>
  <outline>
    <contour>
      <point x="384" y="736" type="line"/>
      <point x="408" y="768" type="line"/>
      <point x="264" y="912" type="line" smooth="yes"/>
      <point x="254" y="922"/>
      <point x="240" y="928"/>
      <point x="224" y="928" type="curve" smooth="yes"/>
      <point x="192" y="928"/>
      <point x="168" y="904"/>
      <point x="168" y="872" type="curve" smooth="yes"/>
      <point x="168" y="850"/>
      <point x="180" y="831"/>
      <point x="198" y="822" type="curve"/>
      <point x="199" y="821"/>
      <point x="200" y="821"/>
      <point x="201" y="820" type="curve"/>
    </contour>
    <contour>
      <point x="357" y="248" type="line"/>
      <point x="217" y="248" type="line"/>
      <point x="285" y="482" type="line"/>
    </contour>
    <contour>
      <point x="224" y="24" type="line"/>
      <point x="160" y="56" type="line"/>
      <point x="200" y="192" type="line"/>
      <point x="374" y="192" type="line"/>
      <point x="416" y="56" type="line"/>
      <point x="352" y="24" type="line"/>
      <point x="352" y="0" type="line"/>
      <point x="592" y="0" type="line"/>
      <point x="592" y="24" type="line"/>
      <point x="528" y="56" type="line"/>
      <point x="320" y="704" type="line"/>
      <point x="280" y="704" type="line"/>
      <point x="232" y="656" type="line"/>
      <point x="249" y="601" type="line"/>
      <point x="80" y="56" type="line"/>
      <point x="16" y="24" type="line"/>
      <point x="16" y="0" type="line"/>
      <point x="224" y="0" type="line"/>
    </contour>
  </outline>
</glyph>
<glyph name="Aacute" format="1">
  <advance width="608"/>
  <unicode hex="00C1"/>
  <outline>
    <contour>
      <point x="232" y="736" type="line"/>
      <point x="415" y="821" type="line"/>
      <point x="435" y="829"/>
      <point x="448" y="848"/>
      <point x="448" y="872" type="curve" smooth="yes"/>
      <point x="448" y="904"/>
      <point x="424" y="928"/>
      <point x="392" y="928" type="curve" smooth="yes"/>
      <point x="376" y="928"/>
      <point x="362" y="922"/>
      <point x="352" y="912" type="curve" smooth="yes"/>
      <point x="208" y="768" type="line"/>
    </contour>
    <contour>
      <point x="357" y="248" type="line"/>
      <point x="217" y="248" type="line"/>
      <point x="285" y="482" type="line"/>
    </contour>
    <contour>
      <point x="224" y="24" type="line"/>
      <point x="160" y="56" type="line"/>
      <point x="200" y="192" type="line"/>
      <point x="374" y="192" type="line"/>
      <point x="416" y="56" type="line"/>
      <point x="352" y="24" type="line"/>
      <point x="352" y="0" type="line"/>
      <point x="592" y="0" type="line"/>
      <point x="592" y="24" type="line"/>
      <point x="528" y="56" type="line"/>
      <point x="320" y="704" type="line"/>
      <point x="280" y="704" type="line"/>
      <point x="232" y="656" type="line"/>
      <point x="249" y="601" type="line"/>
      <point x="80" y="56" type="line"/>
      <point x="16" y="24" type="line"/>
      <point x="16" y="0" type="line"/>
      <point x="224" y="0" type="line"/>
    </contour>
  </outline>
</glyph>
<glyph name="Acircumflex" format="1">
  <advance width="608"/>
  <unicode hex="00C2"/>
  <outline>
    <contour>
      <point x="160" y="736" type="line"/>
      <point x="304" y="880" type="line"/>
      <point x="448" y="736" type="line"/>
      <point x="480" y="768" type="line"/>
      <point x="336" y="960" type="line"/>
      <point x="272" y="960" type="line"/>
      <point x="128" y="768" type="line"/>
    </contour>
    <contour>
      <point x="357" y="248" type="line"/>
      <point x="217" y="248" type="line"/>
      <point x="285" y="482" type="line"/>
    </contour>
    <contour>
      <point x="224" y="24" type="line"/>
      <point x="160" y="56" type="line"/>
      <point x="200" y="192" type="line"/>
      <point x="374" y="192" type="line"/>
      <point x="416" y="56" type="line"/>
      <point x="352" y="24" type="line"/>
      <point x="352" y="0" type="line"/>
      <point x="592" y="0" type="line"/>
      <point x="592" y="24" type="line"/>
      <point x="528" y="56" type="line"/>
      <point x="320" y="704" type="line"/>
      <point x="280" y="704" type="line"/>
      <point x="232" y="656" type="line"/>
      <point x="249" y="601" type="line"/>
      <point x="80" y="56" type="line"/>
      <point x="16" y="24" type="line"/>
      <point x="16" y="0" type="line"/>
      <point x="224" y="0" type="line"/>
    </contour>
  </outline>
</glyph>
<glyph name="Aring" format="1">
  <advance width="608"/>
  <unicode hex="00C5"/>
  <outline>
    <contour>
      <point x="160" y="880" type="curve" smooth="yes"/>
      <point x="160" y="802"/>
      <point x="226" y="736"/>
      <point x="304" y="736" type="curve" smooth="yes"/>
      <point x="384" y="736"/>
      <point x="448" y="802"/>
      <point x="448" y="880" type="curve" smooth="yes"/>
      <point x="448" y="958"/>
      <point x="384" y="1024"/>
      <point x="304" y="1024" type="curve" smooth="yes"/>
      <point x="226" y="1024"/>
      <point x="160" y="958"/>
    </contour>
    <contour>
      <point x="224" y="880" type="curve" smooth="yes"/>
      <point x="224" y="924"/>
      <point x="260" y="960"/>
      <point x="304" y="960" type="curve" smooth="yes"/>
      <point x="348" y="960"/>
      <point x="384" y="924"/>
      <point x="384" y="880" type="curve" smooth="yes"/>
      <point x="384" y="836"/>
      <point x="348" y="800"/>
      <point x="304" y="800" type="curve" smooth="yes"/>
      <point x="260" y="800"/>
      <point x="224" y="836"/>
    </contour>
    <contour>
      <point x="357" y="248" type="line"/>
      <point x="217" y="248" type="line"/>
      <point x="285" y="482" type="line"/>
    </contour>
    <contour>
      <point x="224" y="24" type="line"/>
      <point x="160" y="56" type="line"/>
      <point x="200" y="192" type="line"/>
      <point x="374" y="192" type="line"/>
      <point x="416" y="56" type="line"/>
      <point x="352" y="24" type="line"/>
      <point x="352" y="0" type="line"/>
      <point x="592" y="0" type="line"/>
      <point x="592" y="24" type="line"/>
      <point x="528" y="56" type="line"/>
      <point x="320" y="704" type="line"/>
      <point x="280" y="704" type="line"/>
      <point x="232" y="656" type="line"/>
      <point x="249" y="601" type="line"/>
      <point x="80" y="56" type="line"/>
      <point x="16" y="24" type="line"/>
      <point x="16" y="0" type="line"/>
      <point x="224" y="0" type="line"/>
    </contour>
  </outline>
</glyph>
<glyph name="Ccedilla" format="1">
  <advance width="608"/>
  <unicode hex="00C7"/>
  <outline>
    <contour>
      <point x="328" y="-222" type="curve" smooth="yes"/>
      <point x="400" y="-222"/>
      <point x="438" y="-188"/>
      <point x="438" y="-136" type="curve" smooth="yes"/>
      <point x="438" y="-88"/>
      <point x="404" y="-54"/>
      <point x="352" y="-54" type="curve" smooth="yes"/>
      <point x="344" y="-54"/>
      <point x="332" y="-54"/>
      <point x="316" y="-56" type="curve"/>
      <point x="316" y="-15" type="line"/>
      <point x="432" y="-4"/>
      <point x="504" y="105"/>
      <point x="504" y="256" type="curve"/>
      <point x="472" y="256" type="line"/>
      <point x="464" y="128"/>
      <point x="408" y="64"/>
      <point x="312" y="64" type="curve" smooth="yes"/>
      <point x="232" y="64"/>
      <point x="136" y="176"/>
      <point x="136" y="352" type="curve" smooth="yes"/>
      <point x="136" y="528"/>
      <point x="192" y="656"/>
      <point x="296" y="656" type="curve" smooth="yes"/>
      <point x="374" y="656"/>
      <point x="440" y="600"/>
      <point x="456" y="480" type="curve"/>
      <point x="488" y="480" type="line"/>
      <point x="488" y="704" type="line"/>
      <point x="456" y="704" type="line"/>
      <point x="420" y="668" type="line"/>
      <point x="390" y="701"/>
      <point x="349" y="720"/>
      <point x="296" y="720" type="curve" smooth="yes"/>
      <point x="144" y="720"/>
      <point x="24" y="560"/>
      <point x="24" y="352" type="curve" smooth="yes"/>
      <point x="24" y="149"/>
      <point x="139" y="-9"/>
      <point x="286" y="-16" type="curve"/>
      <point x="286" y="-96" type="line"/>
      <point x="302" y="-94"/>
      <point x="312" y="-94"/>
      <point x="318" y="-94" type="curve" smooth="yes"/>
      <point x="350" y="-94"/>
      <point x="368" y="-110"/>
      <point x="368" y="-136" type="curve" smooth="yes"/>
      <point x="368" y="-164"/>
      <point x="352" y="-180"/>
      <point x="314" y="-180" type="curve" smooth="yes"/>
      <point x="284" y="-180"/>
      <point x="242" y="-168"/>
      <point x="200" y="-142" type="curve"/>
      <point x="182" y="-186" type="line"/>
      <point x="240" y="-208"/>
      <point x="288" y="-222"/>
    </contour>
  </outline>
</glyph>
<glyph name="Edieresis" format="1">
  <advance width="608"/>
  <unicode hex="00CB"/>
  <outline>
    <contour>
      <point x="416" y="864" type="curve" smooth="yes"/>
      <point x="380" y="864"/>
      <point x="352" y="836"/>
      <point x="352" y="800" type="curve" smooth="yes"/>
      <point x="352" y="764"/>
      <point x="380" y="736"/>
      <point x="416" y="736" type="curve" smooth="yes"/>
      <point x="452" y="736"/>
      <point x="480" y="764"/>
      <point x="480" y="800" type="curve" smooth="yes"/>
      <point x="480" y="836"/>
      <point x="452" y="864"/>
    </contour>
    <contour>
      <point x="192" y="864" type="curve" smooth="yes"/>
      <point x="156" y="864"/>
      <point x="128" y="836"/>
      <point x="128" y="800" type="curve" smooth="yes"/>
      <point x="128" y="764"/>
      <point x="156" y="736"/>
      <point x="192" y="736" type="curve" smooth="yes"/>
      <point x="228" y="736"/>
      <point x="256" y="764"/>
      <point x="256" y="800" type="curve" smooth="yes"/>
      <point x="256" y="836"/>
      <point x="228" y="864"/>
    </contour>
    <contour>
      <point x="560" y="256" type="line"/>
      <point x="528" y="256" type="line"/>
      <point x="428" y="56" type="line"/>
      <point x="240" y="56" type="line"/>
      <point x="240" y="352" type="line"/>
      <point x="344" y="352" type="line"/>
      <point x="384" y="272" type="line"/>
      <point x="416" y="272" type="line"/>
      <point x="416" y="488" type="line"/>
      <point x="384" y="488" type="line"/>
      <point x="344" y="408" type="line"/>
      <point x="240" y="408" type="line"/>
      <point x="240" y="648" type="line"/>
      <point x="428" y="648" type="line"/>
      <point x="496" y="512" type="line"/>
      <point x="528" y="512" type="line"/>
      <point x="496" y="704" type="line"/>
      <point x="80" y="704" type="line"/>
      <point x="80" y="680" type="line"/>
      <point x="144" y="648" type="line"/>
      <point x="144" y="56" type="line"/>
      <point x="80" y="24" type="line"/>
      <point x="80" y="0" type="line"/>
      <point x="528" y="0" type="line"/>
    </contour>
  </outline>
</glyph>
<glyph name="Iacute" format="1">
  <advance width="608"/>
  <unicode hex="00CD"/>
  <outline>
    <contour>
      <point x="232" y="736" type="line"/>
      <point x="415" y="821" type="line"/>
      <point x="435" y="829"/>
      <point x="448" y="848"/>
      <point x="448" y="872" type="curve" smooth="yes"/>
      <point x="448" y="904"/>
      <point x="424" y="928"/>
      <point x="392" y="928" type="curve" smooth="yes"/>
      <point x="376" y="928"/>
      <point x="362" y="922"/>
      <point x="352" y="912" type="curve" smooth="yes"/>
      <point x="208" y="768" type="line"/>
    </contour>
    <contour>
      <point x="448" y="24" type="line"/>
      <point x="352" y="56" type="line"/>
      <point x="352" y="648" type="line"/>
      <point x="448" y="680" type="line"/>
      <point x="448" y="704" type="line"/>
      <point x="160" y="704" type="line"/>
      <point x="160" y="680" type="line"/>
      <point x="256" y="648" type="line"/>
      <point x="256" y="56" type="line"/>
      <point x="160" y="24" type="line"/>
      <point x="160" y="0" type="line"/>
      <point x="448" y="0" type="line"/>
    </contour>
  </outline>
</glyph>
<glyph name="Idieresis" format="1">
  <advance width="608"/>
  <unicode hex="00CF"/>
  <outline>
    <contour>
      <point x="416" y="864" type="curve" smooth="yes"/>
      <point x="380" y="864"/>
      <point x="352" y="836"/>
      <point x="352" y="800" type="curve" smooth="yes"/>
      <point x="352" y="764"/>
      <point x="380" y="736"/>
      <point x="416" y="736" type="curve" smooth="yes"/>
      <point x="452" y="736"/>
      <point x="480" y="764"/>
      <point x="480" y="800" type="curve" smooth="yes"/>
      <point x="480" y="836"/>
      <point x="452" y="864"/>
    </contour>
    <contour>
      <point x="192" y="864" type="curve" smooth="yes"/>
      <point x="156" y="864"/>
      <point x="128" y="836"/>
      <point x="128" y="800" type="curve" smooth="yes"/>
      <point x="128" y="764"/>
      <point x="156" y="736"/>
      <point x="192" y="736" type="curve" smooth="yes"/>
      <point x="228" y="736"/>
      <point x="256" y="764"/>
      <point x="256" y="800" type="curve" smooth="yes"/>
      <point x="256" y="836"/>
      <point x="228" y="864"/>
    </contour>
    <contour>
      <point x="448" y="24" type="line"/>
      <point x="352" y="56" type="line"/>
      <point x="352" y="648" type="line"/>
      <point x="448" y="680" type="line"/>
      <point x="448" y="704" type="line"/>
      <point x="160" y="704" type="line"/>
      <point x="160" y="680" type="line"/>
      <point x="256" y="648" type="line"/>
      <point x="256" y="56" type="line"/>
      <point x="160" y="24" type="line"/>
      <point x="160" y="0" type="line"/>
      <point x="448" y="0" type="line"/>
    </contour>
  </outline>
</glyph>
<glyph name="Ntilde" format="1">
  <advance width="608"/>
  <unicode hex="00D1"/>
  <outline>
    <contour>
      <point x="96" y="768" type="line"/>
      <point x="128" y="792"/>
      <point x="160" y="816"/>
      <point x="208" y="816" type="curve" smooth="yes"/>
      <point x="256" y="816"/>
      <point x="336" y="736"/>
      <point x="400" y="736" type="curve" smooth="yes"/>
      <point x="464" y="736"/>
      <point x="512" y="776"/>
      <point x="544" y="800" type="curve"/>
      <point x="512" y="864" type="line"/>
      <point x="480" y="840"/>
      <point x="448" y="816"/>
      <point x="400" y="816" type="curve" smooth="yes"/>
      <point x="352" y="816"/>
      <point x="272" y="896"/>
      <point x="208" y="896" type="curve" smooth="yes"/>
      <point x="144" y="896"/>
      <point x="96" y="856"/>
      <point x="64" y="832" type="curve"/>
    </contour>
    <contour>
      <point x="224" y="24" type="line"/>
      <point x="160" y="56" type="line"/>
      <point x="160" y="465" type="line"/>
      <point x="436" y="0" type="line"/>
      <point x="512" y="0" type="line"/>
      <point x="512" y="648" type="line"/>
      <point x="576" y="680" type="line"/>
      <point x="576" y="704" type="line"/>
      <point x="384" y="704" type="line"/>
      <point x="384" y="680" type="line"/>
      <point x="448" y="648" type="line"/>
      <point x="448" y="186" type="line"/>
      <point x="128" y="704" type="line"/>
      <point x="32" y="704" type="line"/>
      <point x="32" y="680" type="line"/>
      <point x="96" y="572" type="line"/>
      <point x="96" y="56" type="line"/>
      <point x="32" y="24" type="line"/>
      <point x="32" y="0" type="line"/>
      <point x="224" y="0" type="line"/>
    </contour>
  </outline>
</glyph>
<glyph name="Ograve" format="1">
  <advance width="608"/>
  <unicode hex="00D2"/>
  <outline>
    <contour>
      <point x="384" y="736" type="line"/>
      <point x="408" y="768" type="line"/>
      <point x="264" y="912" type="line" smooth="yes"/>
      <point x="254" y="922"/>
      <point x="240" y="928"/>
      <point x="224" y="928" type="curve" smooth="yes"/>
      <point x="192" y="928"/>
      <point x="168" y="904"/>
      <point x="168" y="872" type="curve" smooth="yes"/>
      <point x="168" y="850"/>
      <point x="180" y="831"/>
      <point x="198" y="822" type="curve"/>
      <point x="199" y="821"/>
      <point x="200" y="821"/>
      <point x="201" y="820" type="curve"/>
    </contour>
    <contour>
      <point x="64" y="352" type="curve" smooth="yes"/>
      <point x="64" y="128"/>
      <point x="152" y="-16"/>
      <point x="304" y="-16" type="curve" smooth="yes"/>
      <point x="456" y="-16"/>
      <point x="544" y="128"/>
      <point x="544" y="352" type="curve" smooth="yes"/>
      <point x="544" y="576"/>
      <point x="456" y="720"/>
      <point x="304" y="720" type="curve" smooth="yes"/>
      <point x="152" y="720"/>
      <point x="64" y="576"/>
    </contour>
    <contour>
      <point x="304" y="664" type="curve" smooth="yes"/>
      <point x="408" y="664"/>
      <point x="432" y="544"/>
      <point x="432" y="352" type="curve" smooth="yes"/>
      <point x="432" y="160"/>
      <point x="408" y="40"/>
      <point x="304" y="40" type="curve" smooth="yes"/>
      <point x="200" y="40"/>
      <point x="176" y="160"/>
      <point x="176" y="352" type="curve" smooth="yes"/>
      <point x="176" y="544"/>
      <point x="200" y="664"/>
    </contour>
  </outline>
</glyph>
<glyph name="Ocircumflex" format="1">
  <advance width="608"/>
  <unicode hex="00D4"/>
  <outline>
    <contour>
      <point x="160" y="736" type="line"/>
      <point x="304" y="880" type="line"/>
      <point x="448" y="736" type="line"/>
      <point x="480" y="768" type="line"/>
      <point x="336" y="960" type="line"/>
      <point x="272" y="960" type="line"/>
      <point x="128" y="768" type="line"/>
    </contour>
    <contour>
      <point x="64" y="352" type="curve" smooth="yes"/>
      <point x="64" y="128"/>
      <point x="152" y="-16"/>
      <point x="304" y="-16" type="curve" smooth="yes"/>
      <point x="456" y="-16"/>
      <point x="544" y="128"/>
      <point x="544" y="352" type="curve" smooth="yes"/>
      <point x="544" y="576"/>
      <point x="456" y="720"/>
      <point x="304" y="720" type="curve" smooth="yes"/>
      <point x="152" y="720"/>
      <point x="64" y="576"/>
    </contour>
    <contour>
      <point x="304" y="664" type="curve" smooth="yes"/>
      <point x="408" y="664"/>
      <point x="432" y="544"/>
      <point x="432" y="352" type="curve" smooth="yes"/>
      <point x="432" y="160"/>
      <point x="408" y="40"/>
      <point x="304" y="40" type="curve" smooth="yes"/>
      <point x="200" y="40"/>
      <point x="176" y="160"/>
      <point x="176" y="352" type="curve" smooth="yes"/>
      <point x="176" y="544"/>
      <point x="200" y="664"/>
    </contour>
  </outline>
</glyph>
<glyph name="multiply" format="1">
  <advance width="602"/>
  <unicode hex="00D7"/>
  <outline>
    <contour>
      <point x="448" y="64" type="line"/>
      <point x="492" y="108" type="line"/>
      <point x="344" y="256" type="line"/>
      <point x="492" y="404" type="line"/>
      <point x="448" y="448" type="line"/>
      <point x="300" y="300" type="line"/>
      <point x="152" y="448" type="line"/>
      <point x="108" y="404" type="line"/>
      <point x="256" y="256" type="line"/>
      <point x="108" y="108" type="line"/>
      <point x="152" y="64" type="line"/>
      <point x="300" y="212" type="line"/>
    </contour>
  </outline>
</glyph>
<glyph name="Thorn" format="1">
  <advance width="602"/>
  <unicode hex="00DE"/>
  <outline>
    <contour>
      <point x="256" y="504" type="line" smooth="yes"/>
      <point x="320" y="504"/>
      <point x="392" y="464"/>
      <point x="392" y="360" type="curve" smooth="yes"/>
      <point x="392" y="256"/>
      <point x="320" y="216"/>
      <point x="256" y="216" type="curve" smooth="yes"/>
      <point x="184" y="216" type="line"/>
      <point x="184" y="504" type="line"/>
    </contour>
    <contour>
      <point x="248" y="24" type="line"/>
      <point x="184" y="56" type="line"/>
      <point x="184" y="160" type="line"/>
      <point x="288" y="160" type="line" smooth="yes"/>
      <point x="384" y="160"/>
      <point x="496" y="224"/>
      <point x="496" y="360" type="curve" smooth="yes"/>
      <point x="496" y="496"/>
      <point x="384" y="560"/>
      <point x="288" y="560" type="curve" smooth="yes"/>
      <point x="184" y="560" type="line"/>
      <point x="184" y="648" type="line"/>
      <point x="248" y="680" type="line"/>
      <point x="248" y="704" type="line"/>
      <point x="24" y="704" type="line"/>
      <point x="24" y="680" type="line"/>
      <point x="88" y="648" type="line"/>
      <point x="88" y="56" type="line"/>
      <point x="24" y="24" type="line"/>
      <point x="24" y="0" type="line"/>
      <point x="248" y="0" type="line"/>
    </contour>
  </outline>
</glyph>
<glyph name="germandbls" format="1">
  <advance width="608"/>
  <unicode hex="00DF"/>
  <outline>
    <contour>
      <point x="370" y="-16" type="curve" smooth="yes"/>
      <point x="486" y="-16"/>
      <point x="544" y="62"/>
      <point x="544" y="160" type="curve" smooth="yes"/>
      <point x="544" y="275"/>
      <point x="463" y="362"/>
      <point x="361" y="386" type="curve"/>
      <point x="437" y="413"/>
      <point x="480" y="492"/>
      <point x="480" y="544" type="curve" smooth="yes"/>
      <point x="480" y="656"/>
      <point x="392" y="720"/>
      <point x="288" y="720" type="curve" smooth="yes"/>
      <point x="176" y="720"/>
      <point x="96" y="632"/>
      <point x="96" y="528" type="curve" smooth="yes"/>
      <point x="96" y="56" type="line"/>
      <point x="32" y="24" type="line"/>
      <point x="32" y="0" type="line"/>
      <point x="192" y="0" type="line"/>
      <point x="192" y="568" type="line" smooth="yes"/>
      <point x="192" y="608"/>
      <point x="208" y="672"/>
      <point x="288" y="672" type="curve" smooth="yes"/>
      <point x="368" y="672"/>
      <point x="384" y="608"/>
      <point x="384" y="568" type="curve" smooth="yes"/>
      <point x="384" y="480"/>
      <point x="336" y="416"/>
      <point x="288" y="416" type="curve" smooth="yes"/>
      <point x="256" y="416" type="line"/>
      <point x="256" y="360" type="line"/>
      <point x="272" y="360" type="line" smooth="yes"/>
      <point x="352" y="360"/>
      <point x="448" y="264"/>
      <point x="448" y="160" type="curve" smooth="yes"/>
      <point x="448" y="64"/>
      <point x="418" y="32"/>
      <point x="386" y="32" type="curve" smooth="yes"/>
      <point x="370" y="32"/>
      <point x="354" y="32"/>
      <point x="354" y="72" type="curve" smooth="yes"/>
      <point x="354" y="104"/>
      <point x="330" y="128"/>
      <point x="298" y="128" type="curve" smooth="yes"/>
      <point x="266" y="128"/>
      <point x="242" y="104"/>
      <point x="242" y="72" type="curve" smooth="yes"/>
      <point x="242" y="0"/>
      <point x="330" y="-14"/>
    </contour>
  </outline>
</glyph>
<glyph name="agrave" format="1">
  <advance width="608"/>
  <unicode hex="00E0"/>
  <outline>
    <contour>
      <point x="376" y="528" type="line"/>
      <point x="400" y="560" type="line"/>
      <point x="256" y="704" type="line" smooth="yes"/>
      <point x="246" y="714"/>
      <point x="232" y="720"/>
      <point x="216" y="720" type="curve" smooth="yes"/>
      <point x="184" y="720"/>
      <point x="160" y="696"/>
      <point x="160" y="664" type="curve" smooth="yes"/>
      <point x="160" y="642"/>
      <point x="172" y="623"/>
      <point x="190" y="614" type="curve"/>
      <point x="191" y="613"/>
      <point x="192" y="613"/>
      <point x="193" y="612" type="curve"/>
    </contour>
    <contour>
      <point x="288" y="38" type="curve" smooth="yes"/>
      <point x="224" y="38"/>
      <point x="212" y="96"/>
      <point x="212" y="128" type="curve" smooth="yes"/>
      <point x="212" y="192"/>
      <point x="244" y="240"/>
      <point x="352" y="240" type="curve" smooth="yes"/>
      <point x="388" y="240" type="line"/>
      <point x="388" y="104" type="line"/>
      <point x="352" y="68"/>
      <point x="316" y="38"/>
    </contour>
    <contour>
      <point x="390" y="48" type="curve" smooth="yes"/>
      <point x="400" y="58" type="line"/>
      <point x="400" y="0" type="line"/>
      <point x="544" y="0" type="line"/>
      <point x="544" y="24" type="line"/>
      <point x="480" y="56" type="line"/>
      <point x="480" y="320" type="line" smooth="yes"/>
      <point x="480" y="432"/>
      <point x="432" y="496"/>
      <point x="296" y="496" type="curve" smooth="yes"/>
      <point x="198" y="496"/>
      <point x="130" y="434"/>
      <point x="128" y="370" type="curve"/>
      <point x="128" y="369"/>
      <point x="128" y="369"/>
      <point x="128" y="369" type="curve"/>
      <point x="128" y="369"/>
      <point x="128" y="369"/>
      <point x="128" y="368" type="curve" smooth="yes"/>
      <point x="128" y="336"/>
      <point x="152" y="312"/>
      <point x="184" y="312" type="curve" smooth="yes"/>
      <point x="216" y="312"/>
      <point x="240" y="336"/>
      <point x="240" y="368" type="curve" smooth="yes"/>
      <point x="240" y="384"/>
      <point x="234" y="398"/>
      <point x="224" y="408" type="curve"/>
      <point x="216" y="424"/>
      <point x="240" y="448"/>
      <point x="296" y="448" type="curve" smooth="yes"/>
      <point x="368" y="448"/>
      <point x="388" y="400"/>
      <point x="388" y="352" type="curve" smooth="yes"/>
      <point x="388" y="288" type="line"/>
      <point x="352" y="288" type="line" smooth="yes"/>
      <point x="204" y="288"/>
      <point x="108" y="224"/>
      <point x="108" y="128" type="curve" smooth="yes"/>
      <point x="108" y="56"/>
      <point x="160" y="-16"/>
      <point x="272" y="-16" type="curve" smooth="yes"/>
      <point x="312" y="-16"/>
      <point x="342" y="0"/>
    </contour>
  </outline>
</glyph>
<glyph name="acircumflex" format="1">
  <advance width="608"/>
  <unicode hex="00E2"/>
  <outline>
    <contour>
      <point x="160" y="480" type="line"/>
      <point x="304" y="624" type="line"/>
      <point x="448" y="480" type="line"/>
      <point x="480" y="512" type="line"/>
      <point x="336" y="704" type="line"/>
      <point x="272" y="704" type="line"/>
      <point x="128" y="512" type="line"/>
    </contour>
    <contour>
      <point x="288" y="38" type="curve" smooth="yes"/>
      <point x="224" y="38"/>
      <point x="212" y="96"/>
      <point x="212" y="128" type="curve" smooth="yes"/>
      <point x="212" y="192"/>
      <point x="244" y="240"/>
      <point x="352" y="240" type="curve" smooth="yes"/>
      <point x="388" y="240" type="line"/>
      <point x="388" y="104" type="line"/>
      <point x="352" y="68"/>
      <point x="316" y="38"/>
    </contour>
    <contour>
      <point x="390" y="48" type="curve" smooth="yes"/>
      <point x="400" y="58" type="line"/>
      <point x="400" y="0" type="line"/>
      <point x="544" y="0" type="line"/>
      <point x="544" y="24" type="line"/>
      <point x="480" y="56" type="line"/>
      <point x="480" y="320" type="line" smooth="yes"/>
      <point x="480" y="432"/>
      <point x="432" y="496"/>
      <point x="296" y="496" type="curve" smooth="yes"/>
      <point x="198" y="496"/>
      <point x="130" y="434"/>
      <point x="128" y="370" type="curve"/>
      <point x="128" y="369"/>
      <point x="128" y="369"/>
      <point x="128" y="369" type="curve"/>
      <point x="128" y="369"/>
      <point x="128" y="369"/>
      <point x="128" y="368" type="curve" smooth="yes"/>
      <point x="128" y="336"/>
      <point x="152" y="312"/>
      <point x="184" y="312" type="curve" smooth="yes"/>
      <point x="216" y="312"/>
      <point x="240" y="336"/>
      <point x="240" y="368" type="curve" smooth="yes"/>
      <point x="240" y="384"/>
      <point x="234" y="398"/>
      <point x="224" y="408" type="curve"/>
      <point x="216" y="424"/>
      <point x="240" y="448"/>
      <point x="296" y="448" type="curve" smooth="yes"/>
      <point x="368" y="448"/>
      <point x="388" y="400"/>
      <point x="388" y="352" type="curve" smooth="yes"/>
      <point x="388" y="288" type="line"/>
      <point x="352" y="288" type="line" smooth="yes"/>
      <point x="204" y="288"/>
      <point x="108" y="224"/>
      <point x="108" y="128" type="curve" smooth="yes"/>
      <point x="108" y="56"/>
      <point x="160" y="-16"/>
      <point x="272" y="-16" type="curve" smooth="yes"/>
      <point x="312" y="-16"/>
      <point x="342" y="0"/>
    </contour>
  </outline>
</glyph>
<glyph name="ae" format="1">
  <advance width="608"/>
  <unicode hex="00E6"/>
  <outline>
    <contour>
      <point x="422" y="448" type="curve" smooth="yes"/>
      <point x="474" y="448"/>
      <point x="500" y="368"/>
      <point x="500" y="288" type="curve"/>
      <point x="341" y="288" type="line"/>
      <point x="348" y="398"/>
      <point x="378" y="448"/>
    </contour>
    <contour>
      <point x="564" y="112" type="curve"/>
      <point x="538" y="128" type="line"/>
      <point x="524" y="96"/>
      <point x="500" y="48"/>
      <point x="442" y="48" type="curve" smooth="yes"/>
      <point x="390" y="48"/>
      <point x="340" y="96"/>
      <point x="340" y="240" type="curve"/>
      <point x="576" y="240" type="line"/>
      <point x="576" y="376"/>
      <point x="538" y="496"/>
      <point x="422" y="496" type="curve" smooth="yes"/>
      <point x="374" y="496"/>
      <point x="335" y="472"/>
      <point x="308" y="433" type="curve"/>
      <point x="285" y="474"/>
      <point x="245" y="496"/>
      <point x="182" y="496" type="curve" smooth="yes"/>
      <point x="102" y="496"/>
      <point x="48" y="432"/>
      <point x="48" y="368" type="curve" smooth="yes"/>
      <point x="48" y="336"/>
      <point x="66" y="312"/>
      <point x="92" y="312" type="curve" smooth="yes"/>
      <point x="118" y="312"/>
      <point x="138" y="336"/>
      <point x="138" y="368" type="curve" smooth="yes"/>
      <point x="138" y="385"/>
      <point x="133" y="399"/>
      <point x="124" y="409" type="curve"/>
      <point x="118" y="424"/>
      <point x="138" y="448"/>
      <point x="182" y="448" type="curve" smooth="yes"/>
      <point x="240" y="448"/>
      <point x="256" y="400"/>
      <point x="256" y="352" type="curve" smooth="yes"/>
      <point x="256" y="288" type="line"/>
      <point x="226" y="288" type="line" smooth="yes"/>
      <point x="108" y="288"/>
      <point x="32" y="224"/>
      <point x="32" y="128" type="curve" smooth="yes"/>
      <point x="32" y="56"/>
      <point x="74" y="-16"/>
      <point x="162" y="-16" type="curve" smooth="yes"/>
      <point x="194" y="-16"/>
      <point x="218" y="0"/>
      <point x="258" y="48" type="curve" smooth="yes"/>
      <point x="287" y="84" type="line"/>
      <point x="314" y="24"/>
      <point x="360" y="-16"/>
      <point x="422" y="-16" type="curve" smooth="yes"/>
      <point x="524" y="-16"/>
      <point x="550" y="80"/>
    </contour>
    <contour>
      <point x="176" y="38" type="curve" smooth="yes"/>
      <point x="124" y="38"/>
      <point x="114" y="96"/>
      <point x="114" y="128" type="curve" smooth="yes"/>
      <point x="114" y="192"/>
      <point x="140" y="240"/>
      <point x="226" y="240" type="curve" smooth="yes"/>
      <point x="256" y="240" type="line"/>
      <point x="256" y="104" type="line"/>
      <point x="226" y="68"/>
      <point x="198" y="38"/>
    </contour>
  </outline>
</glyph>
<glyph name="egrave" format="1">
  <advance width="608"/>
  <unicode hex="00E8"/>
  <outline>
    <contour>
      <point x="376" y="528" type="line"/>
      <point x="400" y="560" type="line"/>
      <point x="256" y="704" type="line" smooth="yes"/>
      <point x="246" y="714"/>
      <point x="232" y="720"/>
      <point x="216" y="720" type="curve" smooth="yes"/>
      <point x="184" y="720"/>
      <point x="160" y="696"/>
      <point x="160" y="664" type="curve" smooth="yes"/>
      <point x="160" y="642"/>
      <point x="172" y="623"/>
      <point x="190" y="614" type="curve"/>
      <point x="191" y="613"/>
      <point x="192" y="613"/>
      <point x="193" y="612" type="curve"/>
    </contour>
    <contour>
      <point x="312" y="448" type="curve" smooth="yes"/>
      <point x="376" y="448"/>
      <point x="408" y="368"/>
      <point x="408" y="304" type="curve"/>
      <point x="211" y="304" type="line"/>
      <point x="222" y="403"/>
      <point x="258" y="448"/>
    </contour>
    <contour>
      <point x="488" y="112" type="curve"/>
      <point x="456" y="128" type="line"/>
      <point x="440" y="96"/>
      <point x="408" y="48"/>
      <point x="336" y="48" type="curve" smooth="yes"/>
      <point x="272" y="48"/>
      <point x="208" y="96"/>
      <point x="208" y="240" type="curve" smooth="yes"/>
      <point x="208" y="246"/>
      <point x="208" y="251"/>
      <point x="208" y="256" type="curve"/>
      <point x="504" y="256" type="line"/>
      <point x="504" y="376"/>
      <point x="456" y="496"/>
      <point x="312" y="496" type="curve" smooth="yes"/>
      <point x="176" y="496"/>
      <point x="104" y="376"/>
      <point x="104" y="240" type="curve" smooth="yes"/>
      <point x="104" y="104"/>
      <point x="176" y="-16"/>
      <point x="312" y="-16" type="curve" smooth="yes"/>
      <point x="440" y="-16"/>
      <point x="472" y="80"/>
    </contour>
  </outline>
</glyph>
<glyph name="ecircumflex" format="1">
  <advance width="608"/>
  <unicode hex="00EA"/>
  <outline>
    <contour>
      <point x="160" y="528" type="line"/>
      <point x="304" y="672" type="line"/>
      <point x="448" y="528" type="line"/>
      <point x="480" y="560" type="line"/>
      <point x="336" y="752" type="line"/>
      <point x="272" y="752" type="line"/>
      <point x="128" y="560" type="line"/>
    </contour>
    <contour>
      <point x="312" y="448" type="curve" smooth="yes"/>
      <point x="376" y="448"/>
      <point x="408" y="368"/>
      <point x="408" y="304" type="curve"/>
      <point x="211" y="304" type="line"/>
      <point x="222" y="403"/>
      <point x="258" y="448"/>
    </contour>
    <contour>
      <point x="488" y="112" type="curve"/>
      <point x="456" y="128" type="line"/>
      <point x="440" y="96"/>
      <point x="408" y="48"/>
      <point x="336" y="48" type="curve" smooth="yes"/>
      <point x="272" y="48"/>
      <point x="208" y="96"/>
      <point x="208" y="240" type="curve" smooth="yes"/>
      <point x="208" y="246"/>
      <point x="208" y="251"/>
      <point x="208" y="256" type="curve"/>
      <point x="504" y="256" type="line"/>
      <point x="504" y="376"/>
      <point x="456" y="496"/>
      <point x="312" y="496" type="curve" smooth="yes"/>
      <point x="176" y="496"/>
      <point x="104" y="376"/>
      <point x="104" y="240" type="curve" smooth="yes"/>
      <point x="104" y="104"/>
      <point x="176" y="-16"/>
      <point x="312" y="-16" type="curve" smooth="yes"/>
      <point x="440" y="-16"/>
      <point x="472" y="80"/>
    </contour>
  </outline>
</glyph>
<glyph name="edieresis" format="1">
  <advance width="608"/>
  <unicode hex="00EB"/>
  <outline>
    <contour>
      <point x="192" y="704" type="curve" smooth="yes"/>
      <point x="156" y="704"/>
      <point x="128" y="676"/>
      <point x="128" y="640" type="curve" smooth="yes"/>
      <point x="128" y="604"/>
      <point x="156" y="576"/>
      <point x="192" y="576" type="curve" smooth="yes"/>
      <point x="228" y="576"/>
      <point x="256" y="604"/>
      <point x="256" y="640" type="curve" smooth="yes"/>
      <point x="256" y="676"/>
      <point x="228" y="704"/>
    </contour>
    <contour>
      <point x="416" y="704" type="curve" smooth="yes"/>
      <point x="380" y="704"/>
      <point x="352" y="676"/>
      <point x="352" y="640" type="curve" smooth="yes"/>
      <point x="352" y="604"/>
      <point x="380" y="576"/>
      <point x="416" y="576" type="curve" smooth="yes"/>
      <point x="452" y="576"/>
      <point x="480" y="604"/>
      <point x="480" y="640" type="curve" smooth="yes"/>
      <point x="480" y="676"/>
      <point x="452" y="704"/>
    </contour>
    <contour>
      <point x="312" y="448" type="curve" smooth="yes"/>
      <point x="376" y="448"/>
      <point x="408" y="368"/>
      <point x="408" y="304" type="curve"/>
      <point x="211" y="304" type="line"/>
      <point x="222" y="403"/>
      <point x="258" y="448"/>
    </contour>
    <contour>
      <point x="488" y="112" type="curve"/>
      <point x="456" y="128" type="line"/>
      <point x="440" y="96"/>
      <point x="408" y="48"/>
      <point x="336" y="48" type="curve" smooth="yes"/>
      <point x="272" y="48"/>
      <point x="208" y="96"/>
      <point x="208" y="240" type="curve" smooth="yes"/>
      <point x="208" y="246"/>
      <point x="208" y="251"/>
      <point x="208" y="256" type="curve"/>
      <point x="504" y="256" type="line"/>
      <point x="504" y="376"/>
      <point x="456" y="496"/>
      <point x="312" y="496" type="curve" smooth="yes"/>
      <point x="176" y="496"/>
      <point x="104" y="376"/>
      <point x="104" y="240" type="curve" smooth="yes"/>
      <point x="104" y="104"/>
      <point x="176" y="-16"/>
      <point x="312" y="-16" type="curve" smooth="yes"/>
      <point x="440" y="-16"/>
      <point x="472" y="80"/>
    </contour>
  </outline>
</glyph>
<glyph name="eth" format="1">
  <advance width="602"/>
  <unicode hex="00F0"/>
  <outline>
    <contour>
      <point x="363" y="471" type="curve"/>
      <point x="345" y="476"/>
      <point x="328" y="479"/>
      <point x="312" y="479" type="curve" smooth="yes"/>
      <point x="160" y="479"/>
      <point x="65" y="381"/>
      <point x="65" y="231" type="curve" smooth="yes"/>
      <point x="65" y="81"/>
      <point x="163" y="-16"/>
      <point x="301" y="-16" type="curve" smooth="yes"/>
      <point x="439" y="-16"/>
      <point x="537" y="84"/>
      <point x="537" y="231" type="curve" smooth="yes"/>
      <point x="537" y="365"/>
      <point x="479" y="473"/>
      <point x="354" y="583" type="curve"/>
      <point x="515" y="656" type="line"/>
      <point x="500" y="687" type="line"/>
      <point x="323" y="608" type="line"/>
      <point x="281" y="640"/>
      <point x="236" y="671"/>
      <point x="188" y="703" type="curve"/>
      <point x="165" y="672" type="line"/>
      <point x="197" y="644"/>
      <point x="231" y="614"/>
      <point x="266" y="581" type="curve"/>
      <point x="88" y="501" type="line"/>
      <point x="103" y="470" type="line"/>
      <point x="292" y="555" type="line"/>
      <point x="315" y="532"/>
      <point x="339" y="504"/>
    </contour>
    <contour>
      <point x="301" y="438" type="curve" smooth="yes"/>
      <point x="396" y="438"/>
      <point x="435" y="372"/>
      <point x="435" y="231" type="curve" smooth="yes"/>
      <point x="435" y="90"/>
      <point x="396" y="25"/>
      <point x="301" y="25" type="curve" smooth="yes"/>
      <point x="207" y="25"/>
      <point x="168" y="91"/>
      <point x="168" y="231" type="curve" smooth="yes"/>
      <point x="168" y="371"/>
      <point x="207" y="438"/>
    </contour>
  </outline>
</glyph>
<glyph name="ntilde" format="1">
  <advance width="608"/>
  <unicode hex="00F1"/>
  <outline>
    <contour>
      <point x="96" y="608" type="line"/>
      <point x="128" y="632"/>
      <point x="160" y="656"/>
      <point x="208" y="656" type="curve" smooth="yes"/>
      <point x="256" y="656"/>
      <point x="336" y="576"/>
      <point x="400" y="576" type="curve" smooth="yes"/>
      <point x="464" y="576"/>
      <point x="512" y="616"/>
      <point x="544" y="640" type="curve"/>
      <point x="512" y="704" type="line"/>
      <point x="480" y="680"/>
      <point x="448" y="656"/>
      <point x="400" y="656" type="curve" smooth="yes"/>
      <point x="352" y="656"/>
      <point x="272" y="736"/>
      <point x="208" y="736" type="curve" smooth="yes"/>
      <point x="144" y="736"/>
      <point x="96" y="696"/>
      <point x="64" y="672" type="curve"/>
    </contour>
    <contour>
      <point x="284" y="24" type="line"/>
      <point x="220" y="56" type="line"/>
      <point x="220" y="376" type="line"/>
      <point x="256" y="412"/>
      <point x="288" y="440"/>
      <point x="312" y="440" type="curve" smooth="yes"/>
      <point x="360" y="440"/>
      <point x="388" y="400"/>
      <point x="388" y="320" type="curve" smooth="yes"/>
      <point x="388" y="56" type="line"/>
      <point x="324" y="24" type="line"/>
      <point x="324" y="0" type="line"/>
      <point x="544" y="0" type="line"/>
      <point x="544" y="24" type="line"/>
      <point x="480" y="56" type="line"/>
      <point x="480" y="304" type="line" smooth="yes"/>
      <point x="480" y="416"/>
      <point x="456" y="496"/>
      <point x="344" y="496" type="curve" smooth="yes"/>
      <point x="304" y="496"/>
      <point x="268" y="480"/>
      <point x="220" y="432" type="curve" smooth="yes"/>
      <point x="208" y="420" type="line"/>
      <point x="208" y="480" type="line"/>
      <point x="64" y="480" type="line"/>
      <point x="64" y="456" type="line"/>
      <point x="128" y="424" type="line"/>
      <point x="128" y="56" type="line"/>
      <point x="64" y="24" type="line"/>
      <point x="64" y="0" type="line"/>
      <point x="284" y="0" type="line"/>
    </contour>
  </outline>
</glyph>
<glyph name="ocircumflex" format="1">
  <advance width="608"/>
  <unicode hex="00F4"/>
  <outline>
    <contour>
      <point x="160" y="528" type="line"/>
      <point x="304" y="672" type="line"/>
      <point x="448" y="528" type="line"/>
      <point x="480" y="560" type="line"/>
      <point x="336" y="752" type="line"/>
      <point x="272" y="752" type="line"/>
      <point x="128" y="560" type="line"/>
    </contour>
    <contour>
      <point x="544" y="240" type="curve" smooth="yes"/>
      <point x="544" y="376"/>
      <point x="456" y="496"/>
      <point x="304" y="496" type="curve" smooth="yes"/>
      <point x="152" y="496"/>
      <point x="64" y="376"/>
      <point x="64" y="240" type="curve" smooth="yes"/>
      <point x="64" y="104"/>
      <point x="152" y="-16"/>
      <point x="304" y="-16" type="curve" smooth="yes"/>
      <point x="456" y="-16"/>
      <point x="544" y="104"/>
    </contour>
    <contour>
      <point x="440" y="240" type="curve" smooth="yes"/>
      <point x="440" y="96"/>
      <point x="384" y="32"/>
      <point x="304" y="32" type="curve" smooth="yes"/>
      <point x="224" y="32"/>
      <point x="168" y="96"/>
      <point x="168" y="240" type="curve" smooth="yes"/>
      <point x="168" y="384"/>
      <point x="224" y="448"/>
      <point x="304" y="448" type="curve" smooth="yes"/>
      <point x="384" y="448"/>
      <point x="440" y="384"/>
    </contour>
  </outline>
</glyph>
<glyph name="odieresis" format="1">
  <advance width="608"/>
  <unicode hex="00F6"/>
  <outline>
    <contour>
      <point x="192" y="704" type="curve" smooth="yes"/>
      <point x="156" y="704"/>
      <point x="128" y="676"/>
      <point x="128" y="640" type="curve" smooth="yes"/>
      <point x="128" y="604"/>
      <point x="156" y="576"/>
      <point x="192" y="576" type="curve" smooth="yes"/>
      <point x="228" y="576"/>
      <point x="256" y="604"/>
      <point x="256" y="640" type="curve" smooth="yes"/>
      <point x="256" y="676"/>
      <point x="228" y="704"/>
    </contour>
    <contour>
      <point x="416" y="704" type="curve" smooth="yes"/>
      <point x="380" y="704"/>
      <point x="352" y="676"/>
      <point x="352" y="640" type="curve" smooth="yes"/>
      <point x="352" y="604"/>
      <point x="380" y="576"/>
      <point x="416" y="576" type="curve" smooth="yes"/>
      <point x="452" y="576"/>
      <point x="480" y="604"/>
      <point x="480" y="640" type="curve" smooth="yes"/>
      <point x="480" y="676"/>
      <point x="452" y="704"/>
    </contour>
    <contour>
      <point x="544" y="240" type="curve" smooth="yes"/>
      <point x="544" y="376"/>
      <point x="456" y="496"/>
      <point x="304" y="496" type="curve" smooth="yes"/>
      <point x="152" y="496"/>
      <point x="64" y="376"/>
      <point x="64" y="240" type="curve" smooth="yes"/>
      <point x="64" y="104"/>
      <point x="152" y="-16"/>
      <point x="304" y="-16" type="curve" smooth="yes"/>
      <point x="456" y="-16"/>
      <point x="544" y="104"/>
    </contour>
    <contour>
      <point x="440" y="240" type="curve" smooth="yes"/>
      <point x="440" y="96"/>
      <point x="384" y="32"/>
      <point x="304" y="32" type="curve" smooth="yes"/>
      <point x="224" y="32"/>
      <point x="168" y="96"/>
      <point x="168" y="240" type="curve" smooth="yes"/>
      <point x="168" y="384"/>
      <point x="224" y="448"/>
      <point x="304" y="448" type="curve" smooth="yes"/>
      <point x="384" y="448"/>
      <point x="440" y="384"/>
    </contour>
  </outline>
</glyph>
<glyph name="divide" format="1">
  <advance width="608"/>
  <unicode hex="00F7"/>
  <outline>
    <contour>
      <point x="304" y="496" type="curve" smooth="yes"/>
      <point x="268" y="496"/>
      <point x="240" y="468"/>
      <point x="240" y="432" type="curve" smooth="yes"/>
      <point x="240" y="396"/>
      <point x="268" y="368"/>
      <point x="304" y="368" type="curve" smooth="yes"/>
      <point x="340" y="368"/>
      <point x="368" y="396"/>
      <point x="368" y="432" type="curve" smooth="yes"/>
      <point x="368" y="468"/>
      <point x="340" y="496"/>
    </contour>
    <contour>
      <point x="544" y="224" type="line"/>
      <point x="544" y="288" type="line"/>
      <point x="64" y="288" type="line"/>
      <point x="64" y="224" type="line"/>
    </contour>
    <contour>
      <point x="304" y="144" type="curve" smooth="yes"/>
      <point x="268" y="144"/>
      <point x="240" y="116"/>
      <point x="240" y="80" type="curve" smooth="yes"/>
      <point x="240" y="44"/>
      <point x="268" y="16"/>
      <point x="304" y="16" type="curve" smooth="yes"/>
      <point x="340" y="16"/>
      <point x="368" y="44"/>
      <point x="368" y="80" type="curve" smooth="yes"/>
      <point x="368" y="116"/>
      <point x="340" y="144"/>
    </contour>
  </outline>
</glyph>
<glyph name="oslash" format="1">
  <advance width="608"/>
  <unicode hex="00F8"/>
  <outline>
    <contour>
      <point x="304" y="-16" type="curve" smooth="yes"/>
      <point x="456" y="-16"/>
      <point x="544" y="104"/>
      <point x="544" y="240" type="curve" smooth="yes"/>
      <point x="544" y="282"/>
      <point x="536" y="322"/>
      <point x="520" y="358" type="curve"/>
      <point x="584" y="400" type="line"/>
      <point x="568" y="432" type="line"/>
      <point x="503" y="390" type="line"/>
      <point x="463" y="453"/>
      <point x="395" y="496"/>
      <point x="304" y="496" type="curve" smooth="yes"/>
      <point x="152" y="496"/>
      <point x="64" y="376"/>
      <point x="64" y="240" type="curve" smooth="yes"/>
      <point x="64" y="198"/>
      <point x="72" y="158"/>
      <point x="88" y="122" type="curve"/>
      <point x="24" y="80" type="line"/>
      <point x="40" y="48" type="line"/>
      <point x="105" y="90" type="line"/>
      <point x="145" y="27"/>
      <point x="213" y="-16"/>
    </contour>
    <contour>
      <point x="168" y="240" type="curve" smooth="yes"/>
      <point x="168" y="384"/>
      <point x="224" y="448"/>
      <point x="304" y="448" type="curve" smooth="yes"/>
      <point x="362" y="448"/>
      <point x="407" y="414"/>
      <point x="428" y="341" type="curve"/>
      <point x="172" y="176" type="line"/>
      <point x="169" y="195"/>
      <point x="168" y="217"/>
    </contour>
    <contour>
      <point x="304" y="32" type="curve" smooth="yes"/>
      <point x="246" y="32"/>
      <point x="201" y="66"/>
      <point x="180" y="139" type="curve"/>
      <point x="436" y="304" type="line"/>
      <point x="439" y="285"/>
      <point x="440" y="263"/>
      <point x="440" y="240" type="curve" smooth="yes"/>
      <point x="440" y="96"/>
      <point x="384" y="32"/>
    </contour>
  </outline>
</glyph>
<glyph name="ugrave" format="1">
  <advance width="608"/>
  <unicode hex="00F9"/>
  <outline>
    <contour>
      <point x="376" y="528" type="line"/>
      <point x="400" y="560" type="line"/>
      <point x="256" y="704" type="line" smooth="yes"/>
      <point x="246" y="714"/>
      <point x="232" y="720"/>
      <point x="216" y="720" type="curve" smooth="yes"/>
      <point x="184" y="720"/>
      <point x="160" y="696"/>
      <point x="160" y="664" type="curve" smooth="yes"/>
      <point x="160" y="642"/>
      <point x="172" y="623"/>
      <point x="190" y="614" type="curve"/>
      <point x="191" y="613"/>
      <point x="192" y="613"/>
      <point x="193" y="612" type="curve"/>
    </contour>
    <contour>
      <point x="388" y="48" type="curve" smooth="yes"/>
      <point x="400" y="60" type="line"/>
      <point x="400" y="0" type="line"/>
      <point x="544" y="0" type="line"/>
      <point x="544" y="24" type="line"/>
      <point x="480" y="56" type="line"/>
      <point x="480" y="480" type="line"/>
      <point x="324" y="480" type="line"/>
      <point x="324" y="456" type="line"/>
      <point x="388" y="424" type="line"/>
      <point x="388" y="96" type="line"/>
      <point x="352" y="60"/>
      <point x="328" y="40"/>
      <point x="296" y="40" type="curve" smooth="yes"/>
      <point x="248" y="40"/>
      <point x="220" y="80"/>
      <point x="220" y="160" type="curve" smooth="yes"/>
      <point x="220" y="480" type="line"/>
      <point x="64" y="480" type="line"/>
      <point x="64" y="456" type="line"/>
      <point x="128" y="424" type="line"/>
      <point x="128" y="176" type="line" smooth="yes"/>
      <point x="128" y="64"/>
      <point x="152" y="-16"/>
      <point x="264" y="-16" type="curve" smooth="yes"/>
      <point x="304" y="-16"/>
      <point x="340" y="0"/>
    </contour>
  </outline>
</glyph>
<glyph name="uacute" format="1">
  <advance width="608"/>
  <unicode hex="00FA"/>
  <outline>
    <contour>
      <point x="232" y="528" type="line"/>
      <point x="415" y="613" type="line"/>
      <point x="435" y="621"/>
      <point x="448" y="640"/>
      <point x="448" y="664" type="curve" smooth="yes"/>
      <point x="448" y="696"/>
      <point x="424" y="720"/>
      <point x="392" y="720" type="curve" smooth="yes"/>
      <point x="376" y="720"/>
      <point x="362" y="714"/>
      <point x="352" y="704" type="curve" smooth="yes"/>
      <point x="208" y="560" type="line"/>
    </contour>
    <contour>
      <point x="388" y="48" type="curve" smooth="yes"/>
      <point x="400" y="60" type="line"/>
      <point x="400" y="0" type="line"/>
      <point x="544" y="0" type="line"/>
      <point x="544" y="24" type="line"/>
      <point x="480" y="56" type="line"/>
      <point x="480" y="480" type="line"/>
      <point x="324" y="480" type="line"/>
      <point x="324" y="456" type="line"/>
      <point x="388" y="424" type="line"/>
      <point x="388" y="96" type="line"/>
      <point x="352" y="60"/>
      <point x="328" y="40"/>
      <point x="296" y="40" type="curve" smooth="yes"/>
      <point x="248" y="40"/>
      <point x="220" y="80"/>
      <point x="220" y="160" type="curve" smooth="yes"/>
      <point x="220" y="480" type="line"/>
      <point x="64" y="480" type="line"/>
      <point x="64" y="456" type="line"/>
      <point x="128" y="424" type="line"/>
      <point x="128" y="176" type="line" smooth="yes"/>
      <point x="128" y="64"/>
      <point x="152" y="-16"/>
      <point x="264" y="-16" type="curve" smooth="yes"/>
      <point x="304" y="-16"/>
      <point x="340" y="0"/>
    </contour>
  </outline>
</glyph>
<glyph name="thorn" format="1">
  <advance width="608"/>
  <unicode hex="00FE"/>
  <outline>
    <contour>
      <point x="288" y="32" type="curve" smooth="yes"/>
      <point x="244" y="32"/>
      <point x="220" y="42"/>
      <point x="188" y="72" type="curve"/>
      <point x="188" y="408" type="line"/>
      <point x="220" y="438"/>
      <point x="244" y="448"/>
      <point x="288" y="448" type="curve" smooth="yes"/>
      <point x="352" y="448"/>
      <point x="400" y="384"/>
      <point x="400" y="240" type="curve" smooth="yes"/>
      <point x="400" y="96"/>
      <point x="352" y="32"/>
    </contour>
    <contour>
      <point x="252" y="-168" type="line"/>
      <point x="188" y="-136" type="line"/>
      <point x="188" y="13" type="line"/>
      <point x="212" y="-2"/>
      <point x="258" y="-16"/>
      <point x="288" y="-16" type="curve" smooth="yes"/>
      <point x="424" y="-16"/>
      <point x="504" y="104"/>
      <point x="504" y="240" type="curve" smooth="yes"/>
      <point x="504" y="376"/>
      <point x="424" y="496"/>
      <point x="288" y="496" type="curve" smooth="yes"/>
      <point x="251" y="496"/>
      <point x="221" y="486"/>
      <point x="188" y="456" type="curve"/>
      <point x="188" y="704" type="line"/>
      <point x="32" y="704" type="line"/>
      <point x="32" y="680" type="line"/>
      <point x="96" y="648" type="line"/>
      <point x="96" y="-136" type="line"/>
      <point x="32" y="-168" type="line"/>
      <point x="32" y="-192" type="line"/>
      <point x="252" y="-192" type="line"/>
    </contour>
  </outline>
</glyph>
<glyph name="ydieresis" format="1">
  <advance width="608"/>
  <unicode hex="00FF"/>
  <outline>
    <contour>
      <point x="192" y="704" type="curve" smooth="yes"/>
      <point x="156" y="704"/>
      <point x="128" y="676"/>
      <point x="128" y="640" type="curve" smooth="yes"/>
      <point x="128" y="604"/>
      <point x="156" y="576"/>
      <point x="192" y="576" type="curve" smooth="yes"/>
      <point x="228" y="576"/>
      <point x="256" y="604"/>
      <point x="256" y="640" type="curve" smooth="yes"/>
      <point x="256" y="676"/>
      <point x="228" y="704"/>
    </contour>
    <contour>
      <point x="416" y="704" type="curve" smooth="yes"/>
      <point x="380" y="704"/>
      <point x="352" y="676"/>
      <point x="352" y="640" type="curve" smooth="yes"/>
      <point x="352" y="604"/>
      <point x="380" y="576"/>
      <point x="416" y="576" type="curve" smooth="yes"/>
      <point x="452" y="576"/>
      <point x="480" y="604"/>
      <point x="480" y="640" type="curve" smooth="yes"/>
      <point x="480" y="676"/>
      <point x="452" y="704"/>
    </contour>
    <contour>
      <point x="128" y="-208" type="curve" smooth="yes"/>
      <point x="176" y="-208"/>
      <point x="222" y="-186"/>
      <point x="248" y="-114" type="curve" smooth="yes"/>
      <point x="448" y="424" type="line"/>
      <point x="512" y="456" type="line"/>
      <point x="512" y="480" type="line"/>
      <point x="320" y="480" type="line"/>
      <point x="320" y="456" type="line"/>
      <point x="384" y="424" type="line"/>
      <point x="274" y="127" type="line"/>
      <point x="160" y="424" type="line"/>
      <point x="224" y="456" type="line"/>
      <point x="224" y="480" type="line"/>
      <point x="0" y="480" type="line"/>
      <point x="0" y="456" type="line"/>
      <point x="64" y="424" type="line"/>
      <point x="224" y="0" type="line"/>
      <point x="227" y="0" type="line"/>
      <point x="182" y="-120" type="line" smooth="yes"/>
      <point x="174" y="-144"/>
      <point x="160" y="-152"/>
      <point x="152" y="-152" type="curve" smooth="yes"/>
      <point x="130" y="-152"/>
      <point x="136" y="-100"/>
      <point x="114" y="-78" type="curve"/>
      <point x="102" y="-63"/>
      <point x="84" y="-54"/>
      <point x="66" y="-54" type="curve" smooth="yes"/>
      <point x="28" y="-54"/>
      <point x="0" y="-82"/>
      <point x="0" y="-120" type="curve" smooth="yes"/>
      <point x="0" y="-172"/>
      <point x="56" y="-208"/>
    </contour>
  </outline>
</glyph>
<glyph name="dotlessi" format="1">
  <advance width="608"/>
  <unicode hex="0131"/>
  <outline>
    <contour>
      <point x="496" y="24" type="line"/>
      <point x="352" y="72" type="line"/>
      <point x="352" y="480" type="line"/>
      <point x="164" y="480" type="line"/>
      <point x="164" y="456" type="line"/>
      <point x="260" y="424" type="line"/>
      <point x="260" y="72" type="line"/>
      <point x="114" y="24" type="line"/>
      <point x="114" y="0" type="line"/>
      <point x="496" y="0" type="line"/>
    </contour>
  </outline>
</glyph>
<glyph name="lslash" format="1">
  <advance width="608"/>
  <unicode hex="0142"/>
  <outline>
    <contour>
      <point x="478" y="0" type="line"/>
      <point x="478" y="24" type="line"/>
      <point x="350" y="56" type="line"/>
      <point x="350" y="345" type="line"/>
      <point x="584" y="496" type="line"/>
      <point x="568" y="528" type="line"/>
      <point x="350" y="387" type="line"/>
      <point x="350" y="704" type="line"/>
      <point x="162" y="704" type="line"/>
      <point x="162" y="680" type="line"/>
      <point x="258" y="648" type="line"/>
      <point x="258" y="327" type="line"/>
      <point x="24" y="176" type="line"/>
      <point x="40" y="144" type="line"/>
      <point x="258" y="285" type="line"/>
      <point x="258" y="56" type="line"/>
      <point x="130" y="24" type="line"/>
      <point x="130" y="0" type="line"/>
    </contour>
  </outline>
</glyph>
<glyph name="Scaron" format="1">
  <advance width="608"/>
  <unicode hex="0160"/>
  <outline>
    <contour>
      <point x="160" y="976" type="line"/>
      <point x="128" y="944" type="line"/>
      <point x="272" y="752" type="line"/>
      <point x="336" y="752" type="line"/>
      <point x="480" y="944" type="line"/>
      <point x="448" y="976" type="line"/>
      <point x="304" y="832" type="line"/>
    </contour>
    <contour>
      <point x="328" y="-8" type="curve" smooth="yes"/>
      <point x="456" y="-8"/>
      <point x="536" y="64"/>
      <point x="536" y="192" type="curve" smooth="yes"/>
      <point x="536" y="320"/>
      <point x="440" y="352"/>
      <point x="328" y="416" type="curve" smooth="yes"/>
      <point x="216" y="480"/>
      <point x="160" y="496"/>
      <point x="160" y="568" type="curve" smooth="yes"/>
      <point x="160" y="616"/>
      <point x="216" y="664"/>
      <point x="296" y="664" type="curve" smooth="yes"/>
      <point x="376" y="664"/>
      <point x="440" y="608"/>
      <point x="456" y="480" type="curve"/>
      <point x="488" y="480" type="line"/>
      <point x="488" y="704" type="line"/>
      <point x="456" y="704" type="line"/>
      <point x="418" y="666" type="line"/>
      <point x="387" y="694"/>
      <point x="344" y="712"/>
      <point x="280" y="712" type="curve" smooth="yes"/>
      <point x="170" y="712"/>
      <point x="80" y="630"/>
      <point x="80" y="528" type="curve" smooth="yes"/>
      <point x="80" y="386"/>
      <point x="182" y="378"/>
      <point x="312" y="304" type="curve" smooth="yes"/>
      <point x="424" y="240"/>
      <point x="440" y="192"/>
      <point x="440" y="144" type="curve" smooth="yes"/>
      <point x="440" y="80"/>
      <point x="400" y="48"/>
      <point x="312" y="48" type="curve" smooth="yes"/>
      <point x="248" y="48"/>
      <point x="136" y="128"/>
      <point x="120" y="256" type="curve"/>
      <point x="88" y="256" type="line"/>
      <point x="88" y="0" type="line"/>
      <point x="120" y="0" type="line"/>
      <point x="178" y="58" type="line"/>
      <point x="225" y="15"/>
      <point x="276" y="-8"/>
    </contour>
  </outline>
</glyph>
<glyph name="circumflex" format="1">
  <advance width="608"/>
  <unicode hex="02C6"/>
  <outline>
    <contour>
      <point x="160" y="480" type="line"/>
      <point x="304" y="624" type="line"/>
      <point x="448" y="480" type="line"/>
      <point x="480" y="512" type="line"/>
      <point x="336" y="704" type="line"/>
      <point x="272" y="704" type="line"/>
      <point x="128" y="512" type="line"/>
    </contour>
  </outline>
</glyph>
<glyph name="ring" format="1">
  <advance width="602"/>
  <unicode hex="02DA"/>
  <outline>
    <contour>
      <point x="160" y="704" type="curve" smooth="yes"/>
      <point x="160" y="626"/>
      <point x="226" y="560"/>
      <point x="304" y="560" type="curve" smooth="yes"/>
      <point x="384" y="560"/>
      <point x="448" y="626"/>
      <point x="448" y="704" type="curve" smooth="yes"/>
      <point x="448" y="782"/>
      <point x="384" y="848"/>
      <point x="304" y="848" type="curve" smooth="yes"/>
      <point x="226" y="848"/>
      <point x="160" y="782"/>
    </contour>
    <contour>
      <point x="224" y="704" type="curve" smooth="yes"/>
      <point x="224" y="748"/>
      <point x="260" y="784"/>
      <point x="304" y="784" type="curve" smooth="yes"/>
      <point x="348" y="784"/>
      <point x="384" y="748"/>
      <point x="384" y="704" type="curve" smooth="yes"/>
      <point x="384" y="660"/>
      <point x="348" y="624"/>
      <point x="304" y="624" type="curve" smooth="yes"/>
      <point x="260" y="624"/>
      <point x="224" y="660"/>
    </contour>
  </outline>
</glyph>
<glyph name="ogonek" format="1">
  <advance width="608"/>
  <unicode hex="02DB"/>
  <outline>
    <contour>
      <point x="392" y="-128" type="curve"/>
      <point x="376" y="-112" type="line"/>
      <point x="358" y="-136"/>
      <point x="346" y="-154"/>
      <point x="320" y="-154" type="curve" smooth="yes"/>
      <point x="292" y="-154"/>
      <point x="272" y="-136"/>
      <point x="272" y="-96" type="curve" smooth="yes"/>
      <point x="272" y="-62"/>
      <point x="302" y="-30"/>
      <point x="360" y="16" type="curve"/>
      <point x="336" y="32" type="line"/>
      <point x="252" y="-24"/>
      <point x="208" y="-74"/>
      <point x="208" y="-128" type="curve" smooth="yes"/>
      <point x="208" y="-172"/>
      <point x="242" y="-208"/>
      <point x="288" y="-208" type="curve" smooth="yes"/>
      <point x="332" y="-208"/>
      <point x="368" y="-178"/>
    </contour>
  </outline>
</glyph>
<glyph name="endash" format="1">
  <advance width="608"/>
  <unicode hex="2013"/>
  <outline>
    <contour>
      <point x="544" y="272" type="line"/>
      <point x="64" y="272" type="line"/>
      <point x="64" y="208" type="line"/>
      <point x="544" y="208" type="line"/>
    </contour>
  </outline>
</glyph>
<glyph name="emdash" format="1">
  <advance width="608"/>
  <unicode hex="2014"/>
  <outline>
    <contour>
      <point x="608" y="272" type="line"/>
      <point x="0" y="272" type="line"/>
      <point x="0" y="208" type="line"/>
      <point x="608" y="208" type="line"/>
    </contour>
  </outline>
</glyph>
<glyph name="quoteleft" format="1">
  <advance width="608"/>
  <unicode hex="2018"/>
  <outline>
    <contour>
      <point x="320" y="412" type="curve"/>
      <point x="344" y="436" type="line"/>
      <point x="296" y="484"/>
      <point x="264" y="562"/>
      <point x="310" y="608" type="curve"/>
      <point x="309" y="612" type="line"/>
      <point x="323" y="623"/>
      <point x="332" y="641"/>
      <point x="332" y="660" type="curve" smooth="yes"/>
      <point x="332" y="692"/>
      <point x="308" y="720"/>
      <point x="272" y="720" type="curve" smooth="yes"/>
      <point x="222" y="720"/>
      <point x="200" y="676"/>
      <point x="200" y="612" type="curve" smooth="yes"/>
      <point x="200" y="532"/>
      <point x="256" y="460"/>
    </contour>
  </outline>
</glyph>
<glyph name="quoteright" format="1">
  <advance width="608"/>
  <unicode hex="2019"/>
  <outline>
    <contour>
      <point x="224" y="412" type="line"/>
      <point x="288" y="460"/>
      <point x="344" y="532"/>
      <point x="344" y="612" type="curve" smooth="yes"/>
      <point x="344" y="674"/>
      <point x="323" y="718"/>
      <point x="276" y="720" type="curve" smooth="yes"/>
      <point x="272" y="720"/>
      <point x="273" y="720"/>
      <point x="273" y="720" type="curve"/>
      <point x="273" y="720"/>
      <point x="272" y="720"/>
      <point x="272" y="720" type="curve"/>
      <point x="236" y="720"/>
      <point x="212" y="692"/>
      <point x="212" y="660" type="curve" smooth="yes"/>
      <point x="212" y="641"/>
      <point x="221" y="623"/>
      <point x="235" y="612" type="curve"/>
      <point x="234" y="608" type="line"/>
      <point x="280" y="562"/>
      <point x="248" y="484"/>
      <point x="200" y="436" type="curve"/>
    </contour>
  </outline>
</glyph>
<glyph name="quotesinglbase" format="1">
  <advance width="608"/>
  <unicode hex="201A"/>
  <outline>
    <contour>
      <point x="224" y="-188" type="line"/>
      <point x="288" y="-140"/>
      <point x="344" y="-68"/>
      <point x="344" y="12" type="curve" smooth="yes"/>
      <point x="344" y="74"/>
      <point x="323" y="118"/>
      <point x="276" y="120" type="curve" smooth="yes"/>
      <point x="272" y="120"/>
      <point x="273" y="120"/>
      <point x="273" y="120" type="curve"/>
      <point x="273" y="120"/>
      <point x="272" y="120"/>
      <point x="272" y="120" type="curve"/>
      <point x="236" y="120"/>
      <point x="212" y="92"/>
      <point x="212" y="60" type="curve" smooth="yes"/>
      <point x="212" y="41"/>
      <point x="221" y="23"/>
      <point x="235" y="12" type="curve"/>
      <point x="234" y="8" type="line"/>
      <point x="280" y="-38"/>
      <point x="248" y="-116"/>
      <point x="200" y="-164" type="curve"/>
    </contour>
  </outline>
</glyph>
<glyph name="quotedblleft" format="1">
  <advance width="608"/>
  <unicode hex="201C"/>
  <outline>
    <contour>
      <point x="192" y="412" type="curve"/>
      <point x="228" y="412"/>
      <point x="252" y="440"/>
      <point x="252" y="472" type="curve" smooth="yes"/>
      <point x="252" y="491"/>
      <point x="243" y="509"/>
      <point x="229" y="520" type="curve"/>
      <point x="230" y="524" type="line"/>
      <point x="184" y="570"/>
      <point x="216" y="648"/>
      <point x="264" y="696" type="curve"/>
      <point x="240" y="720" type="line"/>
      <point x="176" y="672"/>
      <point x="120" y="600"/>
      <point x="120" y="520" type="curve" smooth="yes"/>
      <point x="120" y="458"/>
      <point x="141" y="414"/>
      <point x="188" y="412" type="curve" smooth="yes"/>
      <point x="192" y="412"/>
      <point x="191" y="412"/>
      <point x="191" y="412" type="curve"/>
      <point x="191" y="412"/>
      <point x="192" y="412"/>
    </contour>
    <contour>
      <point x="416" y="412" type="curve"/>
      <point x="452" y="412"/>
      <point x="476" y="440"/>
      <point x="476" y="472" type="curve" smooth="yes"/>
      <point x="476" y="491"/>
      <point x="467" y="509"/>
      <point x="453" y="520" type="curve"/>
      <point x="454" y="524" type="line"/>
      <point x="408" y="570"/>
      <point x="440" y="648"/>
      <point x="488" y="696" type="curve"/>
      <point x="464" y="720" type="line"/>
      <point x="400" y="672"/>
      <point x="344" y="600"/>
      <point x="344" y="520" type="curve" smooth="yes"/>
      <point x="344" y="458"/>
      <point x="365" y="414"/>
      <point x="412" y="412" type="curve" smooth="yes"/>
      <point x="416" y="412"/>
      <point x="415" y="412"/>
      <point x="415" y="412" type="curve"/>
      <point x="415" y="412"/>
      <point x="416" y="412"/>
    </contour>
  </outline>
</glyph>
<glyph name="quotedblright" format="1">
  <advance width="608"/>
  <unicode hex="201D"/>
  <outline>
    <contour>
      <point x="368" y="412" type="line"/>
      <point x="432" y="460"/>
      <point x="488" y="532"/>
      <point x="488" y="612" type="curve" smooth="yes"/>
      <point x="488" y="674"/>
      <point x="467" y="718"/>
      <point x="420" y="720" type="curve" smooth="yes"/>
      <point x="416" y="720"/>
      <point x="417" y="720"/>
      <point x="417" y="720" type="curve"/>
      <point x="417" y="720"/>
      <point x="416" y="720"/>
      <point x="416" y="720" type="curve"/>
      <point x="380" y="720"/>
      <point x="356" y="692"/>
      <point x="356" y="660" type="curve" smooth="yes"/>
      <point x="356" y="641"/>
      <point x="365" y="623"/>
      <point x="379" y="612" type="curve"/>
      <point x="378" y="608" type="line"/>
      <point x="424" y="562"/>
      <point x="392" y="484"/>
      <point x="344" y="436" type="curve"/>
    </contour>
    <contour>
      <point x="144" y="412" type="line"/>
      <point x="208" y="460"/>
      <point x="264" y="532"/>
      <point x="264" y="612" type="curve" smooth="yes"/>
      <point x="264" y="674"/>
      <point x="243" y="718"/>
      <point x="196" y="720" type="curve" smooth="yes"/>
      <point x="192" y="720"/>
      <point x="193" y="720"/>
      <point x="193" y="720" type="curve"/>
      <point x="193" y="720"/>
      <point x="192" y="720"/>
      <point x="192" y="720" type="curve"/>
      <point x="156" y="720"/>
      <point x="132" y="692"/>
      <point x="132" y="660" type="curve" smooth="yes"/>
      <point x="132" y="641"/>
      <point x="141" y="623"/>
      <point x="155" y="612" type="curve"/>
      <point x="154" y="608" type="line"/>
      <point x="200" y="562"/>
      <point x="168" y="484"/>
      <point x="120" y="436" type="curve"/>
    </contour>
  </outline>
</glyph>
<glyph name="quotedblbase" format="1">
  <advance width="608"/>
  <unicode hex="201E"/>
  <outline>
    <contour>
      <point x="368" y="-188" type="line"/>
      <point x="432" y="-140"/>
      <point x="488" y="-68"/>
      <point x="488" y="12" type="curve" smooth="yes"/>
      <point x="488" y="74"/>
      <point x="467" y="118"/>
      <point x="420" y="120" type="curve" smooth="yes"/>
      <point x="416" y="120"/>
      <point x="417" y="120"/>
      <point x="417" y="120" type="curve"/>
      <point x="417" y="120"/>
      <point x="416" y="120"/>
      <point x="416" y="120" type="curve"/>
      <point x="380" y="120"/>
      <point x="356" y="92"/>
      <point x="356" y="60" type="curve" smooth="yes"/>
      <point x="356" y="41"/>
      <point x="365" y="23"/>
      <point x="379" y="12" type="curve"/>
      <point x="378" y="8" type="line"/>
      <point x="424" y="-38"/>
      <point x="392" y="-116"/>
      <point x="344" y="-164" type="curve"/>
    </contour>
    <contour>
      <point x="144" y="-188" type="line"/>
      <point x="208" y="-140"/>
      <point x="264" y="-68"/>
      <point x="264" y="12" type="curve" smooth="yes"/>
      <point x="264" y="74"/>
      <point x="243" y="118"/>
      <point x="196" y="120" type="curve" smooth="yes"/>
      <point x="192" y="120"/>
      <point x="193" y="120"/>
      <point x="193" y="120" type="curve"/>
      <point x="193" y="120"/>
      <point x="192" y="120"/>
      <point x="192" y="120" type="curve"/>
      <point x="156" y="120"/>
      <point x="132" y="92"/>
      <point x="132" y="60" type="curve" smooth="yes"/>
      <point x="132" y="41"/>
      <point x="141" y="23"/>
      <point x="155" y="12" type="curve"/>
      <point x="154" y="8" type="line"/>
      <point x="200" y="-38"/>
      <point x="168" y="-116"/>
      <point x="120" y="-164" type="curve"/>
    </contour>
  </outline>
</glyph>
<glyph name="daggerdbl" format="1">
  <advance width="608"/>
  <unicode hex="2021"/>
  <outline>
    <contour>
      <point x="336" y="-192" type="line"/>
      <point x="336" y="96" type="line"/>
      <point x="544" y="96" type="line"/>
      <point x="544" y="160" type="line"/>
      <point x="336" y="160" type="line"/>
      <point x="336" y="416" type="line"/>
      <point x="544" y="416" type="line"/>
      <point x="544" y="480" type="line"/>
      <point x="336" y="480" type="line"/>
      <point x="336" y="704" type="line"/>
      <point x="272" y="704" type="line"/>
      <point x="272" y="480" type="line"/>
      <point x="64" y="480" type="line"/>
      <point x="64" y="416" type="line"/>
      <point x="272" y="416" type="line"/>
      <point x="272" y="160" type="line"/>
      <point x="64" y="160" type="line"/>
      <point x="64" y="96" type="line"/>
      <point x="272" y="96" type="line"/>
      <point x="272" y="-192" type="line"/>
    </contour>
  </outline>
</glyph>
<glyph name="bullet" format="1">
  <advance width="608"/>
  <unicode hex="2022"/>
  <outline>
    <contour>
      <point x="224" y="336" type="curve" smooth="yes"/>
      <point x="224" y="288"/>
      <point x="260" y="256"/>
      <point x="304" y="256" type="curve" smooth="yes"/>
      <point x="348" y="256"/>
      <point x="384" y="288"/>
      <point x="384" y="336" type="curve" smooth="yes"/>
      <point x="384" y="384"/>
      <point x="348" y="416"/>
      <point x="304" y="416" type="curve" smooth="yes"/>
      <point x="260" y="416"/>
      <point x="224" y="384"/>
    </contour>
  </outline>
</glyph>
